<svg width="54" height="54" viewBox="0 0 54 54" fill="none" xmlns="http://www.w3.org/2000/svg">
<path d="M8.25 3.5H45.75V0.5H8.25V3.5ZM50.5 8.25V45.75H53.5V8.25H50.5ZM45.75 50.5H8.25V53.5H45.75V50.5ZM3.5 45.75V8.25H0.5V45.75H3.5ZM8.25 50.5C5.62665 50.5 3.5 48.3734 3.5 45.75H0.5C0.5 50.0302 3.96979 53.5 8.25 53.5V50.5ZM50.5 45.75C50.5 48.3734 48.3734 50.5 45.75 50.5V53.5C50.0302 53.5 53.5 50.0302 53.5 45.75H50.5ZM45.75 3.5C48.3734 3.5 50.5 5.62665 50.5 8.25H53.5C53.5 3.96979 50.0302 0.5 45.75 0.5V3.5ZM8.25 0.5C3.96979 0.5 0.5 3.96979 0.5 8.25H3.5C3.5 5.62665 5.62665 3.5 8.25 3.5V0.5Z" fill="#C5C5C5"/>
<path d="M39.2727 16H21.5455L12 26.9091L21.5455 37.8182H39.2727C39.996 37.8182 40.6897 37.5308 41.2012 37.0194C41.7127 36.5079 42 35.8142 42 35.0909V18.7273C42 18.004 41.7127 17.3103 41.2012 16.7988C40.6897 16.2873 39.996 16 39.2727 16V16Z" stroke="#C5C5C5" stroke-width="3" stroke-linecap="round" stroke-linejoin="round"/>
<path d="M35.1818 22.8182L27 31" stroke="#C5C5C5" stroke-width="3" stroke-linecap="round" stroke-linejoin="round"/>
<path d="M27 22.8182L35.1818 31" stroke="#C5C5C5" stroke-width="3" stroke-linecap="round" stroke-linejoin="round"/>
</svg>
