<svg width="54" height="54" viewBox="0 0 54 54" fill="none" xmlns="http://www.w3.org/2000/svg">
    <path
        d="M16.5 33C17.3284 33 18 32.3284 18 31.5C18 30.6716 17.3284 30 16.5 30V33ZM30 16.5C30 17.3284 30.6716 18 31.5 18C32.3284 18 33 17.3284 33 16.5H30ZM8.25 3.5H45.75V0.5H8.25V3.5ZM50.5 8.25V45.75H53.5V8.25H50.5ZM45.75 50.5H8.25V53.5H45.75V50.5ZM3.5 45.75V8.25H0.5V45.75H3.5ZM8.25 50.5C5.62665 50.5 3.5 48.3734 3.5 45.75H0.5C0.5 50.0302 3.96979 53.5 8.25 53.5V50.5ZM50.5 45.75C50.5 48.3734 48.3734 50.5 45.75 50.5V53.5C50.0302 53.5 53.5 50.0302 53.5 45.75H50.5ZM45.75 3.5C48.3734 3.5 50.5 5.62665 50.5 8.25H53.5C53.5 3.96979 50.0302 0.5 45.75 0.5V3.5ZM8.25 0.5C3.96979 0.5 0.5 3.96979 0.5 8.25H3.5C3.5 5.62665 5.62665 3.5 8.25 3.5V0.5ZM25.5 24H39V21H25.5V24ZM39 24C39.8284 24 40.5 24.6716 40.5 25.5H43.5C43.5 23.0147 41.4853 21 39 21V24ZM40.5 25.5V39H43.5V25.5H40.5ZM40.5 39C40.5 39.8284 39.8284 40.5 39 40.5V43.5C41.4853 43.5 43.5 41.4853 43.5 39H40.5ZM39 40.5H25.5V43.5H39V40.5ZM25.5 40.5C24.6716 40.5 24 39.8284 24 39H21C21 41.4853 23.0147 43.5 25.5 43.5V40.5ZM24 39V25.5H21V39H24ZM24 25.5C24 24.6716 24.6716 24 25.5 24V21C23.0147 21 21 23.0147 21 25.5H24ZM16.5 30H15V33H16.5V30ZM15 30C14.6022 30 14.2206 29.842 13.9393 29.5607L11.818 31.682C12.6619 32.5259 13.8065 33 15 33V30ZM13.9393 29.5607C13.658 29.2794 13.5 28.8978 13.5 28.5H10.5C10.5 29.6935 10.9741 30.8381 11.818 31.682L13.9393 29.5607ZM13.5 28.5V15H10.5V28.5H13.5ZM13.5 15C13.5 14.6022 13.658 14.2206 13.9393 13.9393L11.818 11.818C10.9741 12.6619 10.5 13.8065 10.5 15H13.5ZM13.9393 13.9393C14.2206 13.658 14.6022 13.5 15 13.5V10.5C13.8065 10.5 12.6619 10.9741 11.818 11.818L13.9393 13.9393ZM15 13.5H28.5V10.5H15V13.5ZM28.5 13.5C28.8978 13.5 29.2794 13.658 29.5607 13.9393L31.682 11.818C30.8381 10.9741 29.6935 10.5 28.5 10.5V13.5ZM29.5607 13.9393C29.842 14.2206 30 14.6022 30 15H33C33 13.8065 32.5259 12.6619 31.682 11.818L29.5607 13.9393ZM30 15V16.5H33V15H30Z"
        fill="#ff8282" />
</svg>