<svg width="54" height="54" viewBox="0 0 54 54" fill="none" xmlns="http://www.w3.org/2000/svg">
<path d="M42.5 24.6286C42.5 23.8002 41.8284 23.1286 41 23.1286C40.1716 23.1286 39.5 23.8002 39.5 24.6286H42.5ZM41 26.0086L42.5 26.0094V26.0086H41ZM31.4945 13.6687C32.2512 14.0059 33.138 13.6658 33.4751 12.9091C33.8123 12.1524 33.4722 11.2656 32.7155 10.9284L31.4945 13.6687ZM42.0612 15.0687C42.6467 14.4826 42.6462 13.5329 42.0601 12.9474C41.4741 12.3619 40.5243 12.3624 39.9388 12.9485L42.0612 15.0687ZM26 29.0236L24.9393 30.0842C25.2207 30.3656 25.6024 30.5237 26.0004 30.5236C26.3983 30.5235 26.7799 30.3653 27.0612 30.0837L26 29.0236ZM22.5607 23.4629C21.9749 22.8771 21.0251 22.8771 20.4393 23.4629C19.8536 24.0487 19.8536 24.9985 20.4393 25.5842L22.5607 23.4629ZM8.25 3.5H45.75V0.5H8.25V3.5ZM50.5 8.25V45.75H53.5V8.25H50.5ZM45.75 50.5H8.25V53.5H45.75V50.5ZM3.5 45.75V8.25H0.5V45.75H3.5ZM8.25 50.5C5.62665 50.5 3.5 48.3734 3.5 45.75H0.5C0.5 50.0302 3.96979 53.5 8.25 53.5V50.5ZM50.5 45.75C50.5 48.3734 48.3734 50.5 45.75 50.5V53.5C50.0302 53.5 53.5 50.0302 53.5 45.75H50.5ZM45.75 3.5C48.3734 3.5 50.5 5.62665 50.5 8.25H53.5C53.5 3.96979 50.0302 0.5 45.75 0.5V3.5ZM8.25 0.5C3.96979 0.5 0.5 3.96979 0.5 8.25H3.5C3.5 5.62665 5.62665 3.5 8.25 3.5V0.5ZM39.5 24.6286V26.0086H42.5V24.6286H39.5ZM39.5 26.0077C39.4983 28.9189 38.5557 31.7515 36.8126 34.0832L39.2154 35.8794C41.3458 33.0297 42.498 29.5675 42.5 26.0094L39.5 26.0077ZM36.8126 34.0832C35.0695 36.4148 32.6194 38.1206 29.8277 38.946L30.6783 41.8229C34.0904 40.814 37.085 38.7292 39.2154 35.8794L36.8126 34.0832ZM29.8277 38.946C27.036 39.7714 24.0523 39.6723 21.3215 38.6634L20.2819 41.4775C23.6195 42.7106 27.2663 42.8317 30.6783 41.8229L29.8277 38.946ZM21.3215 38.6634C18.5908 37.6545 16.2593 35.79 14.6748 33.3478L12.1581 34.9806C14.0947 37.9655 16.9443 40.2444 20.2819 41.4775L21.3215 38.6634ZM14.6748 33.3478C13.0903 30.9056 12.3377 28.0166 12.5293 25.1117L9.53577 24.9144C9.30165 28.4647 10.2215 31.9957 12.1581 34.9806L14.6748 33.3478ZM12.5293 25.1117C12.7208 22.2069 13.8462 19.4418 15.7377 17.2288L13.4572 15.2796C11.1454 17.9844 9.76988 21.364 9.53577 24.9144L12.5293 25.1117ZM15.7377 17.2288C17.6291 15.0158 20.1853 13.4735 23.0249 12.8319L22.3637 9.90568C18.8931 10.6898 15.7689 12.5748 13.4572 15.2796L15.7377 17.2288ZM23.0249 12.8319C25.8644 12.1904 28.8354 12.4839 31.4945 13.6687L32.7155 10.9284C29.4654 9.4803 25.8343 9.12154 22.3637 9.90568L23.0249 12.8319ZM39.9388 12.9485L24.9388 27.9635L27.0612 30.0837L42.0612 15.0687L39.9388 12.9485ZM27.0607 27.9629L22.5607 23.4629L20.4393 25.5842L24.9393 30.0842L27.0607 27.9629Z" fill="#FDBA74"/>
</svg>
