<svg width="181" height="43" viewBox="0 0 181 43" fill="none" xmlns="http://www.w3.org/2000/svg">
<mask id="path-1-outside-1_1_950" maskUnits="userSpaceOnUse" x="0" y="0" width="181" height="43" fill="black">
<rect fill="white" width="181" height="43"/>
<path d="M3 13C3 7.47714 7.47715 3 13 3H168C173.523 3 178 7.47715 178 13V29.8421C178 35.365 173.523 39.8421 168 39.8421H13C7.47715 39.8421 3 35.365 3 29.8421V13Z"/>
<path d="M27.6137 29.0468H21.9418V13.0468H27.6605C29.2699 13.0468 30.6553 13.3671 31.8168 14.0077C32.9783 14.6431 33.8715 15.5572 34.4965 16.7499C35.1267 17.9426 35.4418 19.3697 35.4418 21.0312C35.4418 22.6978 35.1267 24.1301 34.4965 25.328C33.8715 26.526 32.973 27.4452 31.8012 28.0858C30.6345 28.7265 29.2387 29.0468 27.6137 29.0468ZM25.3246 26.1483H27.473C28.473 26.1483 29.3142 25.9713 29.9965 25.6171C30.684 25.2577 31.1996 24.703 31.5434 23.953C31.8923 23.1978 32.0668 22.2239 32.0668 21.0312C32.0668 19.8489 31.8923 18.8827 31.5434 18.1327C31.1996 17.3827 30.6866 16.8306 30.0043 16.4765C29.322 16.1223 28.4809 15.9452 27.4809 15.9452H25.3246V26.1483Z"/>
<path d="M43.6839 29.2812C42.4495 29.2812 41.387 29.0312 40.4964 28.5312C39.611 28.026 38.9287 27.3124 38.4495 26.3905C37.9704 25.4635 37.7308 24.3671 37.7308 23.1015C37.7308 21.8671 37.9704 20.7838 38.4495 19.8515C38.9287 18.9192 39.6032 18.1926 40.473 17.6718C41.348 17.1509 42.374 16.8905 43.5511 16.8905C44.3428 16.8905 45.0797 17.0181 45.762 17.2733C46.4495 17.5233 47.0485 17.901 47.5589 18.4062C48.0745 18.9114 48.4756 19.5468 48.762 20.3124C49.0485 21.0728 49.1917 21.9634 49.1917 22.9843V23.8983H39.0589V21.8358H46.0589C46.0589 21.3567 45.9547 20.9322 45.7464 20.5624C45.5381 20.1926 45.249 19.9036 44.8792 19.6952C44.5146 19.4817 44.0902 19.3749 43.6058 19.3749C43.1006 19.3749 42.6527 19.4921 42.262 19.7265C41.8766 19.9556 41.5745 20.2655 41.3558 20.6562C41.137 21.0416 41.0251 21.4713 41.0198 21.9452V23.9062C41.0198 24.4999 41.1292 25.0129 41.348 25.4452C41.5719 25.8775 41.887 26.2108 42.2933 26.4452C42.6995 26.6796 43.1813 26.7968 43.7386 26.7968C44.1084 26.7968 44.4469 26.7447 44.7542 26.6405C45.0615 26.5364 45.3245 26.3801 45.5433 26.1718C45.762 25.9635 45.9287 25.7082 46.0433 25.4062L49.1214 25.6093C48.9652 26.3489 48.6448 26.9947 48.1605 27.5468C47.6813 28.0937 47.0615 28.5207 46.3011 28.828C45.5459 29.1301 44.6735 29.2812 43.6839 29.2812Z"/>
<path d="M65.8733 18.6483H62.4514C62.3889 18.2056 62.2613 17.8124 62.0686 17.4687C61.8759 17.1197 61.6285 16.8228 61.3264 16.578C61.0243 16.3332 60.6754 16.1457 60.2795 16.0155C59.8889 15.8853 59.4644 15.8202 59.0061 15.8202C58.178 15.8202 57.4566 16.026 56.842 16.4374C56.2274 16.8437 55.7509 17.4374 55.4123 18.2187C55.0738 18.9947 54.9045 19.9374 54.9045 21.0468C54.9045 22.1874 55.0738 23.1457 55.4123 23.9218C55.7561 24.6978 56.2353 25.2838 56.8498 25.6796C57.4644 26.0754 58.1754 26.2733 58.9827 26.2733C59.4358 26.2733 59.8551 26.2135 60.2405 26.0937C60.6311 25.9739 60.9774 25.7994 61.2795 25.5702C61.5816 25.3358 61.8316 25.052 62.0295 24.7187C62.2327 24.3853 62.3733 24.0051 62.4514 23.578L65.8733 23.5937C65.7847 24.328 65.5634 25.0364 65.2092 25.7187C64.8603 26.3957 64.3889 27.0025 63.7952 27.539C63.2066 28.0702 62.5035 28.4921 61.6858 28.8046C60.8733 29.1119 59.954 29.2655 58.928 29.2655C57.5009 29.2655 56.2248 28.9426 55.0998 28.2968C53.9801 27.651 53.0946 26.7161 52.4436 25.4921C51.7978 24.2681 51.4748 22.7864 51.4748 21.0468C51.4748 19.302 51.803 17.8176 52.4592 16.5937C53.1155 15.3697 54.0061 14.4374 55.1311 13.7968C56.2561 13.1509 57.5217 12.828 58.928 12.828C59.8551 12.828 60.7144 12.9582 61.5061 13.2187C62.303 13.4791 63.0087 13.8593 63.6233 14.3593C64.2379 14.8541 64.7379 15.4608 65.1233 16.1796C65.5139 16.8983 65.7639 17.7213 65.8733 18.6483Z"/>
<path d="M73.9884 29.2812C72.7749 29.2812 71.7254 29.0233 70.84 28.5077C69.9598 27.9869 69.2801 27.2629 68.8009 26.3358C68.3218 25.4036 68.0822 24.3228 68.0822 23.0937C68.0822 21.8541 68.3218 20.7707 68.8009 19.8437C69.2801 18.9114 69.9598 18.1874 70.84 17.6718C71.7254 17.1509 72.7749 16.8905 73.9884 16.8905C75.202 16.8905 76.2489 17.1509 77.1291 17.6718C78.0145 18.1874 78.6968 18.9114 79.1759 19.8437C79.6551 20.7707 79.8947 21.8541 79.8947 23.0937C79.8947 24.3228 79.6551 25.4036 79.1759 26.3358C78.6968 27.2629 78.0145 27.9869 77.1291 28.5077C76.2489 29.0233 75.202 29.2812 73.9884 29.2812ZM74.0041 26.703C74.5562 26.703 75.0171 26.5468 75.3869 26.2343C75.7567 25.9166 76.0353 25.4843 76.2228 24.9374C76.4155 24.3905 76.5119 23.7681 76.5119 23.0702C76.5119 22.3723 76.4155 21.7499 76.2228 21.203C76.0353 20.6562 75.7567 20.2239 75.3869 19.9062C75.0171 19.5885 74.5562 19.4296 74.0041 19.4296C73.4468 19.4296 72.978 19.5885 72.5978 19.9062C72.2228 20.2239 71.939 20.6562 71.7463 21.203C71.5588 21.7499 71.465 22.3723 71.465 23.0702C71.465 23.7681 71.5588 24.3905 71.7463 24.9374C71.939 25.4843 72.2228 25.9166 72.5978 26.2343C72.978 26.5468 73.4468 26.703 74.0041 26.703Z"/>
<path d="M86.8106 29.2421C85.8992 29.2421 85.0736 29.0077 84.3341 28.539C83.5997 28.065 83.0164 27.3697 82.5841 26.453C82.157 25.5312 81.9434 24.401 81.9434 23.0624C81.9434 21.6874 82.1648 20.5442 82.6075 19.6327C83.0502 18.7161 83.6387 18.0312 84.3731 17.578C85.1127 17.1197 85.9226 16.8905 86.8028 16.8905C87.4747 16.8905 88.0346 17.0051 88.4825 17.2343C88.9356 17.4582 89.3002 17.7395 89.5762 18.078C89.8575 18.4114 90.071 18.7395 90.2169 19.0624H90.3184V13.0468H93.6387V29.0468H90.3575V27.1249H90.2169C90.0606 27.4582 89.8393 27.789 89.5528 28.1171C89.2716 28.44 88.9044 28.7082 88.4512 28.9218C88.0033 29.1353 87.4565 29.2421 86.8106 29.2421ZM87.8653 26.5937C88.4018 26.5937 88.8549 26.4478 89.2247 26.1562C89.5997 25.8593 89.8861 25.4452 90.0841 24.914C90.2872 24.3827 90.3887 23.7603 90.3887 23.0468C90.3887 22.3332 90.2898 21.7135 90.0919 21.1874C89.894 20.6614 89.6075 20.2551 89.2325 19.9687C88.8575 19.6822 88.4018 19.539 87.8653 19.539C87.3184 19.539 86.8575 19.6874 86.4825 19.9843C86.1075 20.2812 85.8236 20.6926 85.6309 21.2187C85.4382 21.7447 85.3419 22.3541 85.3419 23.0468C85.3419 23.7447 85.4382 24.3619 85.6309 24.8983C85.8289 25.4296 86.1127 25.8463 86.4825 26.1483C86.8575 26.4452 87.3184 26.5937 87.8653 26.5937Z"/>
<path d="M102.174 29.2812C100.939 29.2812 99.877 29.0312 98.9863 28.5312C98.1009 28.026 97.4186 27.3124 96.9395 26.3905C96.4603 25.4635 96.2207 24.3671 96.2207 23.1015C96.2207 21.8671 96.4603 20.7838 96.9395 19.8515C97.4186 18.9192 98.0931 18.1926 98.9629 17.6718C99.8379 17.1509 100.864 16.8905 102.041 16.8905C102.833 16.8905 103.57 17.0181 104.252 17.2733C104.939 17.5233 105.538 17.901 106.049 18.4062C106.564 18.9114 106.965 19.5468 107.252 20.3124C107.538 21.0728 107.682 21.9634 107.682 22.9843V23.8983H97.5488V21.8358H104.549C104.549 21.3567 104.445 20.9322 104.236 20.5624C104.028 20.1926 103.739 19.9036 103.369 19.6952C103.005 19.4817 102.58 19.3749 102.096 19.3749C101.59 19.3749 101.143 19.4921 100.752 19.7265C100.367 19.9556 100.064 20.2655 99.8457 20.6562C99.627 21.0416 99.515 21.4713 99.5098 21.9452V23.9062C99.5098 24.4999 99.6191 25.0129 99.8379 25.4452C100.062 25.8775 100.377 26.2108 100.783 26.4452C101.189 26.6796 101.671 26.7968 102.229 26.7968C102.598 26.7968 102.937 26.7447 103.244 26.6405C103.551 26.5364 103.814 26.3801 104.033 26.1718C104.252 25.9635 104.419 25.7082 104.533 25.4062L107.611 25.6093C107.455 26.3489 107.135 26.9947 106.65 27.5468C106.171 28.0937 105.551 28.5207 104.791 28.828C104.036 29.1301 103.163 29.2812 102.174 29.2812Z"/>
<path d="M110.184 29.0468V17.0468H113.41V19.1405H113.535C113.754 18.3957 114.121 17.8332 114.637 17.453C115.152 17.0676 115.746 16.8749 116.418 16.8749C116.585 16.8749 116.764 16.8853 116.957 16.9062C117.15 16.927 117.319 16.9556 117.465 16.9921V19.9452C117.309 19.8983 117.092 19.8567 116.816 19.8202C116.54 19.7838 116.288 19.7655 116.059 19.7655C115.569 19.7655 115.131 19.8723 114.746 20.0858C114.366 20.2942 114.064 20.5858 113.84 20.9608C113.621 21.3358 113.512 21.7681 113.512 22.2577V29.0468H110.184Z"/>
<path d="M125 29.0468V13.0468H131.312C132.526 13.0468 133.56 13.2786 134.414 13.7421C135.268 14.2004 135.919 14.8384 136.367 15.6562C136.82 16.4687 137.047 17.4062 137.047 18.4687C137.047 19.5312 136.817 20.4687 136.359 21.2812C135.901 22.0937 135.237 22.7265 134.367 23.1796C133.502 23.6327 132.456 23.8593 131.226 23.8593H127.203V21.1483H130.679C131.33 21.1483 131.867 21.0364 132.289 20.8124C132.716 20.5832 133.034 20.2681 133.242 19.8671C133.456 19.4608 133.562 18.9947 133.562 18.4687C133.562 17.9374 133.456 17.4739 133.242 17.078C133.034 16.677 132.716 16.3671 132.289 16.1483C131.862 15.9244 131.32 15.8124 130.664 15.8124H128.383V29.0468H125Z"/>
<path d="M139.511 29.0468V17.0468H142.738V19.1405H142.863C143.082 18.3957 143.449 17.8332 143.965 17.453C144.48 17.0676 145.074 16.8749 145.746 16.8749C145.912 16.8749 146.092 16.8853 146.285 16.9062C146.478 16.927 146.647 16.9556 146.793 16.9921V19.9452C146.636 19.8983 146.42 19.8567 146.144 19.8202C145.868 19.7838 145.616 19.7655 145.386 19.7655C144.897 19.7655 144.459 19.8723 144.074 20.0858C143.694 20.2942 143.392 20.5858 143.168 20.9608C142.949 21.3358 142.84 21.7681 142.84 22.2577V29.0468H139.511Z"/>
<path d="M153.707 29.2812C152.493 29.2812 151.444 29.0233 150.558 28.5077C149.678 27.9869 148.998 27.2629 148.519 26.3358C148.04 25.4036 147.8 24.3228 147.8 23.0937C147.8 21.8541 148.04 20.7707 148.519 19.8437C148.998 18.9114 149.678 18.1874 150.558 17.6718C151.444 17.1509 152.493 16.8905 153.707 16.8905C154.92 16.8905 155.967 17.1509 156.847 17.6718C157.733 18.1874 158.415 18.9114 158.894 19.8437C159.373 20.7707 159.613 21.8541 159.613 23.0937C159.613 24.3228 159.373 25.4036 158.894 26.3358C158.415 27.2629 157.733 27.9869 156.847 28.5077C155.967 29.0233 154.92 29.2812 153.707 29.2812ZM153.722 26.703C154.274 26.703 154.735 26.5468 155.105 26.2343C155.475 25.9166 155.754 25.4843 155.941 24.9374C156.134 24.3905 156.23 23.7681 156.23 23.0702C156.23 22.3723 156.134 21.7499 155.941 21.203C155.754 20.6562 155.475 20.2239 155.105 19.9062C154.735 19.5885 154.274 19.4296 153.722 19.4296C153.165 19.4296 152.696 19.5885 152.316 19.9062C151.941 20.2239 151.657 20.6562 151.464 21.203C151.277 21.7499 151.183 22.3723 151.183 23.0702C151.183 23.7681 151.277 24.3905 151.464 24.9374C151.657 25.4843 151.941 25.9166 152.316 26.2343C152.696 26.5468 153.165 26.703 153.722 26.703Z"/>
</mask>
<path d="M3 13C3 7.47714 7.47715 3 13 3H168C173.523 3 178 7.47715 178 13V29.8421C178 35.365 173.523 39.8421 168 39.8421H13C7.47715 39.8421 3 35.365 3 29.8421V13Z" fill="#202020"/>
<path d="M27.6137 29.0468H21.9418V13.0468H27.6605C29.2699 13.0468 30.6553 13.3671 31.8168 14.0077C32.9783 14.6431 33.8715 15.5572 34.4965 16.7499C35.1267 17.9426 35.4418 19.3697 35.4418 21.0312C35.4418 22.6978 35.1267 24.1301 34.4965 25.328C33.8715 26.526 32.973 27.4452 31.8012 28.0858C30.6345 28.7265 29.2387 29.0468 27.6137 29.0468ZM25.3246 26.1483H27.473C28.473 26.1483 29.3142 25.9713 29.9965 25.6171C30.684 25.2577 31.1996 24.703 31.5434 23.953C31.8923 23.1978 32.0668 22.2239 32.0668 21.0312C32.0668 19.8489 31.8923 18.8827 31.5434 18.1327C31.1996 17.3827 30.6866 16.8306 30.0043 16.4765C29.322 16.1223 28.4809 15.9452 27.4809 15.9452H25.3246V26.1483Z" fill="#FDBA74"/>
<path d="M43.6839 29.2812C42.4495 29.2812 41.387 29.0312 40.4964 28.5312C39.611 28.026 38.9287 27.3124 38.4495 26.3905C37.9704 25.4635 37.7308 24.3671 37.7308 23.1015C37.7308 21.8671 37.9704 20.7838 38.4495 19.8515C38.9287 18.9192 39.6032 18.1926 40.473 17.6718C41.348 17.1509 42.374 16.8905 43.5511 16.8905C44.3428 16.8905 45.0797 17.0181 45.762 17.2733C46.4495 17.5233 47.0485 17.901 47.5589 18.4062C48.0745 18.9114 48.4756 19.5468 48.762 20.3124C49.0485 21.0728 49.1917 21.9634 49.1917 22.9843V23.8983H39.0589V21.8358H46.0589C46.0589 21.3567 45.9547 20.9322 45.7464 20.5624C45.5381 20.1926 45.249 19.9036 44.8792 19.6952C44.5146 19.4817 44.0902 19.3749 43.6058 19.3749C43.1006 19.3749 42.6527 19.4921 42.262 19.7265C41.8766 19.9556 41.5745 20.2655 41.3558 20.6562C41.137 21.0416 41.0251 21.4713 41.0198 21.9452V23.9062C41.0198 24.4999 41.1292 25.0129 41.348 25.4452C41.5719 25.8775 41.887 26.2108 42.2933 26.4452C42.6995 26.6796 43.1813 26.7968 43.7386 26.7968C44.1084 26.7968 44.4469 26.7447 44.7542 26.6405C45.0615 26.5364 45.3245 26.3801 45.5433 26.1718C45.762 25.9635 45.9287 25.7082 46.0433 25.4062L49.1214 25.6093C48.9652 26.3489 48.6448 26.9947 48.1605 27.5468C47.6813 28.0937 47.0615 28.5207 46.3011 28.828C45.5459 29.1301 44.6735 29.2812 43.6839 29.2812Z" fill="#FDBA74"/>
<path d="M65.8733 18.6483H62.4514C62.3889 18.2056 62.2613 17.8124 62.0686 17.4687C61.8759 17.1197 61.6285 16.8228 61.3264 16.578C61.0243 16.3332 60.6754 16.1457 60.2795 16.0155C59.8889 15.8853 59.4644 15.8202 59.0061 15.8202C58.178 15.8202 57.4566 16.026 56.842 16.4374C56.2274 16.8437 55.7509 17.4374 55.4123 18.2187C55.0738 18.9947 54.9045 19.9374 54.9045 21.0468C54.9045 22.1874 55.0738 23.1457 55.4123 23.9218C55.7561 24.6978 56.2353 25.2838 56.8498 25.6796C57.4644 26.0754 58.1754 26.2733 58.9827 26.2733C59.4358 26.2733 59.8551 26.2135 60.2405 26.0937C60.6311 25.9739 60.9774 25.7994 61.2795 25.5702C61.5816 25.3358 61.8316 25.052 62.0295 24.7187C62.2327 24.3853 62.3733 24.0051 62.4514 23.578L65.8733 23.5937C65.7847 24.328 65.5634 25.0364 65.2092 25.7187C64.8603 26.3957 64.3889 27.0025 63.7952 27.539C63.2066 28.0702 62.5035 28.4921 61.6858 28.8046C60.8733 29.1119 59.954 29.2655 58.928 29.2655C57.5009 29.2655 56.2248 28.9426 55.0998 28.2968C53.9801 27.651 53.0946 26.7161 52.4436 25.4921C51.7978 24.2681 51.4748 22.7864 51.4748 21.0468C51.4748 19.302 51.803 17.8176 52.4592 16.5937C53.1155 15.3697 54.0061 14.4374 55.1311 13.7968C56.2561 13.1509 57.5217 12.828 58.928 12.828C59.8551 12.828 60.7144 12.9582 61.5061 13.2187C62.303 13.4791 63.0087 13.8593 63.6233 14.3593C64.2379 14.8541 64.7379 15.4608 65.1233 16.1796C65.5139 16.8983 65.7639 17.7213 65.8733 18.6483Z" fill="#FDBA74"/>
<path d="M73.9884 29.2812C72.7749 29.2812 71.7254 29.0233 70.84 28.5077C69.9598 27.9869 69.2801 27.2629 68.8009 26.3358C68.3218 25.4036 68.0822 24.3228 68.0822 23.0937C68.0822 21.8541 68.3218 20.7707 68.8009 19.8437C69.2801 18.9114 69.9598 18.1874 70.84 17.6718C71.7254 17.1509 72.7749 16.8905 73.9884 16.8905C75.202 16.8905 76.2489 17.1509 77.1291 17.6718C78.0145 18.1874 78.6968 18.9114 79.1759 19.8437C79.6551 20.7707 79.8947 21.8541 79.8947 23.0937C79.8947 24.3228 79.6551 25.4036 79.1759 26.3358C78.6968 27.2629 78.0145 27.9869 77.1291 28.5077C76.2489 29.0233 75.202 29.2812 73.9884 29.2812ZM74.0041 26.703C74.5562 26.703 75.0171 26.5468 75.3869 26.2343C75.7567 25.9166 76.0353 25.4843 76.2228 24.9374C76.4155 24.3905 76.5119 23.7681 76.5119 23.0702C76.5119 22.3723 76.4155 21.7499 76.2228 21.203C76.0353 20.6562 75.7567 20.2239 75.3869 19.9062C75.0171 19.5885 74.5562 19.4296 74.0041 19.4296C73.4468 19.4296 72.978 19.5885 72.5978 19.9062C72.2228 20.2239 71.939 20.6562 71.7463 21.203C71.5588 21.7499 71.465 22.3723 71.465 23.0702C71.465 23.7681 71.5588 24.3905 71.7463 24.9374C71.939 25.4843 72.2228 25.9166 72.5978 26.2343C72.978 26.5468 73.4468 26.703 74.0041 26.703Z" fill="#FDBA74"/>
<path d="M86.8106 29.2421C85.8992 29.2421 85.0736 29.0077 84.3341 28.539C83.5997 28.065 83.0164 27.3697 82.5841 26.453C82.157 25.5312 81.9434 24.401 81.9434 23.0624C81.9434 21.6874 82.1648 20.5442 82.6075 19.6327C83.0502 18.7161 83.6387 18.0312 84.3731 17.578C85.1127 17.1197 85.9226 16.8905 86.8028 16.8905C87.4747 16.8905 88.0346 17.0051 88.4825 17.2343C88.9356 17.4582 89.3002 17.7395 89.5762 18.078C89.8575 18.4114 90.071 18.7395 90.2169 19.0624H90.3184V13.0468H93.6387V29.0468H90.3575V27.1249H90.2169C90.0606 27.4582 89.8393 27.789 89.5528 28.1171C89.2716 28.44 88.9044 28.7082 88.4512 28.9218C88.0033 29.1353 87.4565 29.2421 86.8106 29.2421ZM87.8653 26.5937C88.4018 26.5937 88.8549 26.4478 89.2247 26.1562C89.5997 25.8593 89.8861 25.4452 90.0841 24.914C90.2872 24.3827 90.3887 23.7603 90.3887 23.0468C90.3887 22.3332 90.2898 21.7135 90.0919 21.1874C89.894 20.6614 89.6075 20.2551 89.2325 19.9687C88.8575 19.6822 88.4018 19.539 87.8653 19.539C87.3184 19.539 86.8575 19.6874 86.4825 19.9843C86.1075 20.2812 85.8236 20.6926 85.6309 21.2187C85.4382 21.7447 85.3419 22.3541 85.3419 23.0468C85.3419 23.7447 85.4382 24.3619 85.6309 24.8983C85.8289 25.4296 86.1127 25.8463 86.4825 26.1483C86.8575 26.4452 87.3184 26.5937 87.8653 26.5937Z" fill="#FDBA74"/>
<path d="M102.174 29.2812C100.939 29.2812 99.877 29.0312 98.9863 28.5312C98.1009 28.026 97.4186 27.3124 96.9395 26.3905C96.4603 25.4635 96.2207 24.3671 96.2207 23.1015C96.2207 21.8671 96.4603 20.7838 96.9395 19.8515C97.4186 18.9192 98.0931 18.1926 98.9629 17.6718C99.8379 17.1509 100.864 16.8905 102.041 16.8905C102.833 16.8905 103.57 17.0181 104.252 17.2733C104.939 17.5233 105.538 17.901 106.049 18.4062C106.564 18.9114 106.965 19.5468 107.252 20.3124C107.538 21.0728 107.682 21.9634 107.682 22.9843V23.8983H97.5488V21.8358H104.549C104.549 21.3567 104.445 20.9322 104.236 20.5624C104.028 20.1926 103.739 19.9036 103.369 19.6952C103.005 19.4817 102.58 19.3749 102.096 19.3749C101.59 19.3749 101.143 19.4921 100.752 19.7265C100.367 19.9556 100.064 20.2655 99.8457 20.6562C99.627 21.0416 99.515 21.4713 99.5098 21.9452V23.9062C99.5098 24.4999 99.6191 25.0129 99.8379 25.4452C100.062 25.8775 100.377 26.2108 100.783 26.4452C101.189 26.6796 101.671 26.7968 102.229 26.7968C102.598 26.7968 102.937 26.7447 103.244 26.6405C103.551 26.5364 103.814 26.3801 104.033 26.1718C104.252 25.9635 104.419 25.7082 104.533 25.4062L107.611 25.6093C107.455 26.3489 107.135 26.9947 106.65 27.5468C106.171 28.0937 105.551 28.5207 104.791 28.828C104.036 29.1301 103.163 29.2812 102.174 29.2812Z" fill="#FDBA74"/>
<path d="M110.184 29.0468V17.0468H113.41V19.1405H113.535C113.754 18.3957 114.121 17.8332 114.637 17.453C115.152 17.0676 115.746 16.8749 116.418 16.8749C116.585 16.8749 116.764 16.8853 116.957 16.9062C117.15 16.927 117.319 16.9556 117.465 16.9921V19.9452C117.309 19.8983 117.092 19.8567 116.816 19.8202C116.54 19.7838 116.288 19.7655 116.059 19.7655C115.569 19.7655 115.131 19.8723 114.746 20.0858C114.366 20.2942 114.064 20.5858 113.84 20.9608C113.621 21.3358 113.512 21.7681 113.512 22.2577V29.0468H110.184Z" fill="#FDBA74"/>
<path d="M125 29.0468V13.0468H131.312C132.526 13.0468 133.56 13.2786 134.414 13.7421C135.268 14.2004 135.919 14.8384 136.367 15.6562C136.82 16.4687 137.047 17.4062 137.047 18.4687C137.047 19.5312 136.817 20.4687 136.359 21.2812C135.901 22.0937 135.237 22.7265 134.367 23.1796C133.502 23.6327 132.456 23.8593 131.226 23.8593H127.203V21.1483H130.679C131.33 21.1483 131.867 21.0364 132.289 20.8124C132.716 20.5832 133.034 20.2681 133.242 19.8671C133.456 19.4608 133.562 18.9947 133.562 18.4687C133.562 17.9374 133.456 17.4739 133.242 17.078C133.034 16.677 132.716 16.3671 132.289 16.1483C131.862 15.9244 131.32 15.8124 130.664 15.8124H128.383V29.0468H125Z" fill="#FDBA74"/>
<path d="M139.511 29.0468V17.0468H142.738V19.1405H142.863C143.082 18.3957 143.449 17.8332 143.965 17.453C144.48 17.0676 145.074 16.8749 145.746 16.8749C145.912 16.8749 146.092 16.8853 146.285 16.9062C146.478 16.927 146.647 16.9556 146.793 16.9921V19.9452C146.636 19.8983 146.42 19.8567 146.144 19.8202C145.868 19.7838 145.616 19.7655 145.386 19.7655C144.897 19.7655 144.459 19.8723 144.074 20.0858C143.694 20.2942 143.392 20.5858 143.168 20.9608C142.949 21.3358 142.84 21.7681 142.84 22.2577V29.0468H139.511Z" fill="#FDBA74"/>
<path d="M153.707 29.2812C152.493 29.2812 151.444 29.0233 150.558 28.5077C149.678 27.9869 148.998 27.2629 148.519 26.3358C148.04 25.4036 147.8 24.3228 147.8 23.0937C147.8 21.8541 148.04 20.7707 148.519 19.8437C148.998 18.9114 149.678 18.1874 150.558 17.6718C151.444 17.1509 152.493 16.8905 153.707 16.8905C154.92 16.8905 155.967 17.1509 156.847 17.6718C157.733 18.1874 158.415 18.9114 158.894 19.8437C159.373 20.7707 159.613 21.8541 159.613 23.0937C159.613 24.3228 159.373 25.4036 158.894 26.3358C158.415 27.2629 157.733 27.9869 156.847 28.5077C155.967 29.0233 154.92 29.2812 153.707 29.2812ZM153.722 26.703C154.274 26.703 154.735 26.5468 155.105 26.2343C155.475 25.9166 155.754 25.4843 155.941 24.9374C156.134 24.3905 156.23 23.7681 156.23 23.0702C156.23 22.3723 156.134 21.7499 155.941 21.203C155.754 20.6562 155.475 20.2239 155.105 19.9062C154.735 19.5885 154.274 19.4296 153.722 19.4296C153.165 19.4296 152.696 19.5885 152.316 19.9062C151.941 20.2239 151.657 20.6562 151.464 21.203C151.277 21.7499 151.183 22.3723 151.183 23.0702C151.183 23.7681 151.277 24.3905 151.464 24.9374C151.657 25.4843 151.941 25.9166 152.316 26.2343C152.696 26.5468 153.165 26.703 153.722 26.703Z" fill="#FDBA74"/>
<path d="M21.9418 29.0468H18.9418V32.0468H21.9418V29.0468ZM21.9418 13.0468V10.0468H18.9418V13.0468H21.9418ZM31.8168 14.0077L30.3679 16.6346L30.3769 16.6396L31.8168 14.0077ZM34.4965 16.7499L31.8392 18.1424L31.844 18.1514L34.4965 16.7499ZM34.4965 25.328L31.8415 23.9313L31.8367 23.9403L34.4965 25.328ZM31.8012 28.0858L30.3622 25.4535L30.3572 25.4562L31.8012 28.0858ZM25.3246 26.1483H22.3246V29.1483H25.3246V26.1483ZM29.9965 25.6171L31.3786 28.2798L31.3862 28.2758L29.9965 25.6171ZM31.5434 23.953L28.82 22.6947L28.8162 22.7031L31.5434 23.953ZM31.5434 18.1327L28.8162 19.3827L28.8197 19.3905L28.8234 19.3983L31.5434 18.1327ZM30.0043 16.4765L31.3864 13.8138L31.3864 13.8138L30.0043 16.4765ZM25.3246 15.9452V12.9452H22.3246V15.9452H25.3246ZM40.4964 28.5312L39.0096 31.1368L39.0187 31.142L39.0278 31.1471L40.4964 28.5312ZM38.4495 26.3905L35.7845 27.768L35.7876 27.7741L38.4495 26.3905ZM38.4495 19.8515L35.7813 18.4801L35.7813 18.4801L38.4495 19.8515ZM40.473 17.6718L38.9385 15.0939L38.9317 15.0979L40.473 17.6718ZM45.762 17.2733L44.711 20.0832L44.7239 20.088L44.7368 20.0927L45.762 17.2733ZM47.5589 18.4062L45.4485 20.5383L45.4539 20.5437L45.4593 20.549L47.5589 18.4062ZM48.762 20.3124L45.9523 21.3637L45.9546 21.37L48.762 20.3124ZM49.1917 23.8983V26.8983H52.1917V23.8983H49.1917ZM39.0589 23.8983H36.0589V26.8983H39.0589V23.8983ZM39.0589 21.8358V18.8358H36.0589V21.8358H39.0589ZM46.0589 21.8358V24.8358H49.0589V21.8358H46.0589ZM45.7464 20.5624L43.1327 22.0349L43.1327 22.0349L45.7464 20.5624ZM44.8792 19.6952L43.363 22.2839L43.3847 22.2966L43.4067 22.309L44.8792 19.6952ZM42.262 19.7265L43.7953 22.3051L43.8055 22.299L42.262 19.7265ZM41.3558 20.6562L43.9648 22.137L43.9691 22.1295L43.9733 22.122L41.3558 20.6562ZM41.0198 21.9452L38.02 21.9123L38.0198 21.9287V21.9452H41.0198ZM41.348 25.4452L38.6712 26.7997L38.6776 26.8125L38.6842 26.8252L41.348 25.4452ZM44.7542 26.6405L43.7911 23.7993L43.7911 23.7993L44.7542 26.6405ZM45.5433 26.1718L43.4743 23.9994L43.4743 23.9994L45.5433 26.1718ZM46.0433 25.4062L46.2408 22.4127L44.0256 22.2665L43.2383 24.3422L46.0433 25.4062ZM49.1214 25.6093L52.0566 26.2294L52.7719 22.8437L49.3189 22.6158L49.1214 25.6093ZM48.1605 27.5468L45.9054 25.5683L45.9041 25.5697L48.1605 27.5468ZM46.3011 28.828L47.4153 31.6135L47.4251 31.6095L46.3011 28.828ZM65.8733 18.6483V21.6483H69.248L68.8526 18.2969L65.8733 18.6483ZM62.4514 18.6483L59.4809 19.0677L59.8452 21.6483H62.4514V18.6483ZM62.0686 17.4687L59.4424 18.9189L59.4471 18.9273L59.4517 18.9357L62.0686 17.4687ZM61.3264 16.578L59.4377 18.9088L59.4377 18.9088L61.3264 16.578ZM60.2795 16.0155L59.3308 18.8616L59.3421 18.8653L60.2795 16.0155ZM56.842 16.4374L58.4963 18.9401L58.5037 18.9352L58.511 18.9303L56.842 16.4374ZM55.4123 18.2187L58.1621 19.4182L58.165 19.4115L55.4123 18.2187ZM55.4123 23.9218L52.6626 25.1213L52.666 25.1291L52.6694 25.1368L55.4123 23.9218ZM56.8498 25.6796L55.2254 28.2017L55.2254 28.2017L56.8498 25.6796ZM60.2405 26.0937L59.3609 23.2255L59.3501 23.2288L60.2405 26.0937ZM61.2795 25.5702L63.0927 27.9603L63.1057 27.9505L63.1185 27.9405L61.2795 25.5702ZM62.0295 24.7187L59.4677 23.1575L59.4588 23.1722L59.45 23.187L62.0295 24.7187ZM62.4514 23.578L62.4651 20.5781L59.9525 20.5666L59.5004 23.0382L62.4514 23.578ZM65.8733 23.5937L68.8517 23.9528L69.2548 20.6091L65.887 20.5937L65.8733 23.5937ZM65.2092 25.7187L62.5466 24.3365L62.5425 24.3443L65.2092 25.7187ZM63.7952 27.539L65.8053 29.7659L65.8064 29.765L63.7952 27.539ZM61.6858 28.8046L62.747 31.6106L62.7567 31.6069L61.6858 28.8046ZM55.0998 28.2968L53.601 30.8955L53.6062 30.8985L55.0998 28.2968ZM52.4436 25.4921L49.7903 26.8921L49.795 26.9009L52.4436 25.4921ZM52.4592 16.5937L55.1032 18.0113L55.1032 18.0113L52.4592 16.5937ZM55.1311 13.7968L56.6156 16.4038L56.6247 16.3985L55.1311 13.7968ZM61.5061 13.2187L60.5687 16.0684L60.5742 16.0703L61.5061 13.2187ZM63.6233 14.3593L61.73 16.6864L61.736 16.6913L61.742 16.6961L63.6233 14.3593ZM65.1233 16.1796L62.4794 17.5973L62.4834 17.6047L62.4874 17.6121L65.1233 16.1796ZM70.84 28.5077L69.3123 31.0896L69.3213 31.0949L69.3303 31.1002L70.84 28.5077ZM68.8009 26.3358L66.1327 27.7072L66.1359 27.7133L68.8009 26.3358ZM68.8009 19.8437L71.466 21.2211L71.4692 21.215L68.8009 19.8437ZM70.84 17.6718L72.3564 20.2603L72.3611 20.2576L70.84 17.6718ZM77.1291 17.6718L75.6013 20.2537L75.6103 20.259L75.6193 20.2642L77.1291 17.6718ZM79.1759 19.8437L76.5077 21.215L76.5109 21.2211L79.1759 19.8437ZM79.1759 26.3358L81.841 27.7133L81.8441 27.7072L79.1759 26.3358ZM77.1291 28.5077L78.6454 31.0963L78.6501 31.0935L77.1291 28.5077ZM75.3869 26.2343L77.3233 28.5257L77.3326 28.5178L77.3419 28.5098L75.3869 26.2343ZM76.2228 24.9374L73.3933 23.9404L73.3891 23.9524L73.385 23.9644L76.2228 24.9374ZM76.2228 21.203L73.385 22.176L73.3891 22.1881L73.3933 22.2001L76.2228 21.203ZM72.5978 19.9062L70.6742 17.6041L70.6663 17.6106L70.6586 17.6172L72.5978 19.9062ZM71.7463 21.203L68.9168 20.206L68.9125 20.218L68.9084 20.2301L71.7463 21.203ZM71.7463 24.9374L68.9084 25.9104L68.9125 25.9224L68.9168 25.9345L71.7463 24.9374ZM72.5978 26.2343L70.6586 28.5232L70.6756 28.5377L70.6929 28.5519L72.5978 26.2343ZM84.3341 28.539L82.7073 31.0596L82.7176 31.0663L82.7281 31.0729L84.3341 28.539ZM82.5841 26.453L79.862 27.7141L79.8663 27.7234L79.8707 27.7327L82.5841 26.453ZM82.6075 19.6327L85.306 20.9434L85.3089 20.9374L82.6075 19.6327ZM84.3731 17.578L85.9484 20.1311L85.9534 20.1281L84.3731 17.578ZM88.4825 17.2343L87.1161 19.905L87.1346 19.9145L87.1532 19.9237L88.4825 17.2343ZM89.5762 18.078L87.2512 19.9738L87.2671 19.9934L87.2834 20.0126L89.5762 18.078ZM90.2169 19.0624L87.4828 20.2972L88.28 22.0624H90.2169V19.0624ZM90.3184 19.0624V22.0624H93.3184V19.0624H90.3184ZM90.3184 13.0468V10.0468H87.3184V13.0468H90.3184ZM93.6387 13.0468H96.6387V10.0468H93.6387V13.0468ZM93.6387 29.0468V32.0468H96.6387V29.0468H93.6387ZM90.3575 29.0468H87.3575V32.0468H90.3575V29.0468ZM90.3575 27.1249H93.3575V24.1249H90.3575V27.1249ZM90.2169 27.1249V24.1249H88.3099L87.5005 25.8516L90.2169 27.1249ZM89.5528 28.1171L87.2929 26.1441L87.2906 26.1468L89.5528 28.1171ZM88.4512 28.9218L87.1723 26.208L87.1602 26.2138L88.4512 28.9218ZM89.2247 26.1562L91.0825 28.5117L91.0868 28.5083L89.2247 26.1562ZM90.0841 24.914L87.2819 23.8426L87.2773 23.8546L87.2728 23.8666L90.0841 24.914ZM90.0919 21.1874L92.8997 20.131L92.8997 20.131L90.0919 21.1874ZM86.4825 19.9843L84.6204 17.6321L84.6204 17.6321L86.4825 19.9843ZM85.6309 24.8983L82.8076 25.9126L82.8135 25.9292L82.8197 25.9457L85.6309 24.8983ZM86.4825 26.1483L84.5846 28.4717L84.6024 28.4862L84.6204 28.5005L86.4825 26.1483ZM98.9863 28.5312L97.4996 31.1368L97.5086 31.142L97.5177 31.1471L98.9863 28.5312ZM96.9395 26.3905L94.2744 27.768L94.2776 27.7741L96.9395 26.3905ZM96.9395 19.8515L94.2712 18.4801L94.2712 18.4801L96.9395 19.8515ZM98.9629 17.6718L97.4284 15.0939L97.4217 15.0979L98.9629 17.6718ZM104.252 17.2733L103.201 20.0832L103.214 20.088L103.227 20.0927L104.252 17.2733ZM106.049 18.4062L103.938 20.5383L103.944 20.5437L103.949 20.549L106.049 18.4062ZM107.252 20.3124L104.442 21.3637L104.445 21.37L107.252 20.3124ZM107.682 23.8983V26.8983H110.682V23.8983H107.682ZM97.5488 23.8983H94.5488V26.8983H97.5488V23.8983ZM97.5488 21.8358V18.8358H94.5488V21.8358H97.5488ZM104.549 21.8358V24.8358H107.549V21.8358H104.549ZM104.236 20.5624L101.623 22.0349L101.623 22.0349L104.236 20.5624ZM103.369 19.6952L101.853 22.2839L101.875 22.2966L101.897 22.309L103.369 19.6952ZM100.752 19.7265L102.285 22.3051L102.295 22.299L100.752 19.7265ZM99.8457 20.6562L102.455 22.137L102.459 22.1295L102.463 22.122L99.8457 20.6562ZM99.5098 21.9452L96.5099 21.9123L96.5098 21.9287V21.9452H99.5098ZM99.8379 25.4452L97.1611 26.7997L97.1676 26.8125L97.1741 26.8252L99.8379 25.4452ZM103.244 26.6405L102.281 23.7993L102.281 23.7993L103.244 26.6405ZM104.033 26.1718L101.964 23.9994L101.964 23.9994L104.033 26.1718ZM104.533 25.4062L104.731 22.4127L102.516 22.2665L101.728 24.3422L104.533 25.4062ZM107.611 25.6093L110.547 26.2294L111.262 22.8437L107.809 22.6158L107.611 25.6093ZM106.65 27.5468L104.395 25.5683L104.394 25.5697L106.65 27.5468ZM104.791 28.828L105.905 31.6135L105.915 31.6095L104.791 28.828ZM110.184 29.0468H107.184V32.0468H110.184V29.0468ZM110.184 17.0468V14.0468H107.184V17.0468H110.184ZM113.41 17.0468H116.41V14.0468H113.41V17.0468ZM113.41 19.1405H110.41V22.1405H113.41V19.1405ZM113.535 19.1405V22.1405H115.781L116.413 19.9859L113.535 19.1405ZM114.637 17.453L116.417 19.8676L116.425 19.8618L116.433 19.8559L114.637 17.453ZM116.957 16.9062L117.279 13.9235L117.279 13.9235L116.957 16.9062ZM117.465 16.9921H120.465V14.6498L118.192 14.0817L117.465 16.9921ZM117.465 19.9452L116.603 22.8187L120.465 23.9773V19.9452H117.465ZM114.746 20.0858L116.188 22.7168L116.2 22.71L114.746 20.0858ZM113.84 20.9608L111.264 19.4226L111.256 19.4359L111.248 19.4492L113.84 20.9608ZM113.512 29.0468V32.0468H116.512V29.0468H113.512ZM125 29.0468H122V32.0468H125V29.0468ZM125 13.0468V10.0468H122V13.0468H125ZM134.414 13.7421L132.983 16.3788L132.989 16.3822L132.995 16.3856L134.414 13.7421ZM136.367 15.6562L133.736 17.0974L133.741 17.1074L133.747 17.1174L136.367 15.6562ZM134.367 23.1796L132.981 20.519L132.974 20.5224L134.367 23.1796ZM127.203 23.8593H124.203V26.8593H127.203V23.8593ZM127.203 21.1483V18.1483H124.203V21.1483H127.203ZM132.289 20.8124L133.696 23.4622L133.707 23.4559L132.289 20.8124ZM133.242 19.8671L130.586 18.4713L130.583 18.4777L130.58 18.4841L133.242 19.8671ZM133.242 17.078L130.58 18.461L130.591 18.4818L130.602 18.5024L133.242 17.078ZM132.289 16.1483L130.896 18.8052L130.908 18.8119L130.921 18.8185L132.289 16.1483ZM128.383 15.8124V12.8124H125.383V15.8124H128.383ZM128.383 29.0468V32.0468H131.383V29.0468H128.383ZM139.511 29.0468H136.511V32.0468H139.511V29.0468ZM139.511 17.0468V14.0468H136.511V17.0468H139.511ZM142.738 17.0468H145.738V14.0468H142.738V17.0468ZM142.738 19.1405H139.738V22.1405H142.738V19.1405ZM142.863 19.1405V22.1405H145.109L145.741 19.9859L142.863 19.1405ZM143.965 17.453L145.745 19.8676L145.753 19.8618L145.761 19.8559L143.965 17.453ZM146.285 16.9062L146.607 13.9235L146.607 13.9235L146.285 16.9062ZM146.793 16.9921H149.793V14.6498L147.52 14.0817L146.793 16.9921ZM146.793 19.9452L145.931 22.8187L149.793 23.9773V19.9452H146.793ZM144.074 20.0858L145.516 22.7168L145.528 22.71L144.074 20.0858ZM143.168 20.9608L140.592 19.4226L140.584 19.4359L140.576 19.4492L143.168 20.9608ZM142.84 29.0468V32.0468H145.84V29.0468H142.84ZM150.558 28.5077L149.03 31.0896L149.039 31.0949L149.048 31.1002L150.558 28.5077ZM148.519 26.3358L145.851 27.7072L145.854 27.7133L148.519 26.3358ZM148.519 19.8437L151.184 21.2211L151.187 21.215L148.519 19.8437ZM150.558 17.6718L152.075 20.2603L152.079 20.2576L150.558 17.6718ZM156.847 17.6718L155.32 20.2537L155.329 20.259L155.338 20.2642L156.847 17.6718ZM158.894 19.8437L156.226 21.215L156.229 21.2211L158.894 19.8437ZM158.894 26.3358L161.559 27.7133L161.562 27.7072L158.894 26.3358ZM156.847 28.5077L158.364 31.0963L158.368 31.0935L156.847 28.5077ZM155.105 26.2343L157.041 28.5257L157.051 28.5178L157.06 28.5098L155.105 26.2343ZM155.941 24.9374L153.112 23.9404L153.107 23.9524L153.103 23.9644L155.941 24.9374ZM155.941 21.203L153.103 22.176L153.107 22.1881L153.112 22.2001L155.941 21.203ZM152.316 19.9062L150.392 17.6041L150.385 17.6106L150.377 17.6172L152.316 19.9062ZM151.464 21.203L148.635 20.206L148.631 20.218L148.627 20.2301L151.464 21.203ZM151.464 24.9374L148.627 25.9104L148.631 25.9224L148.635 25.9345L151.464 24.9374ZM152.316 26.2343L150.377 28.5232L150.394 28.5377L150.411 28.5519L152.316 26.2343ZM13 6H168V0H13V6ZM175 13V29.8421H181V13H175ZM168 36.8421H13V42.8421H168V36.8421ZM6 29.8421V13H0V29.8421H6ZM13 36.8421C9.13401 36.8421 6 33.7081 6 29.8421H0C0 37.0218 5.8203 42.8421 13 42.8421V36.8421ZM175 29.8421C175 33.7081 171.866 36.8421 168 36.8421V42.8421C175.18 42.8421 181 37.0218 181 29.8421H175ZM168 6C171.866 6 175 9.13401 175 13H181C181 5.8203 175.18 0 168 0V6ZM13 0C5.8203 0 0 5.82029 0 13H6C6 9.134 9.134 6 13 6V0ZM27.6137 26.0468H21.9418V32.0468H27.6137V26.0468ZM24.9418 29.0468V13.0468H18.9418V29.0468H24.9418ZM21.9418 16.0468H27.6605V10.0468H21.9418V16.0468ZM27.6605 16.0468C28.8706 16.0468 29.7355 16.2858 30.3679 16.6346L33.2657 11.3808C31.5751 10.4483 29.6692 10.0468 27.6605 10.0468V16.0468ZM30.3769 16.6396C31.0099 16.9859 31.4839 17.4643 31.8392 18.1424L37.1538 15.3575C36.2591 13.6501 34.9466 12.3004 33.2567 11.3758L30.3769 16.6396ZM31.844 18.1514C32.199 18.8233 32.4418 19.7467 32.4418 21.0312H38.4418C38.4418 18.9927 38.0544 17.0619 37.149 15.3484L31.844 18.1514ZM32.4418 21.0312C32.4418 22.3221 32.1985 23.2526 31.8415 23.9313L37.1515 26.7248C38.0548 25.0077 38.4418 23.0736 38.4418 21.0312H32.4418ZM31.8367 23.9403C31.483 24.6182 31.0064 25.1013 30.3622 25.4535L33.2402 30.7182C34.9397 29.7891 36.2599 28.4337 37.1562 26.7157L31.8367 23.9403ZM30.3572 25.4562C29.7208 25.8057 28.8444 26.0468 27.6137 26.0468V32.0468C29.6329 32.0468 31.5482 31.6473 33.2451 30.7155L30.3572 25.4562ZM25.3246 29.1483H27.473V23.1483H25.3246V29.1483ZM27.473 29.1483C28.8142 29.1483 30.1604 28.9121 31.3786 28.2797L28.6143 22.9544C28.468 23.0304 28.1319 23.1483 27.473 23.1483V29.1483ZM31.3862 28.2758C32.7023 27.5878 33.6684 26.5168 34.2706 25.203L28.8162 22.7031C28.7308 22.8893 28.6657 22.9276 28.6067 22.9584L31.3862 28.2758ZM34.2667 25.2114C34.8592 23.9291 35.0668 22.4838 35.0668 21.0312H29.0668C29.0668 21.9639 28.9255 22.4665 28.82 22.6947L34.2667 25.2114ZM35.0668 21.0312C35.0668 19.5858 34.8583 18.1459 34.2634 16.8672L28.8234 19.3983C28.9263 19.6196 29.0668 20.1119 29.0668 21.0312H35.0668ZM34.2706 16.8828C33.6701 15.5727 32.7067 14.4991 31.3864 13.8138L28.6222 19.1391C28.6665 19.1621 28.7291 19.1928 28.8162 19.3827L34.2706 16.8828ZM31.3864 13.8138C30.1682 13.1815 28.822 12.9452 27.4809 12.9452V18.9452C28.1397 18.9452 28.4758 19.0632 28.6222 19.1391L31.3864 13.8138ZM27.4809 12.9452H25.3246V18.9452H27.4809V12.9452ZM22.3246 15.9452V26.1483H28.3246V15.9452H22.3246ZM43.6839 26.2812C42.857 26.2812 42.3223 26.1158 41.965 25.9152L39.0278 31.1471C40.4517 31.9465 42.042 32.2812 43.6839 32.2812V26.2812ZM41.9832 25.9255C41.6089 25.7119 41.3299 25.4274 41.1114 25.0069L35.7876 27.7741C36.5275 29.1975 37.6131 30.34 39.0096 31.1368L41.9832 25.9255ZM41.1146 25.0131C40.8976 24.5932 40.7308 23.9886 40.7308 23.1015H34.7308C34.7308 24.7456 35.0432 26.3337 35.7845 27.768L41.1146 25.0131ZM40.7308 23.1015C40.7308 22.2596 40.8922 21.6616 41.1177 21.2228L35.7813 18.4801C35.0485 19.9059 34.7308 21.4746 34.7308 23.1015H40.7308ZM41.1177 21.2228C41.35 20.7709 41.6418 20.4686 42.0142 20.2456L38.9317 15.0979C37.5645 15.9166 36.5074 17.0674 35.7813 18.4801L41.1177 21.2228ZM42.0074 20.2497C42.3499 20.0458 42.8286 19.8905 43.5511 19.8905V13.8905C41.9194 13.8905 40.346 14.2561 38.9385 15.0939L42.0074 20.2497ZM43.5511 19.8905C44.0151 19.8905 44.3929 19.9642 44.711 20.0832L46.8131 14.4635C45.7666 14.072 44.6704 13.8905 43.5511 13.8905V19.8905ZM44.7368 20.0927C45.025 20.1975 45.2518 20.3436 45.4485 20.5383L49.6693 16.274C48.8452 15.4583 47.874 14.8492 46.7873 14.454L44.7368 20.0927ZM45.4593 20.549C45.622 20.7084 45.7993 20.9549 45.9523 21.3637L51.5718 19.2611C51.1518 18.1387 50.5271 17.1143 49.6585 16.2633L45.4593 20.549ZM45.9546 21.37C46.0858 21.7181 46.1917 22.2358 46.1917 22.9843H52.1917C52.1917 21.6911 52.0112 20.4275 51.5694 19.2548L45.9546 21.37ZM46.1917 22.9843V23.8983H52.1917V22.9843H46.1917ZM49.1917 20.8983H39.0589V26.8983H49.1917V20.8983ZM42.0589 23.8983V21.8358H36.0589V23.8983H42.0589ZM39.0589 24.8358H46.0589V18.8358H39.0589V24.8358ZM49.0589 21.8358C49.0589 20.9085 48.853 19.9646 48.3601 19.0899L43.1327 22.0349C43.099 21.9751 43.0782 21.9179 43.0672 21.8731C43.0567 21.8301 43.0589 21.8143 43.0589 21.8358H49.0589ZM48.3602 19.0899C47.8828 18.2426 47.199 17.5588 46.3517 17.0815L43.4067 22.309C43.3631 22.2844 43.3077 22.2452 43.252 22.1896C43.1964 22.134 43.1572 22.0786 43.1327 22.0349L48.3602 19.0899ZM46.3954 17.1066C45.507 16.5862 44.5438 16.3749 43.6058 16.3749V22.3749C43.6271 22.3749 43.6065 22.3772 43.5556 22.3644C43.5025 22.351 43.4344 22.3257 43.363 22.2839L46.3954 17.1066ZM43.6058 16.3749C42.6178 16.3749 41.6251 16.6101 40.7185 17.154L43.8055 22.299C43.7524 22.3308 43.6975 22.3528 43.6503 22.3651C43.6049 22.377 43.5863 22.3749 43.6058 22.3749V16.3749ZM40.7288 17.1479C39.8913 17.6459 39.2149 18.3393 38.7383 19.1903L43.9733 22.122C43.9589 22.1478 43.9331 22.1854 43.8946 22.2248C43.8562 22.2643 43.8197 22.2906 43.7953 22.3051L40.7288 17.1479ZM38.7467 19.1753C38.2599 20.0332 38.0304 20.9668 38.02 21.9123L44.0197 21.9782C44.0198 21.9691 44.0204 21.9872 44.0108 22.024C44.0009 22.0619 43.9849 22.1017 43.9648 22.137L38.7467 19.1753ZM38.0198 21.9452V23.9062H44.0198V21.9452H38.0198ZM38.0198 23.9062C38.0198 24.8661 38.1973 25.8633 38.6712 26.7997L44.0248 24.0907C44.0611 24.1625 44.0198 24.1337 44.0198 23.9062H38.0198ZM38.6842 26.8252C39.1614 27.7462 39.8716 28.5116 40.7941 29.0438L43.7924 23.8467C43.8354 23.8715 43.8857 23.9092 43.9324 23.9586C43.9784 24.0073 44.0029 24.0482 44.0117 24.0652L38.6842 26.8252ZM40.7941 29.0438C41.7353 29.5868 42.7545 29.7968 43.7386 29.7968V23.7968C43.6698 23.7968 43.6505 23.7896 43.6684 23.7939C43.6773 23.7961 43.6939 23.8008 43.7164 23.8097C43.739 23.8186 43.7649 23.8308 43.7924 23.8467L40.7941 29.0438ZM43.7386 29.7968C44.3909 29.7968 45.0599 29.7046 45.7173 29.4817L43.7911 23.7993C43.8114 23.7925 43.8202 23.7916 43.8137 23.7926C43.8067 23.7937 43.7827 23.7968 43.7386 23.7968V29.7968ZM45.7173 29.4817C46.4063 29.2482 47.0549 28.875 47.6122 28.3442L43.4743 23.9994C43.5942 23.8852 43.7167 23.8246 43.7911 23.7993L45.7173 29.4817ZM47.6122 28.3442C48.1785 27.8049 48.5857 27.1623 48.8483 26.4701L43.2383 24.3422C43.2717 24.2542 43.3455 24.122 43.4743 23.9994L47.6122 28.3442ZM45.8457 28.3996L48.9239 28.6028L49.3189 22.6158L46.2408 22.4127L45.8457 28.3996ZM46.1862 24.9892C46.1331 25.2405 46.0401 25.4148 45.9054 25.5683L50.4156 29.5253C51.2496 28.5746 51.7972 27.4573 52.0566 26.2294L46.1862 24.9892ZM45.9041 25.5697C45.7718 25.7207 45.5585 25.8924 45.1771 26.0466L47.4251 31.6095C48.5645 31.1491 49.5908 30.4667 50.4169 29.5238L45.9041 25.5697ZM45.1869 26.0426C44.8538 26.1759 44.3722 26.2812 43.6839 26.2812V32.2812C44.9748 32.2812 46.238 32.0844 47.4153 31.6135L45.1869 26.0426ZM65.8733 15.6483H62.4514V21.6483H65.8733V15.6483ZM65.4219 18.229C65.3144 17.4673 65.0827 16.7103 64.6854 16.0016L59.4517 18.9357C59.4399 18.9145 59.4634 18.944 59.4809 19.0677L65.4219 18.229ZM64.6948 16.0184C64.3201 15.3399 63.8251 14.7415 63.2152 14.2472L59.4377 18.9088C59.4382 18.9093 59.4377 18.9089 59.4366 18.9078C59.4355 18.9068 59.4345 18.9057 59.4338 18.9048C59.4332 18.904 59.4335 18.9043 59.4347 18.9061C59.4359 18.9079 59.4386 18.912 59.4424 18.9189L64.6948 16.0184ZM63.2152 14.2472C62.6104 13.7571 61.9338 13.4016 61.217 13.1658L59.3421 18.8653C59.382 18.8784 59.4059 18.8899 59.4182 18.8965C59.4301 18.9029 59.4355 18.9071 59.4377 18.9088L63.2152 14.2472ZM61.2282 13.1695C60.4992 12.9265 59.7507 12.8202 59.0061 12.8202V18.8202C59.1781 18.8202 59.2786 18.8442 59.3308 18.8616L61.2282 13.1695ZM59.0061 12.8202C57.6574 12.8202 56.3394 13.1637 55.1731 13.9445L58.511 18.9303C58.5739 18.8882 58.6985 18.8202 59.0061 18.8202V12.8202ZM55.1877 13.9348C54.0157 14.7095 53.1927 15.7959 52.6597 17.0258L58.165 19.4115C58.3091 19.079 58.4392 18.9778 58.4963 18.9401L55.1877 13.9348ZM52.6626 17.0191C52.1163 18.2714 51.9045 19.6467 51.9045 21.0468H57.9045C57.9045 20.2281 58.0313 19.718 58.1621 19.4182L52.6626 17.0191ZM51.9045 21.0468C51.9045 22.4649 52.1123 23.8599 52.6626 25.1213L58.1621 22.7222C58.0353 22.4315 57.9045 21.91 57.9045 21.0468H51.9045ZM52.6694 25.1368C53.2113 26.3601 54.043 27.4402 55.2254 28.2017L58.4743 23.1575C58.4275 23.1273 58.3009 23.0356 58.1553 22.7068L52.6694 25.1368ZM55.2254 28.2017C56.3742 28.9416 57.6615 29.2733 58.9827 29.2733V23.2733C58.6892 23.2733 58.5546 23.2092 58.4743 23.1575L55.2254 28.2017ZM58.9827 29.2733C59.7012 29.2733 60.4242 29.1781 61.1309 28.9585L59.3501 23.2288C59.2859 23.2488 59.1704 23.2733 58.9827 23.2733V29.2733ZM61.12 28.9618C61.8213 28.7468 62.4888 28.4184 63.0927 27.9603L59.4664 23.1801C59.466 23.1804 59.4409 23.201 59.3609 23.2255L61.12 28.9618ZM63.1185 27.9405C63.7221 27.4722 64.2218 26.9025 64.6091 26.2503L59.45 23.187C59.4467 23.1926 59.4444 23.1958 59.4433 23.1973C59.4423 23.1988 59.4419 23.1991 59.4423 23.1987C59.4426 23.1984 59.443 23.198 59.4431 23.1978C59.4433 23.1977 59.4426 23.1984 59.4405 23.2L63.1185 27.9405ZM64.5914 26.2798C65.0059 25.5994 65.2656 24.8659 65.4024 24.1179L59.5004 23.0382C59.4903 23.0931 59.4797 23.1264 59.4736 23.1428C59.4678 23.1587 59.465 23.1621 59.4677 23.1575L64.5914 26.2798ZM62.4377 26.578L65.8596 26.5936L65.887 20.5937L62.4651 20.5781L62.4377 26.578ZM62.8948 23.2346C62.8511 23.5978 62.7416 23.9608 62.5466 24.3365L67.8719 27.1008C68.3852 26.1119 68.7184 25.0583 68.8517 23.9528L62.8948 23.2346ZM62.5425 24.3443C62.3673 24.6844 62.1234 25.0063 61.7839 25.313L65.8064 29.765C66.6544 28.9988 67.3532 28.1071 67.8759 27.093L62.5425 24.3443ZM61.785 25.312C61.4985 25.5706 61.1226 25.8082 60.6148 26.0023L62.7567 31.6069C63.8844 31.176 64.9147 30.5698 65.8053 29.7659L61.785 25.312ZM60.6245 25.9986C60.2065 26.1567 59.6557 26.2655 58.928 26.2655V32.2655C60.2523 32.2655 61.5401 32.0671 62.747 31.6106L60.6245 25.9986ZM58.928 26.2655C57.9711 26.2655 57.2194 26.0543 56.5934 25.695L53.6062 30.8985C55.2303 31.8309 57.0307 32.2655 58.928 32.2655V26.2655ZM56.5987 25.698C56.0016 25.3537 55.4991 24.8481 55.0922 24.0833L49.795 26.9009C50.6902 28.584 51.9585 29.9482 53.601 30.8955L56.5987 25.698ZM55.0969 24.0921C54.7299 23.3965 54.4748 22.4212 54.4748 21.0468H48.4748C48.4748 23.1515 48.8656 25.1397 49.7903 26.8921L55.0969 24.0921ZM54.4748 21.0468C54.4748 19.6723 54.7331 18.7015 55.1032 18.0113L49.8153 15.1761C48.8729 16.9338 48.4748 18.9316 48.4748 21.0468H54.4748ZM55.1032 18.0113C55.5128 17.2472 56.0172 16.7445 56.6156 16.4037L53.6466 11.1898C51.9949 12.1303 50.7181 13.4922 49.8153 15.1761L55.1032 18.0113ZM56.6247 16.3985C57.2573 16.0354 58.0004 15.828 58.928 15.828V9.82803C57.043 9.82803 55.2549 10.2665 53.6375 11.195L56.6247 16.3985ZM58.928 15.828C59.572 15.828 60.1115 15.918 60.5687 16.0684L62.4435 10.3689C61.3174 9.99844 60.1381 9.82803 58.928 9.82803V15.828ZM60.5742 16.0703C61.0417 16.223 61.4173 16.432 61.73 16.6864L65.5165 12.0321C64.6001 11.2865 63.5642 10.7351 62.438 10.3671L60.5742 16.0703ZM61.742 16.6961C62.0327 16.9302 62.2775 17.2207 62.4794 17.5973L67.7671 14.7619C67.1982 13.7009 66.443 12.778 65.5046 12.0225L61.742 16.6961ZM62.4874 17.6121C62.672 17.9517 62.823 18.3986 62.8939 18.9998L68.8526 18.2969C68.7048 17.0439 68.3558 15.845 67.7592 14.7471L62.4874 17.6121ZM73.9884 26.2812C73.2069 26.2812 72.6987 26.1185 72.3497 25.9153L69.3303 31.1002C70.7522 31.9282 72.3429 32.2812 73.9884 32.2812V26.2812ZM72.3677 25.9259C71.9825 25.6979 71.6922 25.396 71.466 24.9584L66.1359 27.7133C66.868 29.1299 67.9371 30.2759 69.3123 31.0896L72.3677 25.9259ZM71.4692 24.9645C71.2428 24.524 71.0822 23.9281 71.0822 23.0937H65.0822C65.0822 24.7176 65.4008 26.2831 66.1327 27.7072L71.4692 24.9645ZM71.0822 23.0937C71.0822 22.2438 71.2447 21.6494 71.466 21.2211L66.1359 18.4662C65.3989 19.8921 65.0822 21.4644 65.0822 23.0937H71.0822ZM71.4692 21.215C71.6954 20.7749 71.9821 20.4796 72.3564 20.2603L69.3236 15.0832C67.9375 15.8952 66.8649 17.0478 66.1327 18.4723L71.4692 21.215ZM72.3611 20.2576C72.7079 20.0535 73.212 19.8905 73.9884 19.8905V13.8905C72.3378 13.8905 70.7429 14.2484 69.3189 15.086L72.3611 20.2576ZM73.9884 19.8905C74.7654 19.8905 75.2635 20.0537 75.6013 20.2537L78.6568 15.0899C77.2342 14.2482 75.6386 13.8905 73.9884 13.8905V19.8905ZM75.6193 20.2642C75.9981 20.4848 76.2839 20.7796 76.5077 21.215L81.8441 18.4723C81.1096 17.0432 80.0309 15.89 78.6388 15.0793L75.6193 20.2642ZM76.5109 21.2211C76.7322 21.6494 76.8947 22.2438 76.8947 23.0937H82.8947C82.8947 21.4643 82.578 19.8921 81.841 18.4662L76.5109 21.2211ZM76.8947 23.0937C76.8947 23.928 76.7341 24.524 76.5077 24.9645L81.8441 27.7072C82.5761 26.2831 82.8947 24.7176 82.8947 23.0937H76.8947ZM76.5109 24.9584C76.2871 25.3913 75.9976 25.6927 75.608 25.9219L78.6501 31.0935C80.0313 30.281 81.1065 29.1345 81.841 27.7133L76.5109 24.9584ZM75.6127 25.9192C75.2728 26.1183 74.7705 26.2812 73.9884 26.2812V32.2812C75.6334 32.2812 77.2249 31.9284 78.6454 31.0963L75.6127 25.9192ZM74.0041 29.703C75.1596 29.703 76.3365 29.3595 77.3233 28.5257L73.4505 23.9429C73.5543 23.8552 73.6771 23.7866 73.8007 23.7446C73.9191 23.7045 73.9959 23.703 74.0041 23.703V29.703ZM77.3419 28.5098C78.1861 27.7844 78.7324 26.8678 79.0607 25.9104L73.385 23.9644C73.3603 24.0363 73.3445 24.0575 73.3516 24.0464C73.3552 24.0409 73.3636 24.0288 73.3777 24.0124C73.392 23.996 73.41 23.9775 73.4319 23.9588L77.3419 28.5098ZM79.0523 25.9345C79.3782 25.0096 79.5119 24.0406 79.5119 23.0702H73.5119C73.5119 23.4956 73.4529 23.7715 73.3933 23.9404L79.0523 25.9345ZM79.5119 23.0702C79.5119 22.0998 79.3782 21.1309 79.0523 20.206L73.3933 22.2001C73.4529 22.369 73.5119 22.6448 73.5119 23.0702H79.5119ZM79.0607 20.2301C78.7324 19.2726 78.1861 18.356 77.3419 17.6307L73.4319 22.1817C73.41 22.1629 73.392 22.1445 73.3777 22.128C73.3636 22.1117 73.3552 22.0995 73.3516 22.094C73.3445 22.0829 73.3603 22.1041 73.385 22.176L79.0607 20.2301ZM77.3419 17.6307C76.3559 16.7835 75.1723 16.4296 74.0041 16.4296V22.4296C73.9909 22.4296 73.909 22.4273 73.7864 22.385C73.6585 22.341 73.5345 22.2698 73.4319 22.1817L77.3419 17.6307ZM74.0041 16.4296C72.8369 16.4296 71.6615 16.7791 70.6742 17.6041L74.5215 22.2082C74.4277 22.2866 74.3142 22.3504 74.1974 22.39C74.0852 22.428 74.0121 22.4296 74.0041 22.4296V16.4296ZM70.6586 17.6172C69.8098 18.3363 69.2544 19.248 68.9168 20.206L74.5757 22.2001C74.6011 22.1282 74.6175 22.106 74.6114 22.1153C74.6084 22.1199 74.6007 22.1309 74.5875 22.1459C74.5742 22.161 74.5574 22.1779 74.5371 22.1951L70.6586 17.6172ZM68.9084 20.2301C68.5939 21.1473 68.465 22.1077 68.465 23.0702H74.465C74.465 22.6369 74.5236 22.3525 74.5841 22.176L68.9084 20.2301ZM68.465 23.0702C68.465 24.0328 68.5939 24.9932 68.9084 25.9104L74.5841 23.9644C74.5236 23.7879 74.465 23.5035 74.465 23.0702H68.465ZM68.9168 25.9345C69.2544 26.8924 69.8098 27.8041 70.6586 28.5232L74.5371 23.9453C74.5574 23.9625 74.5742 23.9795 74.5875 23.9946C74.6007 24.0096 74.6084 24.0205 74.6114 24.0252C74.6175 24.0345 74.6011 24.0122 74.5757 23.9404L68.9168 25.9345ZM70.6929 28.5519C71.6806 29.3637 72.8493 29.703 74.0041 29.703V23.703C74.0072 23.703 74.0753 23.7038 74.1832 23.7398C74.2958 23.7773 74.408 23.8388 74.5027 23.9167L70.6929 28.5519ZM86.8106 26.2421C86.4434 26.2421 86.179 26.1565 85.9401 26.0051L82.7281 31.0729C83.9682 31.8589 85.355 32.2421 86.8106 32.2421V26.2421ZM85.9608 26.0183C85.7686 25.8943 85.5295 25.6654 85.2975 25.1734L79.8707 27.7327C80.5032 29.074 81.4308 30.2357 82.7073 31.0596L85.9608 26.0183ZM85.3061 25.192C85.1105 24.7698 84.9434 24.0975 84.9434 23.0624H78.9434C78.9434 24.7044 79.2034 26.2926 79.862 27.7141L85.3061 25.192ZM84.9434 23.0624C84.9434 21.9878 85.1194 21.3276 85.306 20.9434L79.909 18.322C79.2102 19.7607 78.9434 21.387 78.9434 23.0624H84.9434ZM85.3089 20.9374C85.5483 20.4417 85.7826 20.2335 85.9484 20.1311L82.7978 15.0249C81.4949 15.8288 80.5521 16.9904 79.9061 18.328L85.3089 20.9374ZM85.9534 20.1281C86.2126 19.9675 86.4741 19.8905 86.8028 19.8905V13.8905C85.3711 13.8905 84.0128 14.2719 82.7928 15.028L85.9534 20.1281ZM86.8028 19.8905C87.1521 19.8905 87.2087 19.9524 87.1161 19.905L89.8489 14.5635C88.8605 14.0578 87.7973 13.8905 86.8028 13.8905V19.8905ZM87.1532 19.9237C87.2192 19.9563 87.2524 19.9801 87.2634 19.9885C87.2734 19.9963 87.2661 19.9921 87.2512 19.9738L91.9013 16.1822C91.3145 15.4626 90.5896 14.9293 89.8118 14.5448L87.1532 19.9237ZM87.2834 20.0126C87.4254 20.181 87.4737 20.2771 87.4828 20.2972L92.951 17.8276C92.6684 17.2019 92.2896 16.6418 91.8691 16.1434L87.2834 20.0126ZM90.2169 22.0624H90.3184V16.0624H90.2169V22.0624ZM93.3184 19.0624V13.0468H87.3184V19.0624H93.3184ZM90.3184 16.0468H93.6387V10.0468H90.3184V16.0468ZM90.6387 13.0468V29.0468H96.6387V13.0468H90.6387ZM93.6387 26.0468H90.3575V32.0468H93.6387V26.0468ZM93.3575 29.0468V27.1249H87.3575V29.0468H93.3575ZM90.3575 24.1249H90.2169V30.1249H90.3575V24.1249ZM87.5005 25.8516C87.4824 25.8902 87.4279 25.9894 87.2929 26.1441L91.8128 30.0901C92.2506 29.5885 92.6389 29.0262 92.9333 28.3982L87.5005 25.8516ZM87.2906 26.1468C87.3056 26.1295 87.311 26.1276 87.2969 26.138C87.2818 26.1489 87.2437 26.1744 87.1724 26.208L89.7301 31.6355C90.4959 31.2747 91.2187 30.7722 91.8151 30.0874L87.2906 26.1468ZM87.1602 26.2138C87.218 26.1862 87.1392 26.2421 86.8106 26.2421V32.2421C87.7737 32.2421 88.7887 32.0844 89.7423 31.6298L87.1602 26.2138ZM87.8653 29.5937C88.9773 29.5937 90.111 29.278 91.0825 28.5117L87.3668 23.8007C87.4656 23.7227 87.5785 23.6639 87.6884 23.6285C87.7939 23.5946 87.8606 23.5937 87.8653 23.5937V29.5937ZM91.0868 28.5083C91.9652 27.8129 92.5419 26.91 92.8953 25.9613L87.2728 23.8666C87.25 23.9278 87.2388 23.9376 87.2536 23.9161C87.2702 23.8922 87.3056 23.8491 87.3626 23.804L91.0868 28.5083ZM92.8862 25.9854C93.2487 25.0373 93.3887 24.037 93.3887 23.0468H87.3887C87.3887 23.4837 87.3257 23.7281 87.2819 23.8426L92.8862 25.9854ZM93.3887 23.0468C93.3887 22.0654 93.2538 21.0721 92.8997 20.131L87.284 22.2438C87.3258 22.3548 87.3887 22.601 87.3887 23.0468H93.3887ZM92.8997 20.131C92.542 19.1803 91.9545 18.2728 91.0536 17.5846L87.4114 22.3527C87.3439 22.3012 87.2999 22.2497 87.2768 22.217C87.2556 22.187 87.2633 22.1886 87.284 22.2438L92.8997 20.131ZM91.0536 17.5846C90.0853 16.8449 88.9656 16.539 87.8653 16.539V22.539C87.8655 22.539 87.8065 22.5387 87.71 22.5084C87.6094 22.4768 87.5044 22.4238 87.4114 22.3527L91.0536 17.5846ZM87.8653 16.539C86.7443 16.539 85.6001 16.8566 84.6204 17.6321L88.3446 22.3364C88.247 22.4137 88.136 22.4714 88.029 22.5059C87.9267 22.5388 87.8643 22.539 87.8653 22.539V16.539ZM84.6204 17.6321C83.7418 18.3277 83.164 19.2312 82.814 20.1867L88.4479 22.2506C88.4675 22.1971 88.4756 22.1932 88.4577 22.2191C88.4382 22.2474 88.401 22.2918 88.3446 22.3364L84.6204 17.6321ZM82.814 20.1867C82.4754 21.1111 82.3419 22.0822 82.3419 23.0468H88.3419C88.3419 22.6259 88.4011 22.3783 88.4479 22.2506L82.814 20.1867ZM82.3419 23.0468C82.3419 24.0155 82.4751 24.987 82.8076 25.9126L88.4543 23.8841C88.4014 23.7368 88.3419 23.4739 88.3419 23.0468H82.3419ZM82.8197 25.9457C83.1685 26.8818 83.7313 27.7746 84.5846 28.4717L88.3804 23.825C88.4045 23.8447 88.4246 23.8642 88.4407 23.8819C88.4567 23.8995 88.4667 23.913 88.4716 23.9202C88.4814 23.9346 88.467 23.9178 88.4422 23.851L82.8197 25.9457ZM84.6204 28.5005C85.6001 29.2761 86.7443 29.5937 87.8653 29.5937V23.5937C87.8643 23.5937 87.9267 23.5938 88.029 23.6267C88.136 23.6612 88.247 23.719 88.3446 23.7962L84.6204 28.5005ZM102.174 26.2812C101.347 26.2812 100.812 26.1158 100.455 25.9152L97.5177 31.1471C98.9417 31.9465 100.532 32.2812 102.174 32.2812V26.2812ZM100.473 25.9255C100.099 25.7119 99.8199 25.4274 99.6013 25.0069L94.2776 27.7741C95.0174 29.1975 96.103 30.34 97.4996 31.1368L100.473 25.9255ZM99.6045 25.0131C99.3875 24.5932 99.2207 23.9886 99.2207 23.1015H93.2207C93.2207 24.7456 93.5331 26.3337 94.2744 27.768L99.6045 25.0131ZM99.2207 23.1015C99.2207 22.2596 99.3821 21.6616 99.6077 21.2228L94.2712 18.4801C93.5384 19.9059 93.2207 21.4746 93.2207 23.1015H99.2207ZM99.6077 21.2228C99.8399 20.7709 100.132 20.4686 100.504 20.2456L97.4217 15.0979C96.0545 15.9166 94.9973 17.0674 94.2712 18.4801L99.6077 21.2228ZM100.497 20.2497C100.84 20.0458 101.319 19.8905 102.041 19.8905V13.8905C100.409 13.8905 98.836 14.2561 97.4284 15.0939L100.497 20.2497ZM102.041 19.8905C102.505 19.8905 102.883 19.9642 103.201 20.0832L105.303 14.4635C104.256 14.072 103.16 13.8905 102.041 13.8905V19.8905ZM103.227 20.0927C103.515 20.1975 103.742 20.3436 103.938 20.5383L108.159 16.274C107.335 15.4583 106.364 14.8492 105.277 14.454L103.227 20.0927ZM103.949 20.549C104.112 20.7084 104.289 20.9549 104.442 21.3637L110.062 19.2611C109.642 18.1387 109.017 17.1143 108.148 16.2633L103.949 20.549ZM104.445 21.37C104.576 21.7181 104.682 22.2358 104.682 22.9843H110.682C110.682 21.6911 110.501 20.4275 110.059 19.2548L104.445 21.37ZM104.682 22.9843V23.8983H110.682V22.9843H104.682ZM107.682 20.8983H97.5488V26.8983H107.682V20.8983ZM100.549 23.8983V21.8358H94.5488V23.8983H100.549ZM97.5488 24.8358H104.549V18.8358H97.5488V24.8358ZM107.549 21.8358C107.549 20.9085 107.343 19.9646 106.85 19.0899L101.623 22.0349C101.589 21.9751 101.568 21.9179 101.557 21.8731C101.547 21.8301 101.549 21.8143 101.549 21.8358H107.549ZM106.85 19.0899C106.373 18.2426 105.689 17.5588 104.842 17.0815L101.897 22.309C101.853 22.2844 101.798 22.2452 101.742 22.1896C101.686 22.134 101.647 22.0786 101.623 22.0349L106.85 19.0899ZM104.885 17.1066C103.997 16.5862 103.034 16.3749 102.096 16.3749V22.3749C102.117 22.3749 102.096 22.3772 102.046 22.3644C101.992 22.351 101.924 22.3257 101.853 22.2839L104.885 17.1066ZM102.096 16.3749C101.108 16.3749 100.115 16.6101 99.2085 17.154L102.295 22.299C102.242 22.3308 102.187 22.3528 102.14 22.3651C102.095 22.377 102.076 22.3749 102.096 22.3749V16.3749ZM99.2187 17.1479C98.3812 17.6459 97.7048 18.3393 97.2282 19.1903L102.463 22.122C102.449 22.1478 102.423 22.1854 102.385 22.2248C102.346 22.2643 102.31 22.2906 102.285 22.3051L99.2187 17.1479ZM97.2366 19.1753C96.7498 20.0332 96.5203 20.9668 96.5099 21.9123L102.51 21.9782C102.51 21.9691 102.51 21.9872 102.501 22.024C102.491 22.0619 102.475 22.1017 102.455 22.137L97.2366 19.1753ZM96.5098 21.9452V23.9062H102.51V21.9452H96.5098ZM96.5098 23.9062C96.5098 24.8661 96.6872 25.8633 97.1611 26.7997L102.515 24.0907C102.551 24.1625 102.51 24.1337 102.51 23.9062H96.5098ZM97.1741 26.8252C97.6513 27.7462 98.3616 28.5116 99.284 29.0438L102.282 23.8467C102.325 23.8715 102.376 23.9092 102.422 23.9586C102.468 24.0073 102.493 24.0482 102.502 24.0652L97.1741 26.8252ZM99.284 29.0438C100.225 29.5868 101.244 29.7968 102.229 29.7968V23.7968C102.16 23.7968 102.14 23.7896 102.158 23.7939C102.167 23.7961 102.184 23.8008 102.206 23.8097C102.229 23.8186 102.255 23.8308 102.282 23.8467L99.284 29.0438ZM102.229 29.7968C102.881 29.7968 103.55 29.7046 104.207 29.4817L102.281 23.7993C102.301 23.7925 102.31 23.7916 102.304 23.7926C102.297 23.7937 102.273 23.7968 102.229 23.7968V29.7968ZM104.207 29.4817C104.896 29.2482 105.545 28.875 106.102 28.3442L101.964 23.9994C102.084 23.8852 102.207 23.8246 102.281 23.7993L104.207 29.4817ZM106.102 28.3442C106.668 27.8049 107.076 27.1623 107.338 26.4701L101.728 24.3422C101.762 24.2542 101.835 24.122 101.964 23.9994L106.102 28.3442ZM104.336 28.3996L107.414 28.6028L107.809 22.6158L104.731 22.4127L104.336 28.3996ZM104.676 24.9892C104.623 25.2405 104.53 25.4148 104.395 25.5683L108.905 29.5253C109.74 28.5746 110.287 27.4573 110.547 26.2294L104.676 24.9892ZM104.394 25.5697C104.262 25.7207 104.048 25.8924 103.667 26.0466L105.915 31.6095C107.054 31.1491 108.081 30.4667 108.907 29.5238L104.394 25.5697ZM103.677 26.0426C103.344 26.1759 102.862 26.2812 102.174 26.2812V32.2812C103.465 32.2812 104.728 32.0844 105.905 31.6135L103.677 26.0426ZM113.184 29.0468V17.0468H107.184V29.0468H113.184ZM110.184 20.0468H113.41V14.0468H110.184V20.0468ZM110.41 17.0468V19.1405H116.41V17.0468H110.41ZM113.41 22.1405H113.535V16.1405H113.41V22.1405ZM116.413 19.9859C116.453 19.8521 116.486 19.801 116.487 19.7999C116.487 19.7995 116.481 19.8085 116.467 19.823C116.454 19.8376 116.437 19.8532 116.417 19.8676L112.856 15.0385C111.709 15.8846 111.02 17.0581 110.657 18.2951L116.413 19.9859ZM116.433 19.8559C116.436 19.8535 116.433 19.856 116.424 19.8605C116.416 19.8651 116.405 19.8695 116.395 19.8729C116.384 19.8763 116.379 19.8771 116.38 19.8769C116.382 19.8766 116.394 19.8749 116.418 19.8749V13.8749C115.129 13.8749 113.898 14.2593 112.841 15.0501L116.433 19.8559ZM116.418 19.8749C116.461 19.8749 116.532 19.8777 116.635 19.8888L117.279 13.9235C116.996 13.8929 116.708 13.8749 116.418 13.8749V19.8749ZM116.635 19.8888C116.679 19.8936 116.709 19.8981 116.728 19.9012C116.747 19.9044 116.749 19.9055 116.737 19.9025L118.192 14.0817C117.882 14.004 117.572 13.9552 117.279 13.9235L116.635 19.8888ZM114.465 16.9921V19.9452H120.465V16.9921H114.465ZM118.327 17.0717C117.947 16.9578 117.55 16.891 117.209 16.846L116.424 22.7944C116.517 22.8068 116.58 22.8174 116.618 22.8246C116.658 22.8324 116.648 22.8323 116.603 22.8187L118.327 17.0717ZM117.209 16.846C116.829 16.7959 116.443 16.7655 116.059 16.7655V22.7655C116.132 22.7655 116.251 22.7716 116.424 22.7944L117.209 16.846ZM116.059 16.7655C115.118 16.7655 114.17 16.9751 113.292 17.4617L116.2 22.71C116.154 22.7355 116.109 22.7516 116.074 22.7601C116.041 22.7682 116.033 22.7655 116.059 22.7655V16.7655ZM113.304 17.4549C112.452 17.922 111.76 18.5925 111.264 19.4226L116.415 22.4991C116.397 22.5299 116.365 22.5736 116.318 22.6191C116.271 22.6646 116.224 22.6968 116.188 22.7168L113.304 17.4549ZM111.248 19.4492C110.729 20.3394 110.512 21.3062 110.512 22.2577H116.512C116.512 22.2371 116.514 22.2556 116.502 22.3022C116.49 22.3507 116.467 22.4109 116.431 22.4725L111.248 19.4492ZM110.512 22.2577V29.0468H116.512V22.2577H110.512ZM113.512 26.0468H110.184V32.0468H113.512V26.0468ZM128 29.0468V13.0468H122V29.0468H128ZM125 16.0468H131.312V10.0468H125V16.0468ZM131.312 16.0468C132.148 16.0468 132.664 16.2059 132.983 16.3788L135.845 11.1053C134.455 10.3512 132.903 10.0468 131.312 10.0468V16.0468ZM132.995 16.3856C133.359 16.5806 133.579 16.8104 133.736 17.0974L138.998 14.2149C138.259 12.8665 137.177 11.8202 135.832 11.0986L132.995 16.3856ZM133.747 17.1174C133.917 17.423 134.047 17.844 134.047 18.4687H140.047C140.047 16.9683 139.723 15.5143 138.987 14.195L133.747 17.1174ZM134.047 18.4687C134.047 19.0876 133.917 19.504 133.746 19.8072L138.972 22.7551C139.718 21.4334 140.047 19.9748 140.047 18.4687H134.047ZM133.746 19.8072C133.588 20.0871 133.363 20.3198 132.981 20.519L135.753 25.8402C137.11 25.1332 138.213 24.1003 138.972 22.7551L133.746 19.8072ZM132.974 20.5224C132.637 20.6995 132.093 20.8593 131.226 20.8593V26.8593C132.818 26.8593 134.368 26.566 135.76 25.8368L132.974 20.5224ZM131.226 20.8593H127.203V26.8593H131.226V20.8593ZM130.203 23.8593V21.1483H124.203V23.8593H130.203ZM127.203 24.1483H130.679V18.1483H127.203V24.1483ZM130.679 24.1483C131.651 24.1483 132.712 23.9843 133.696 23.4622L130.882 18.1626C130.955 18.1242 130.988 18.1211 130.957 18.1277C130.924 18.1346 130.836 18.1483 130.679 18.1483V24.1483ZM133.707 23.4559C134.626 22.963 135.397 22.2263 135.904 21.2501L130.58 18.4841C130.618 18.4114 130.671 18.3378 130.735 18.2742C130.798 18.2118 130.85 18.1798 130.87 18.1689L133.707 23.4559ZM135.897 21.2629C136.368 20.367 136.562 19.4094 136.562 18.4687H130.562C130.562 18.5285 130.556 18.5503 130.558 18.543C130.559 18.5396 130.561 18.5305 130.566 18.5172C130.571 18.5038 130.578 18.4881 130.586 18.4713L135.897 21.2629ZM136.562 18.4687C136.562 17.5303 136.371 16.5601 135.882 15.6537L130.602 18.5024C130.588 18.4776 130.578 18.4547 130.571 18.4354C130.564 18.4161 130.56 18.4024 130.559 18.3959C130.556 18.3829 130.562 18.4037 130.562 18.4687H136.562ZM135.904 15.6951C135.39 14.7058 134.602 13.9625 133.656 13.4782L130.921 18.8185C130.889 18.8021 130.825 18.7633 130.753 18.6924C130.679 18.6202 130.62 18.5387 130.58 18.461L135.904 15.6951ZM133.682 13.4915C132.698 12.9757 131.639 12.8124 130.664 12.8124V18.8124C130.824 18.8124 130.917 18.8264 130.955 18.8343C130.991 18.8418 130.963 18.8405 130.896 18.8052L133.682 13.4915ZM130.664 12.8124H128.383V18.8124H130.664V12.8124ZM125.383 15.8124V29.0468H131.383V15.8124H125.383ZM128.383 26.0468H125V32.0468H128.383V26.0468ZM142.511 29.0468V17.0468H136.511V29.0468H142.511ZM139.511 20.0468H142.738V14.0468H139.511V20.0468ZM139.738 17.0468V19.1405H145.738V17.0468H139.738ZM142.738 22.1405H142.863V16.1405H142.738V22.1405ZM145.741 19.9859C145.781 19.8521 145.814 19.801 145.815 19.7999C145.815 19.7995 145.809 19.8085 145.795 19.823C145.782 19.8376 145.764 19.8532 145.745 19.8676L142.184 15.0385C141.037 15.8846 140.348 17.0581 139.985 18.2951L145.741 19.9859ZM145.761 19.8559C145.764 19.8535 145.761 19.856 145.752 19.8605C145.743 19.8651 145.733 19.8695 145.723 19.8729C145.712 19.8763 145.707 19.8771 145.708 19.8769C145.71 19.8766 145.722 19.8749 145.746 19.8749V13.8749C144.457 13.8749 143.226 14.2593 142.168 15.0501L145.761 19.8559ZM145.746 19.8749C145.789 19.8749 145.86 19.8777 145.962 19.8888L146.607 13.9235C146.324 13.8929 146.036 13.8749 145.746 13.8749V19.8749ZM145.962 19.8888C146.007 19.8936 146.037 19.8981 146.056 19.9012C146.075 19.9044 146.077 19.9055 146.065 19.9025L147.52 14.0817C147.21 14.004 146.9 13.9552 146.607 13.9235L145.962 19.8888ZM143.793 16.9921V19.9452H149.793V16.9921H143.793ZM147.655 17.0717C147.275 16.9578 146.878 16.891 146.537 16.846L145.751 22.7944C145.845 22.8068 145.908 22.8174 145.945 22.8246C145.986 22.8324 145.976 22.8323 145.931 22.8187L147.655 17.0717ZM146.537 16.846C146.157 16.7959 145.771 16.7655 145.386 16.7655V22.7655C145.46 22.7655 145.579 22.7716 145.751 22.7944L146.537 16.846ZM145.386 16.7655C144.446 16.7655 143.498 16.9751 142.62 17.4617L145.528 22.71C145.482 22.7355 145.437 22.7516 145.402 22.7601C145.369 22.7682 145.361 22.7655 145.386 22.7655V16.7655ZM142.632 17.4549C141.78 17.922 141.088 18.5925 140.592 19.4226L145.743 22.4991C145.725 22.5299 145.693 22.5736 145.646 22.6191C145.599 22.6646 145.552 22.6968 145.516 22.7168L142.632 17.4549ZM140.576 19.4492C140.057 20.3394 139.84 21.3062 139.84 22.2577H145.84C145.84 22.2371 145.842 22.2556 145.83 22.3022C145.818 22.3507 145.795 22.4109 145.759 22.4725L140.576 19.4492ZM139.84 22.2577V29.0468H145.84V22.2577H139.84ZM142.84 26.0468H139.511V32.0468H142.84V26.0468ZM153.707 26.2812C152.925 26.2812 152.417 26.1185 152.068 25.9153L149.048 31.1002C150.47 31.9282 152.061 32.2812 153.707 32.2812V26.2812ZM152.086 25.9259C151.701 25.6979 151.41 25.396 151.184 24.9584L145.854 27.7133C146.586 29.1299 147.655 30.2759 149.03 31.0896L152.086 25.9259ZM151.187 24.9645C150.961 24.524 150.8 23.9281 150.8 23.0937H144.8C144.8 24.7176 145.119 26.2831 145.851 27.7072L151.187 24.9645ZM150.8 23.0937C150.8 22.2438 150.963 21.6494 151.184 21.2211L145.854 18.4662C145.117 19.8921 144.8 21.4644 144.8 23.0937H150.8ZM151.187 21.215C151.414 20.7749 151.7 20.4796 152.075 20.2603L149.042 15.0832C147.656 15.8952 146.583 17.0478 145.851 18.4723L151.187 21.215ZM152.079 20.2576C152.426 20.0535 152.93 19.8905 153.707 19.8905V13.8905C152.056 13.8905 150.461 14.2484 149.037 15.086L152.079 20.2576ZM153.707 19.8905C154.484 19.8905 154.982 20.0537 155.32 20.2537L158.375 15.0899C156.952 14.2482 155.357 13.8905 153.707 13.8905V19.8905ZM155.338 20.2642C155.716 20.4848 156.002 20.7796 156.226 21.215L161.562 18.4723C160.828 17.0432 159.749 15.89 158.357 15.0793L155.338 20.2642ZM156.229 21.2211C156.45 21.6494 156.613 22.2438 156.613 23.0937H162.613C162.613 21.4644 162.296 19.8921 161.559 18.4662L156.229 21.2211ZM156.613 23.0937C156.613 23.9281 156.452 24.524 156.226 24.9645L161.562 27.7072C162.294 26.2831 162.613 24.7176 162.613 23.0937H156.613ZM156.229 24.9584C156.005 25.3913 155.716 25.6927 155.326 25.9219L158.368 31.0935C159.75 30.281 160.825 29.1345 161.559 27.7133L156.229 24.9584ZM155.331 25.9192C154.991 26.1183 154.489 26.2812 153.707 26.2812V32.2812C155.352 32.2812 156.943 31.9284 158.364 31.0963L155.331 25.9192ZM153.722 29.703C154.878 29.703 156.055 29.3595 157.041 28.5257L153.169 23.9429C153.272 23.8552 153.395 23.7866 153.519 23.7446C153.637 23.7045 153.714 23.703 153.722 23.703V29.703ZM157.06 28.5098C157.904 27.7844 158.451 26.8678 158.779 25.9104L153.103 23.9644C153.079 24.0363 153.063 24.0575 153.07 24.0464C153.073 24.0409 153.082 24.0288 153.096 24.0124C153.11 23.996 153.128 23.9775 153.15 23.9588L157.06 28.5098ZM158.77 25.9345C159.096 25.0096 159.23 24.0406 159.23 23.0702H153.23C153.23 23.4956 153.171 23.7715 153.112 23.9404L158.77 25.9345ZM159.23 23.0702C159.23 22.0998 159.096 21.1309 158.77 20.206L153.112 22.2001C153.171 22.369 153.23 22.6448 153.23 23.0702H159.23ZM158.779 20.2301C158.451 19.2726 157.904 18.356 157.06 17.6307L153.15 22.1817C153.128 22.1629 153.11 22.1445 153.096 22.128C153.082 22.1117 153.073 22.0995 153.07 22.094C153.063 22.0829 153.079 22.1041 153.103 22.176L158.779 20.2301ZM157.06 17.6307C156.074 16.7835 154.891 16.4296 153.722 16.4296V22.4296C153.709 22.4296 153.627 22.4273 153.505 22.385C153.377 22.341 153.253 22.2698 153.15 22.1817L157.06 17.6307ZM153.722 16.4296C152.555 16.4296 151.38 16.7791 150.392 17.6041L154.24 22.2082C154.146 22.2866 154.032 22.3504 153.916 22.39C153.803 22.428 153.73 22.4296 153.722 22.4296V16.4296ZM150.377 17.6172C149.528 18.3363 148.973 19.248 148.635 20.206L154.294 22.2001C154.319 22.1282 154.336 22.106 154.33 22.1153C154.327 22.1199 154.319 22.1309 154.306 22.1459C154.292 22.161 154.276 22.1779 154.255 22.1951L150.377 17.6172ZM148.627 20.2301C148.312 21.1473 148.183 22.1077 148.183 23.0702H154.183C154.183 22.6369 154.242 22.3525 154.302 22.176L148.627 20.2301ZM148.183 23.0702C148.183 24.0328 148.312 24.9932 148.627 25.9104L154.302 23.9644C154.242 23.7879 154.183 23.5035 154.183 23.0702H148.183ZM148.635 25.9345C148.973 26.8924 149.528 27.8041 150.377 28.5232L154.255 23.9453C154.276 23.9625 154.292 23.9795 154.306 23.9946C154.319 24.0096 154.327 24.0205 154.33 24.0252C154.336 24.0345 154.319 24.0122 154.294 23.9404L148.635 25.9345ZM150.411 28.5519C151.399 29.3637 152.568 29.703 153.722 29.703V23.703C153.725 23.703 153.794 23.7038 153.901 23.7398C154.014 23.7773 154.126 23.8388 154.221 23.9167L150.411 28.5519Z" fill="#FDBA74" mask="url(#path-1-outside-1_1_950)"/>
</svg>
