<svg class="active" width="54" height="54" viewBox="0 0 54 54" fill="none" xmlns="http://www.w3.org/2000/svg">
    <rect x="2" y="2" width="50" height="50" rx="7" stroke="#FDBA74" stroke-width="3" />
    <path
        d="M14.3159 23.5455H11.0205L16.0418 9H20.0048L25.019 23.5455H21.7236L18.0801 12.3239H17.9665L14.3159 23.5455ZM14.1099 17.8281H21.894V20.2287H14.1099V17.8281Z"
        fill="#FDBA74" />
    <path
        d="M31.9986 23.5455V9H37.8225C38.8926 9 39.7851 9.15862 40.5001 9.47585C41.215 9.79309 41.7524 10.2334 42.1123 10.7969C42.4721 11.3556 42.6521 11.9995 42.6521 12.7287C42.6521 13.2969 42.5384 13.7964 42.3111 14.2273C42.0839 14.6534 41.7714 15.0038 41.3736 15.2784C40.9807 15.5483 40.5308 15.7401 40.0242 15.8537V15.9957C40.5782 16.0194 41.0967 16.1757 41.5796 16.4645C42.0673 16.7533 42.4627 17.1581 42.7657 17.679C43.0687 18.1951 43.2202 18.8106 43.2202 19.5256C43.2202 20.2973 43.0285 20.9863 42.645 21.5923C42.2662 22.1937 41.7051 22.6695 40.9617 23.0199C40.2183 23.3703 39.3022 23.5455 38.2131 23.5455H31.9986ZM35.0739 21.0312H37.581C38.438 21.0312 39.063 20.8679 39.456 20.5412C39.849 20.2098 40.0455 19.7694 40.0455 19.2202C40.0455 18.8177 39.9485 18.4626 39.7543 18.1548C39.5602 17.8471 39.2832 17.6056 38.9234 17.4304C38.5683 17.2552 38.1445 17.1676 37.6521 17.1676H35.0739V21.0312ZM35.0739 15.0866H37.3538C37.7752 15.0866 38.1492 15.0133 38.4759 14.8665C38.8074 14.715 39.0678 14.5019 39.2572 14.2273C39.4513 13.9527 39.5484 13.6236 39.5484 13.2401C39.5484 12.7145 39.3613 12.2907 38.9873 11.9688C38.618 11.6468 38.0924 11.4858 37.4106 11.4858H35.0739V15.0866Z"
        fill="#FDBA74" />
    <path
        d="M24.0895 35.0923H20.9787C20.9219 34.6899 20.8059 34.3324 20.6307 34.0199C20.4555 33.7027 20.2306 33.4328 19.956 33.2102C19.6813 32.9877 19.3641 32.8172 19.0043 32.6989C18.6491 32.5805 18.2633 32.5213 17.8466 32.5213C17.0938 32.5213 16.438 32.7083 15.8793 33.0824C15.3205 33.4517 14.8873 33.9915 14.5795 34.7017C14.2718 35.4072 14.1179 36.2642 14.1179 37.2727C14.1179 38.3097 14.2718 39.1809 14.5795 39.8864C14.892 40.5919 15.3277 41.1245 15.8864 41.4844C16.4451 41.8442 17.0914 42.0241 17.8253 42.0241C18.2372 42.0241 18.6184 41.9697 18.9688 41.8608C19.3239 41.7519 19.6387 41.5933 19.9134 41.3849C20.188 41.1719 20.4152 40.9138 20.5952 40.6108C20.7798 40.3078 20.9077 39.9621 20.9787 39.5739L24.0895 39.5881C24.009 40.2557 23.8078 40.8996 23.4858 41.5199C23.1686 42.1354 22.7401 42.687 22.2003 43.1747C21.6652 43.6577 21.026 44.0412 20.2827 44.3253C19.544 44.6046 18.7083 44.7443 17.7756 44.7443C16.4782 44.7443 15.3182 44.4508 14.2955 43.8636C13.2775 43.2765 12.4725 42.4266 11.8807 41.3139C11.2936 40.2012 11 38.8542 11 37.2727C11 35.6866 11.2983 34.3371 11.8949 33.2244C12.4915 32.1117 13.3011 31.2642 14.3239 30.6818C15.3466 30.0947 16.4972 29.8011 17.7756 29.8011C18.6184 29.8011 19.3996 29.9195 20.1193 30.1562C20.8438 30.393 21.4853 30.7386 22.044 31.1932C22.6027 31.643 23.0573 32.1946 23.4077 32.848C23.7628 33.5014 23.9901 34.2495 24.0895 35.0923Z"
        fill="#FDBA74" />
    <path
        d="M36.6799 44.5455H31.5237V30H36.7225C38.1856 30 39.4451 30.2912 40.5009 30.8736C41.5568 31.4512 42.3688 32.2822 42.937 33.3665C43.5099 34.4508 43.7964 35.7481 43.7964 37.2585C43.7964 38.7737 43.5099 40.0758 42.937 41.1648C42.3688 42.2538 41.5521 43.0895 40.4867 43.6719C39.4261 44.2543 38.1572 44.5455 36.6799 44.5455ZM34.5989 41.9105H36.5521C37.4612 41.9105 38.2258 41.7495 38.8461 41.4276C39.4711 41.1009 39.9398 40.5966 40.2523 39.9148C40.5696 39.2282 40.7282 38.3428 40.7282 37.2585C40.7282 36.1837 40.5696 35.3054 40.2523 34.6236C39.9398 33.9418 39.4735 33.4399 38.8532 33.1179C38.2329 32.7959 37.4683 32.6349 36.5592 32.6349H34.5989V41.9105Z"
        fill="#FDBA74" />
</svg>