<svg width="54" height="54" viewBox="0 0 54 54" fill="none" xmlns="http://www.w3.org/2000/svg">
<path d="M27 31C29.2593 31 31.0909 29.1684 31.0909 26.9091C31.0909 24.6497 29.2593 22.8182 27 22.8182C24.7406 22.8182 22.9091 24.6497 22.9091 26.9091C22.9091 29.1684 24.7406 31 27 31Z" fill="#FDBA74"/>
<path d="M12 26.9091L10.6584 26.2383C10.4472 26.6606 10.4472 27.1576 10.6584 27.5799L12 26.9091ZM42 26.9091L43.3416 27.5799C43.5528 27.1576 43.5528 26.6606 43.3416 26.2383L42 26.9091ZM8.25 3.5H45.75V0.5H8.25V3.5ZM50.5 8.25V45.75H53.5V8.25H50.5ZM45.75 50.5H8.25V53.5H45.75V50.5ZM3.5 45.75V8.25H0.5V45.75H3.5ZM8.25 50.5C5.62665 50.5 3.5 48.3734 3.5 45.75H0.5C0.5 50.0302 3.96979 53.5 8.25 53.5V50.5ZM50.5 45.75C50.5 48.3734 48.3734 50.5 45.75 50.5V53.5C50.0302 53.5 53.5 50.0302 53.5 45.75H50.5ZM45.75 3.5C48.3734 3.5 50.5 5.62665 50.5 8.25H53.5C53.5 3.96979 50.0302 0.5 45.75 0.5V3.5ZM8.25 0.5C3.96979 0.5 0.5 3.96979 0.5 8.25H3.5C3.5 5.62665 5.62665 3.5 8.25 3.5V0.5ZM12 26.9091C13.3416 27.5799 13.3414 27.5803 13.3412 27.5807C13.3412 27.5808 13.341 27.5811 13.341 27.5813C13.3408 27.5815 13.3408 27.5817 13.3408 27.5816C13.3408 27.5815 13.3412 27.5808 13.3419 27.5794C13.3433 27.5767 13.346 27.5714 13.35 27.5636C13.3579 27.5481 13.3711 27.5227 13.3894 27.4882C13.426 27.419 13.4831 27.3131 13.5604 27.1757C13.715 26.9008 13.9497 26.5011 14.2615 26.0183C14.887 25.0498 15.813 23.7623 17.0148 22.4805C19.4456 19.8876 22.8265 17.5 27 17.5V14.5C21.628 14.5 17.509 17.5669 14.8261 20.4286C13.471 21.8741 12.4369 23.3138 11.7414 24.3908C11.3927 24.9307 11.1266 25.3833 10.9457 25.7049C10.8551 25.8659 10.7857 25.9944 10.7378 26.085C10.7138 26.1303 10.6952 26.1662 10.6819 26.192C10.6753 26.2048 10.67 26.2152 10.6661 26.2229C10.6641 26.2268 10.6625 26.23 10.6612 26.2326C10.6606 26.2339 10.66 26.235 10.6595 26.2359C10.6593 26.2364 10.659 26.237 10.6589 26.2372C10.6586 26.2378 10.6584 26.2383 12 26.9091ZM27 17.5C31.1735 17.5 34.5544 19.8876 36.9852 22.4805C38.187 23.7623 39.113 25.0498 39.7385 26.0183C40.0503 26.5011 40.285 26.9008 40.4396 27.1757C40.5169 27.3131 40.574 27.419 40.6106 27.4882C40.6289 27.5227 40.6421 27.5481 40.65 27.5636C40.654 27.5714 40.6567 27.5767 40.6581 27.5794C40.6588 27.5808 40.6592 27.5815 40.6592 27.5816C40.6592 27.5817 40.6592 27.5815 40.659 27.5813C40.659 27.5811 40.6588 27.5808 40.6588 27.5807C40.6586 27.5803 40.6584 27.5799 42 26.9091C43.3416 26.2383 43.3414 26.2378 43.3411 26.2372C43.341 26.237 43.3407 26.2364 43.3405 26.2359C43.34 26.235 43.3394 26.2339 43.3388 26.2326C43.3375 26.23 43.3359 26.2268 43.3339 26.2229C43.33 26.2152 43.3247 26.2048 43.3181 26.192C43.3048 26.1662 43.2862 26.1303 43.2622 26.085C43.2143 25.9944 43.1449 25.8659 43.0543 25.7049C42.8734 25.3833 42.6073 24.9307 42.2586 24.3908C41.5631 23.3138 40.529 21.8741 39.1739 20.4286C36.491 17.5669 32.372 14.5 27 14.5V17.5ZM42 26.9091C40.6584 26.2383 40.6586 26.2379 40.6588 26.2375C40.6588 26.2374 40.659 26.2371 40.659 26.2369C40.6592 26.2366 40.6592 26.2365 40.6592 26.2366C40.6592 26.2367 40.6588 26.2374 40.6581 26.2388C40.6567 26.2415 40.654 26.2468 40.65 26.2545C40.6421 26.2701 40.6289 26.2954 40.6106 26.33C40.574 26.3992 40.5169 26.5051 40.4396 26.6424C40.285 26.9173 40.0503 27.317 39.7385 27.7998C39.113 28.7683 38.187 30.0559 36.9852 31.3377C34.5544 33.9306 31.1735 36.3182 27 36.3182V39.3182C32.372 39.3182 36.491 36.2512 39.1739 33.3895C40.529 31.9441 41.5631 30.5044 42.2586 29.4274C42.6073 28.8875 42.8734 28.4349 43.0543 28.1132C43.1449 27.9523 43.2143 27.8238 43.2622 27.7332C43.2862 27.6879 43.3048 27.652 43.3181 27.6262C43.3247 27.6133 43.33 27.603 43.3339 27.5952C43.3359 27.5914 43.3375 27.5881 43.3388 27.5856C43.3394 27.5843 43.34 27.5832 43.3405 27.5822C43.3407 27.5818 43.341 27.5812 43.3411 27.581C43.3414 27.5804 43.3416 27.5799 42 26.9091ZM27 36.3182C22.8265 36.3182 19.4456 33.9306 17.0148 31.3377C15.813 30.0559 14.887 28.7683 14.2615 27.7998C13.9497 27.317 13.715 26.9173 13.5604 26.6424C13.4831 26.5051 13.426 26.3992 13.3894 26.33C13.3711 26.2954 13.3579 26.2701 13.35 26.2545C13.346 26.2468 13.3433 26.2415 13.3419 26.2388C13.3412 26.2374 13.3408 26.2367 13.3408 26.2366C13.3408 26.2365 13.3408 26.2366 13.341 26.2369C13.341 26.2371 13.3412 26.2374 13.3412 26.2375C13.3414 26.2379 13.3416 26.2383 12 26.9091C10.6584 27.5799 10.6586 27.5804 10.6589 27.581C10.659 27.5812 10.6593 27.5818 10.6595 27.5822C10.66 27.5832 10.6606 27.5843 10.6612 27.5856C10.6625 27.5881 10.6641 27.5914 10.6661 27.5952C10.67 27.603 10.6753 27.6133 10.6819 27.6262C10.6952 27.652 10.7138 27.6879 10.7378 27.7332C10.7857 27.8238 10.8551 27.9523 10.9457 28.1132C11.1266 28.4349 11.3927 28.8875 11.7414 29.4274C12.4369 30.5044 13.471 31.9441 14.8261 33.3895C17.509 36.2512 21.628 39.3182 27 39.3182V36.3182ZM29.5909 26.9091C29.5909 28.34 28.4309 29.5 27 29.5V32.5C30.0878 32.5 32.5909 29.9969 32.5909 26.9091H29.5909ZM27 29.5C25.5691 29.5 24.4091 28.34 24.4091 26.9091H21.4091C21.4091 29.9969 23.9122 32.5 27 32.5V29.5ZM24.4091 26.9091C24.4091 25.4782 25.5691 24.3182 27 24.3182V21.3182C23.9122 21.3182 21.4091 23.8213 21.4091 26.9091H24.4091ZM27 24.3182C28.4309 24.3182 29.5909 25.4782 29.5909 26.9091H32.5909C32.5909 23.8213 30.0878 21.3182 27 21.3182V24.3182Z" fill="#FDBA74"/>
</svg>
