<svg width="54" height="54" viewBox="0 0 54 54" fill="none" xmlns="http://www.w3.org/2000/svg">
<path d="M36.0093 36.2929C36.6682 35.7907 36.7952 34.8495 36.2929 34.1907C35.7907 33.5318 34.8495 33.4048 34.1907 33.907L36.0093 36.2929ZM27 37.9091V39.4091C27.0082 39.4091 27.0163 39.409 27.0245 39.4089L27 37.9091ZM12 27L10.6783 26.2908C10.4478 26.7202 10.4404 27.2349 10.6584 27.6708L12 27ZM19.8104 20.0922C20.4688 19.5894 20.5949 18.6481 20.0922 17.9896C19.5894 17.3312 18.6481 17.2051 17.9896 17.7078L19.8104 20.0922ZM23.7945 14.9577C22.9879 15.1465 22.487 15.9534 22.6758 16.76C22.8647 17.5667 23.6716 18.0675 24.4782 17.8787L23.7945 14.9577ZM27 16.0909L26.9965 17.5909H27V16.0909ZM42 27L43.3229 27.7071C43.5522 27.278 43.5592 26.7644 43.3416 26.3292L42 27ZM37.9068 30.3842C37.3734 31.0181 37.4549 31.9644 38.0888 32.4977C38.7227 33.0311 39.6689 32.9496 40.2023 32.3158L37.9068 30.3842ZM30.9883 30.9135C31.5531 30.3074 31.5196 29.3582 30.9135 28.7935C30.3074 28.2287 29.3582 28.2622 28.7935 28.8683L30.9883 30.9135ZM25.1317 25.2065C25.7378 24.6417 25.7713 23.6926 25.2065 23.0865C24.6418 22.4804 23.6926 22.4469 23.0865 23.0117L25.1317 25.2065ZM13.0607 10.9393C12.4749 10.3536 11.5251 10.3536 10.9393 10.9393C10.3536 11.5251 10.3536 12.4749 10.9393 13.0607L13.0607 10.9393ZM40.9393 43.0607C41.5251 43.6464 42.4749 43.6464 43.0607 43.0607C43.6464 42.4749 43.6464 41.5251 43.0607 40.9393L40.9393 43.0607ZM8.25 3.5H45.75V0.5H8.25V3.5ZM50.5 8.25V45.75H53.5V8.25H50.5ZM45.75 50.5H8.25V53.5H45.75V50.5ZM3.5 45.75V8.25H0.5V45.75H3.5ZM8.25 50.5C5.62665 50.5 3.5 48.3734 3.5 45.75H0.5C0.5 50.0302 3.96979 53.5 8.25 53.5V50.5ZM50.5 45.75C50.5 48.3734 48.3734 50.5 45.75 50.5V53.5C50.0302 53.5 53.5 50.0302 53.5 45.75H50.5ZM45.75 3.5C48.3734 3.5 50.5 5.62665 50.5 8.25H53.5C53.5 3.96979 50.0302 0.5 45.75 0.5V3.5ZM8.25 0.5C3.96979 0.5 0.5 3.96979 0.5 8.25H3.5C3.5 5.62665 5.62665 3.5 8.25 3.5V0.5ZM34.1907 33.907C32.1143 35.4898 29.586 36.3666 26.9755 36.4093L27.0245 39.4089C30.2752 39.3557 33.4237 38.2639 36.0093 36.2929L34.1907 33.907ZM27 36.4091C22.8265 36.4091 19.4456 34.0215 17.0148 31.4286C15.813 30.1468 14.887 28.8592 14.2615 27.8908C13.9497 27.408 13.715 27.0083 13.5604 26.7334C13.4831 26.596 13.426 26.4901 13.3894 26.4209C13.3711 26.3864 13.3579 26.361 13.35 26.3455C13.346 26.3377 13.3433 26.3324 13.3419 26.3297C13.3412 26.3283 13.3408 26.3276 13.3408 26.3275C13.3408 26.3274 13.3408 26.3276 13.341 26.3278C13.341 26.328 13.3412 26.3283 13.3412 26.3284C13.3414 26.3288 13.3416 26.3292 12 27C10.6584 27.6708 10.6586 27.6713 10.6589 27.6719C10.659 27.6721 10.6593 27.6727 10.6595 27.6732C10.66 27.6741 10.6606 27.6752 10.6612 27.6765C10.6625 27.6791 10.6641 27.6823 10.6661 27.6861C10.67 27.6939 10.6753 27.7042 10.6819 27.7171C10.6952 27.7429 10.7138 27.7788 10.7378 27.8241C10.7857 27.9147 10.8551 28.0432 10.9457 28.2041C11.1266 28.5258 11.3927 28.9784 11.7414 29.5183C12.4369 30.5953 13.471 32.035 14.8261 33.4805C17.509 36.3422 21.628 39.4091 27 39.4091V36.4091ZM13.3217 27.7092C14.9168 24.7366 17.1292 22.1396 19.8104 20.0922L17.9896 17.7078C14.9685 20.0148 12.4756 22.9412 10.6783 26.2908L13.3217 27.7092ZM24.4782 17.8787C25.3037 17.6855 26.1487 17.5889 26.9965 17.5909L27.0035 14.5909C25.9232 14.5884 24.8463 14.7114 23.7945 14.9577L24.4782 17.8787ZM27 17.5909C31.1735 17.5909 34.5544 19.9785 36.9852 22.5714C38.187 23.8532 39.113 25.1408 39.7385 26.1092C40.0503 26.592 40.285 26.9917 40.4396 27.2666C40.5169 27.404 40.574 27.5099 40.6106 27.5791C40.6289 27.6136 40.6421 27.639 40.65 27.6545C40.654 27.6623 40.6567 27.6676 40.6581 27.6703C40.6588 27.6717 40.6592 27.6724 40.6592 27.6725C40.6592 27.6726 40.6592 27.6724 40.659 27.6722C40.659 27.672 40.6588 27.6717 40.6588 27.6716C40.6586 27.6712 40.6584 27.6708 42 27C43.3416 26.3292 43.3414 26.3287 43.3411 26.3281C43.341 26.3279 43.3407 26.3273 43.3405 26.3268C43.34 26.3259 43.3394 26.3248 43.3388 26.3235C43.3375 26.3209 43.3359 26.3177 43.3339 26.3138C43.33 26.3061 43.3247 26.2957 43.3181 26.2829C43.3048 26.2571 43.2862 26.2212 43.2622 26.1759C43.2143 26.0853 43.1449 25.9568 43.0543 25.7959C42.8734 25.4742 42.6073 25.0216 42.2586 24.4817C41.5631 23.4047 40.529 21.965 39.1739 20.5195C36.491 17.6578 32.372 14.5909 27 14.5909V17.5909ZM40.6771 26.2929C39.8986 27.7494 38.9701 29.1206 37.9068 30.3842L40.2023 32.3158C41.4 30.8923 42.4459 29.3477 43.3229 27.7071L40.6771 26.2929ZM28.7935 28.8683C28.5563 29.1229 28.2703 29.327 27.9524 29.4687L29.1734 32.2089C29.8592 31.9034 30.4765 31.4628 30.9883 30.9135L28.7935 28.8683ZM27.9524 29.4687C27.6346 29.6103 27.2915 29.6864 26.9437 29.6925L26.9966 32.6921C27.7473 32.6788 28.4876 32.5145 29.1734 32.2089L27.9524 29.4687ZM26.9437 29.6925C26.5958 29.6987 26.2502 29.6347 25.9276 29.5044L24.8041 32.286C25.5002 32.5672 26.2459 32.7053 26.9966 32.6921L26.9437 29.6925ZM25.9276 29.5044C25.605 29.3741 25.3119 29.1801 25.0659 28.9341L22.9446 31.0554C23.4755 31.5863 24.1079 32.0048 24.8041 32.286L25.9276 29.5044ZM25.0659 28.9341C24.8199 28.6881 24.6259 28.395 24.4956 28.0724L21.714 29.1959C21.9951 29.8921 22.4137 30.5245 22.9446 31.0554L25.0659 28.9341ZM24.4956 28.0724C24.3653 27.7498 24.3013 27.4042 24.3074 27.0563L21.3079 27.0034C21.2947 27.7541 21.4328 28.4998 21.714 29.1959L24.4956 28.0724ZM24.3074 27.0563C24.3136 26.7085 24.3897 26.3654 24.5313 26.0476L21.7911 24.8266C21.4855 25.5124 21.3212 26.2527 21.3079 27.0034L24.3074 27.0563ZM24.5313 26.0476C24.673 25.7297 24.8771 25.4437 25.1317 25.2065L23.0865 23.0117C22.5372 23.5235 22.0966 24.1408 21.7911 24.8266L24.5313 26.0476ZM10.9393 13.0607L40.9393 43.0607L43.0607 40.9393L13.0607 10.9393L10.9393 13.0607Z" fill="#C5C5C5"/>
</svg>
