<svg width="54" height="54" viewBox="0 0 54 54" fill="none" xmlns="http://www.w3.org/2000/svg">
<rect x="2" y="2" width="50" height="50" rx="7" stroke="#C5C5C5" stroke-width="3"/>
<path d="M20.4979 9.19886V23.7443H17.4226V12.1179H17.3374L14.0064 14.206V11.4787L17.6073 9.19886H20.4979Z" fill="#C5C5C5"/>
<path d="M29.1838 23.7443V21.5284L34.3614 16.7344C34.8017 16.3082 35.1711 15.9247 35.4694 15.5838C35.7724 15.2429 36.002 14.9091 36.1583 14.5824C36.3145 14.2509 36.3927 13.8935 36.3927 13.5099C36.3927 13.0838 36.2956 12.7169 36.1015 12.4091C35.9073 12.0966 35.6422 11.8575 35.306 11.6918C34.9698 11.5213 34.5887 11.4361 34.1625 11.4361C33.7175 11.4361 33.3292 11.526 32.9978 11.706C32.6663 11.8859 32.4106 12.1439 32.2307 12.4801C32.0508 12.8163 31.9608 13.2164 31.9608 13.6804H29.0418C29.0418 12.7287 29.2572 11.9025 29.6881 11.2017C30.119 10.5009 30.7227 9.95881 31.4992 9.57528C32.2757 9.19176 33.1706 9 34.1838 9C35.2255 9 36.1322 9.18466 36.904 9.55398C37.6805 9.91856 38.2842 10.4252 38.7151 11.0739C39.146 11.7225 39.3614 12.4659 39.3614 13.304C39.3614 13.8532 39.2525 14.3954 39.0347 14.9304C38.8216 15.4654 38.4405 16.0597 37.8912 16.7131C37.342 17.3617 36.5678 18.1406 35.5688 19.0497L33.4452 21.1307V21.2301H39.5532V23.7443H29.1838Z" fill="#C5C5C5"/>
<path d="M17.5185 44.9432C16.4579 44.9432 15.5133 44.7609 14.6847 44.3963C13.8608 44.027 13.2098 43.5204 12.7315 42.8764C12.258 42.2277 12.0142 41.4796 12 40.6321H15.0966C15.1155 40.9872 15.2315 41.2997 15.4446 41.5696C15.6624 41.8348 15.9512 42.0407 16.3111 42.1875C16.6709 42.3343 17.0758 42.4077 17.5256 42.4077C17.9943 42.4077 18.4086 42.3248 18.7685 42.1591C19.1283 41.9934 19.41 41.7637 19.6136 41.4702C19.8172 41.1766 19.919 40.8381 19.919 40.4545C19.919 40.0663 19.8101 39.723 19.5923 39.4247C19.3793 39.1217 19.0715 38.8849 18.669 38.7145C18.2713 38.544 17.7978 38.4588 17.2486 38.4588H15.892V36.2003H17.2486C17.7126 36.2003 18.1222 36.1198 18.4773 35.9588C18.8371 35.7978 19.1165 35.5753 19.3153 35.2912C19.5142 35.0024 19.6136 34.6662 19.6136 34.2827C19.6136 33.9181 19.526 33.5985 19.3509 33.3239C19.1804 33.0445 18.9389 32.8267 18.6264 32.6705C18.3187 32.5142 17.9588 32.4361 17.5469 32.4361C17.1302 32.4361 16.7491 32.5118 16.4034 32.6634C16.0578 32.8101 15.7808 33.0208 15.5724 33.2955C15.3641 33.5701 15.2528 33.892 15.2386 34.2614H12.2912C12.3054 33.4233 12.5445 32.6847 13.0085 32.0455C13.4725 31.4063 14.0975 30.9067 14.8835 30.5469C15.6742 30.1823 16.5668 30 17.5611 30C18.5649 30 19.4432 30.1823 20.196 30.5469C20.9489 30.9115 21.5336 31.4039 21.9503 32.0241C22.3717 32.6397 22.58 33.331 22.5753 34.098C22.58 34.9124 22.3267 35.5919 21.8153 36.1364C21.3087 36.6809 20.6482 37.0265 19.8338 37.1733V37.2869C20.9039 37.4242 21.7183 37.7959 22.277 38.402C22.8404 39.0033 23.1198 39.7562 23.1151 40.6605C23.1198 41.4891 22.8807 42.2254 22.3977 42.8693C21.9195 43.5133 21.259 44.0199 20.4162 44.3892C19.5734 44.7585 18.6075 44.9432 17.5185 44.9432Z" fill="#C5C5C5"/>
<path d="M30.3344 42.1875V39.7656L36.4068 30.1989H38.4949V33.5511H37.2591L33.431 39.6094V39.723H42.0602V42.1875H30.3344ZM37.3159 44.7443V41.4489L37.3727 40.3764V30.1989H40.2563V44.7443H37.3159Z" fill="#C5C5C5"/>
</svg>
