<svg width="54" height="54" viewBox="0 0 54 54" fill="none" xmlns="http://www.w3.org/2000/svg">
<path d="M28.5 12C28.5 11.1716 27.8284 10.5 27 10.5C26.1716 10.5 25.5 11.1716 25.5 12H28.5ZM25.5 42C25.5 42.8284 26.1716 43.5 27 43.5C27.8284 43.5 28.5 42.8284 28.5 42H25.5ZM12 25.5C11.1716 25.5 10.5 26.1716 10.5 27C10.5 27.8284 11.1716 28.5 12 28.5V25.5ZM42 28.5C42.8284 28.5 43.5 27.8284 43.5 27C43.5 26.1716 42.8284 25.5 42 25.5V28.5ZM8.25 3.5H45.75V0.5H8.25V3.5ZM50.5 8.25V45.75H53.5V8.25H50.5ZM45.75 50.5H8.25V53.5H45.75V50.5ZM3.5 45.75V8.25H0.5V45.75H3.5ZM8.25 50.5C5.62665 50.5 3.5 48.3734 3.5 45.75H0.5C0.5 50.0302 3.96979 53.5 8.25 53.5V50.5ZM50.5 45.75C50.5 48.3734 48.3734 50.5 45.75 50.5V53.5C50.0302 53.5 53.5 50.0302 53.5 45.75H50.5ZM45.75 3.5C48.3734 3.5 50.5 5.62665 50.5 8.25H53.5C53.5 3.96979 50.0302 0.5 45.75 0.5V3.5ZM8.25 0.5C3.96979 0.5 0.5 3.96979 0.5 8.25H3.5C3.5 5.62665 5.62665 3.5 8.25 3.5V0.5ZM25.5 12V42H28.5V12H25.5ZM12 28.5H42V25.5H12V28.5Z" fill="#C5C5C5"/>
</svg>
