<svg width="54" height="54" viewBox="0 0 54 54" fill="none" xmlns="http://www.w3.org/2000/svg">
<path d="M38.4393 40.5607C39.0251 41.1464 39.9749 41.1464 40.5607 40.5607C41.1464 39.9749 41.1464 39.0251 40.5607 38.4393L38.4393 40.5607ZM34.3982 32.2768C33.8124 31.6911 32.8626 31.6911 32.2768 32.2768C31.691 32.8626 31.691 33.8124 32.2768 34.3982L34.3982 32.2768ZM8.25 3.5H45.75V0.5H8.25V3.5ZM50.5 8.25V45.75H53.5V8.25H50.5ZM45.75 50.5H8.25V53.5H45.75V50.5ZM3.5 45.75V8.25H0.5V45.75H3.5ZM8.25 50.5C5.62665 50.5 3.5 48.3734 3.5 45.75H0.5C0.5 50.0302 3.96979 53.5 8.25 53.5V50.5ZM50.5 45.75C50.5 48.3734 48.3734 50.5 45.75 50.5V53.5C50.0302 53.5 53.5 50.0302 53.5 45.75H50.5ZM45.75 3.5C48.3734 3.5 50.5 5.62665 50.5 8.25H53.5C53.5 3.96979 50.0302 0.5 45.75 0.5V3.5ZM8.25 0.5C3.96979 0.5 0.5 3.96979 0.5 8.25H3.5C3.5 5.62665 5.62665 3.5 8.25 3.5V0.5ZM35.1667 25.3333C35.1667 30.7641 30.7641 35.1667 25.3333 35.1667V38.1667C32.421 38.1667 38.1667 32.421 38.1667 25.3333H35.1667ZM25.3333 35.1667C19.9025 35.1667 15.5 30.7641 15.5 25.3333H12.5C12.5 32.421 18.2457 38.1667 25.3333 38.1667V35.1667ZM15.5 25.3333C15.5 19.9025 19.9025 15.5 25.3333 15.5V12.5C18.2457 12.5 12.5 18.2457 12.5 25.3333H15.5ZM25.3333 15.5C30.7641 15.5 35.1667 19.9025 35.1667 25.3333H38.1667C38.1667 18.2457 32.421 12.5 25.3333 12.5V15.5ZM40.5607 38.4393L34.3982 32.2768L32.2768 34.3982L38.4393 40.5607L40.5607 38.4393Z" fill="#FDBA74"/>
</svg>
