<svg width="54" height="54" viewBox="0 0 54 54" fill="none" xmlns="http://www.w3.org/2000/svg">
<path d="M35.6301 30.4577L37.0024 31.0633C37.0046 31.0584 37.0067 31.0535 37.0088 31.0486L35.6301 30.4577ZM36.018 32.5972L34.9457 33.6461C34.9496 33.65 34.9535 33.6539 34.9574 33.6579L36.018 32.5972ZM36.0886 32.6677L35.0279 33.7284L35.0285 33.729L36.0886 32.6677ZM36.0886 35.9945L35.0285 34.9333L35.0273 34.9344L36.0886 35.9945ZM32.7618 35.9945L33.823 34.9344L33.8224 34.9338L32.7618 35.9945ZM32.6912 35.924L33.7519 34.8633C33.748 34.8594 33.7441 34.8555 33.7401 34.8517L32.6912 35.924ZM30.5517 35.536L31.1426 36.9148C31.1475 36.9126 31.1525 36.9105 31.1574 36.9083L30.5517 35.536ZM29.3762 37.3111L27.8762 37.3051V37.3111H29.3762ZM24.674 37.4052H26.174C26.174 37.3935 26.1738 37.3818 26.1736 37.3701L24.674 37.4052ZM23.4044 35.6301L22.7987 37.0024C22.8277 37.0151 22.857 37.027 22.8866 37.0379L23.4044 35.6301ZM21.2649 36.018L20.216 34.9457C20.2121 34.9496 20.2081 34.9535 20.2042 34.9574L21.2649 36.018ZM21.1944 36.0886L20.1337 35.0279L20.1331 35.0285L21.1944 36.0886ZM17.8676 36.0886L18.9288 35.0285L18.9276 35.0273L17.8676 36.0886ZM17.178 34.4252L18.678 34.4252L17.178 34.4252ZM17.8676 32.7618L18.9276 33.823L18.9282 33.8224L17.8676 32.7618ZM17.9381 32.6912L18.9987 33.7519C19.0026 33.748 19.0065 33.7441 19.0104 33.7401L17.9381 32.6912ZM18.326 30.5517L16.9473 31.1426C16.9494 31.1475 16.9516 31.1525 16.9537 31.1574L18.326 30.5517ZM16.5509 29.3762L16.5569 27.8762H16.5509V29.3762ZM16.3511 24.674V26.174V24.674ZM16.4569 24.674V26.174C16.4686 26.174 16.4803 26.1738 16.492 26.1736L16.4569 24.674ZM18.232 23.4044L16.8597 22.7987C16.8469 22.8277 16.8351 22.857 16.8242 22.8866L18.232 23.4044ZM17.844 21.2649L18.9163 20.216C18.9125 20.2121 18.9086 20.2081 18.9047 20.2042L17.844 21.2649ZM17.7735 21.1944L18.8342 20.1337L18.8336 20.1331L17.7735 21.1944ZM17.7735 17.8676L18.8336 18.9288L18.8348 18.9276L17.7735 17.8676ZM21.1003 17.8676L20.0391 18.9276L20.0397 18.9282L21.1003 17.8676ZM21.1708 17.9381L20.1102 18.9988C20.1141 19.0027 20.118 19.0065 20.1219 19.0104L21.1708 17.9381ZM23.3103 18.326V16.826C23.1018 16.826 22.8955 16.8695 22.7047 16.9537L23.3103 18.326ZM23.4044 18.326V19.826C23.6075 19.826 23.8086 19.7848 23.9953 19.7047L23.4044 18.326ZM24.5799 16.5509L26.0799 16.5569V16.5509H24.5799ZM29.2821 16.4569L27.7821 16.4569L27.7821 16.4629L29.2821 16.4569ZM30.4577 18.232L31.0633 16.8597C31.0584 16.8575 31.0535 16.8554 31.0486 16.8533L30.4577 18.232ZM32.5972 17.844L33.6461 18.9163C33.65 18.9125 33.6539 18.9086 33.6578 18.9047L32.5972 17.844ZM32.6677 17.7735L33.7284 18.8342L33.729 18.8336L32.6677 17.7735ZM35.9945 17.7735L34.9333 18.8336L34.9344 18.8348L35.9945 17.7735ZM35.9945 21.1003L34.9344 20.0391L34.9338 20.0397L35.9945 21.1003ZM35.924 21.1708L34.8633 20.1102C34.8594 20.1141 34.8555 20.118 34.8517 20.1219L35.924 21.1708ZM35.536 23.3103H37.036C37.036 23.1018 36.9926 22.8955 36.9083 22.7047L35.536 23.3103ZM35.536 23.4044H34.036C34.036 23.6075 34.0773 23.8086 34.1573 23.9953L35.536 23.4044ZM37.3111 24.5799L37.3051 26.0799H37.3111V24.5799ZM37.4052 29.2821L37.4052 27.7821L37.3992 27.7821L37.4052 29.2821ZM8.25 3.5H45.75V0.5H8.25V3.5ZM50.5 8.25V45.75H53.5V8.25H50.5ZM45.75 50.5H8.25V53.5H45.75V50.5ZM3.5 45.75V8.25H0.5V45.75H3.5ZM8.25 50.5C5.62665 50.5 3.5 48.3734 3.5 45.75H0.5C0.5 50.0302 3.96979 53.5 8.25 53.5V50.5ZM50.5 45.75C50.5 48.3734 48.3734 50.5 45.75 50.5V53.5C50.0302 53.5 53.5 50.0302 53.5 45.75H50.5ZM45.75 3.5C48.3734 3.5 50.5 5.62665 50.5 8.25H53.5C53.5 3.96979 50.0302 0.5 45.75 0.5V3.5ZM8.25 0.5C3.96979 0.5 0.5 3.96979 0.5 8.25H3.5C3.5 5.62665 5.62665 3.5 8.25 3.5V0.5ZM28.9577 26.931C28.9577 28.0503 28.0503 28.9577 26.931 28.9577V31.9577C29.7072 31.9577 31.9577 29.7072 31.9577 26.931H28.9577ZM26.931 28.9577C25.8117 28.9577 24.9044 28.0503 24.9044 26.931H21.9044C21.9044 29.7072 24.1549 31.9577 26.931 31.9577V28.9577ZM24.9044 26.931C24.9044 25.8117 25.8117 24.9044 26.931 24.9044V21.9044C24.1549 21.9044 21.9044 24.1549 21.9044 26.931H24.9044ZM26.931 24.9044C28.0503 24.9044 28.9577 25.8117 28.9577 26.931H31.9577C31.9577 24.1549 29.7072 21.9044 26.931 21.9044V24.9044ZM34.2578 29.852C33.9803 30.4808 33.8975 31.1783 34.0201 31.8545L36.972 31.3193C36.9563 31.2328 36.9669 31.1437 37.0024 31.0633L34.2578 29.852ZM34.0201 31.8545C34.1428 32.5308 34.4651 33.1548 34.9457 33.6461L37.0903 31.5483C37.0289 31.4855 36.9877 31.4057 36.972 31.3193L34.0201 31.8545ZM34.9574 33.6579L35.0279 33.7284L37.1492 31.607L37.0787 31.5365L34.9574 33.6579ZM35.0285 33.729C35.1076 33.808 35.1704 33.9019 35.2132 34.0052L37.9845 32.8564C37.7907 32.3889 37.5067 31.9641 37.1486 31.6065L35.0285 33.729ZM35.2132 34.0052C35.2561 34.1085 35.2781 34.2193 35.2781 34.3311H38.2781C38.2781 33.825 38.1783 33.3239 37.9845 32.8564L35.2132 34.0052ZM35.2781 34.3311C35.2781 34.443 35.2561 34.5537 35.2132 34.657L37.9845 35.8059C38.1783 35.3383 38.2781 34.8372 38.2781 34.3311H35.2781ZM35.2132 34.657C35.1704 34.7604 35.1076 34.8542 35.0285 34.9333L37.1486 37.0558C37.5067 36.6981 37.7907 36.2734 37.9845 35.8059L35.2132 34.657ZM35.0273 34.9344C34.9483 35.0136 34.8544 35.0764 34.7511 35.1192L35.8999 37.8905C36.3674 37.6967 36.7921 37.4126 37.1498 37.0546L35.0273 34.9344ZM34.7511 35.1192C34.6477 35.162 34.537 35.1841 34.4252 35.1841V38.1841C34.9313 38.1841 35.4324 38.0843 35.8999 37.8905L34.7511 35.1192ZM34.4252 35.1841C34.3133 35.1841 34.2026 35.162 34.0992 35.1192L32.9504 37.8905C33.4179 38.0843 33.9191 38.1841 34.4252 38.1841V35.1841ZM34.0992 35.1192C33.9959 35.0764 33.902 35.0136 33.823 34.9344L31.7005 37.0546C32.0582 37.4126 32.4829 37.6967 32.9504 37.8905L34.0992 35.1192ZM33.8224 34.9338L33.7519 34.8633L31.6306 36.9847L31.7011 37.0552L33.8224 34.9338ZM33.7401 34.8517C33.2488 34.3711 32.6248 34.0487 31.9486 33.9261L31.4133 36.878C31.4998 36.8936 31.5795 36.9348 31.6423 36.9963L33.7401 34.8517ZM31.9486 33.9261C31.2723 33.8035 30.5748 33.8863 29.9461 34.1638L31.1574 36.9083C31.2377 36.8729 31.3269 36.8623 31.4133 36.878L31.9486 33.9261ZM29.9608 34.1573C29.3442 34.4216 28.8184 34.8604 28.448 35.4197L30.9493 37.0761C30.9966 37.0046 31.0638 36.9485 31.1426 36.9148L29.9608 34.1573ZM28.448 35.4197C28.0776 35.9789 27.8789 36.6343 27.8762 37.3051L30.8762 37.3171C30.8765 37.2314 30.9019 37.1476 30.9493 37.0761L28.448 35.4197ZM27.8762 37.3111V37.511H30.8762V37.3111H27.8762ZM27.8762 37.511C27.8762 37.7367 27.7865 37.9532 27.6269 38.1128L29.7482 40.2341C30.4704 39.5119 30.8762 38.5323 30.8762 37.511H27.8762ZM27.6269 38.1128C27.4673 38.2724 27.2508 38.3621 27.0251 38.3621V41.3621C28.0465 41.3621 29.026 40.9563 29.7482 40.2341L27.6269 38.1128ZM27.0251 38.3621C26.7994 38.3621 26.5829 38.2724 26.4233 38.1128L24.3019 40.2341C25.0242 40.9563 26.0037 41.3621 27.0251 41.3621V38.3621ZM26.4233 38.1128C26.2636 37.9532 26.174 37.7367 26.174 37.511H23.174C23.174 38.5323 23.5797 39.5119 24.3019 40.2341L26.4233 38.1128ZM26.174 37.511V37.4052H23.174V37.511H26.174ZM26.1736 37.3701C26.1574 36.6801 25.9341 36.0109 25.5326 35.4495L23.0925 37.1948C23.1438 37.2665 23.1723 37.3521 23.1744 37.4402L26.1736 37.3701ZM25.5326 35.4495C25.131 34.8881 24.5699 34.4605 23.9222 34.2223L22.8866 37.0379C22.9694 37.0683 23.0411 37.123 23.0925 37.1948L25.5326 35.4495ZM24.01 34.2578C23.3813 33.9803 22.6838 33.8975 22.0076 34.0201L22.5428 36.972C22.6292 36.9563 22.7184 36.9669 22.7987 37.0024L24.01 34.2578ZM22.0076 34.0201C21.3313 34.1428 20.7073 34.4651 20.216 34.9457L22.3138 37.0903C22.3766 37.0289 22.4563 36.9877 22.5428 36.972L22.0076 34.0201ZM20.2042 34.9574L20.1337 35.0279L22.255 37.1492L22.3256 37.0787L20.2042 34.9574ZM20.1331 35.0285C20.0541 35.1076 19.9602 35.1704 19.8569 35.2132L21.0057 37.9845C21.4732 37.7907 21.8979 37.5067 22.2556 37.1486L20.1331 35.0285ZM19.8569 35.2132C19.7535 35.2561 19.6428 35.2781 19.531 35.2781V38.2781C20.0371 38.2781 20.5382 38.1783 21.0057 37.9845L19.8569 35.2132ZM19.531 35.2781C19.4191 35.2781 19.3084 35.2561 19.205 35.2132L18.0562 37.9845C18.5237 38.1783 19.0249 38.2781 19.531 38.2781V35.2781ZM19.205 35.2132C19.1017 35.1704 19.0078 35.1076 18.9288 35.0285L16.8063 37.1486C17.164 37.5067 17.5887 37.7907 18.0562 37.9845L19.205 35.2132ZM18.9276 35.0273C18.8485 34.9483 18.7857 34.8544 18.7429 34.7511L15.9716 35.8999C16.1654 36.3674 16.4494 36.7921 16.8075 37.1498L18.9276 35.0273ZM18.7429 34.7511C18.7001 34.6478 18.678 34.537 18.678 34.4252H15.678C15.678 34.9313 15.7778 35.4324 15.9716 35.8999L18.7429 34.7511ZM18.678 34.4252C18.678 34.3133 18.7001 34.2026 18.7429 34.0992L15.9716 32.9504C15.7778 33.4179 15.678 33.9191 15.678 34.4252L18.678 34.4252ZM18.7429 34.0992C18.7857 33.9959 18.8485 33.902 18.9276 33.823L16.8075 31.7005C16.4494 32.0582 16.1654 32.4829 15.9716 32.9504L18.7429 34.0992ZM18.9282 33.8224L18.9987 33.7519L16.8774 31.6306L16.8069 31.7011L18.9282 33.8224ZM19.0104 33.7401C19.491 33.2488 19.8134 32.6248 19.936 31.9486L16.9841 31.4133C16.9684 31.4998 16.9272 31.5795 16.8658 31.6423L19.0104 33.7401ZM19.936 31.9486C20.0586 31.2723 19.9758 30.5748 19.6983 29.9461L16.9537 31.1574C16.9892 31.2377 16.9998 31.3269 16.9841 31.4133L19.936 31.9486ZM19.7047 29.9608C19.4405 29.3443 19.0017 28.8184 18.4424 28.448L16.786 30.9493C16.8574 30.9966 16.9135 31.0638 16.9473 31.1426L19.7047 29.9608ZM18.4424 28.448C17.8831 28.0776 17.2277 27.8789 16.5569 27.8762L16.545 30.8762C16.6307 30.8765 16.7145 30.9019 16.786 30.9493L18.4424 28.448ZM16.5509 27.8762H16.3511V30.8762H16.5509V27.8762ZM16.3511 27.8762C16.1254 27.8762 15.9089 27.7865 15.7493 27.6269L13.628 29.7482C14.3502 30.4704 15.3297 30.8762 16.3511 30.8762V27.8762ZM15.7493 27.6269C15.5897 27.4673 15.5 27.2508 15.5 27.0251H12.5C12.5 28.0465 12.9057 29.026 13.628 29.7482L15.7493 27.6269ZM15.5 27.0251C15.5 26.7994 15.5897 26.5829 15.7493 26.4233L13.628 24.3019C12.9057 25.0242 12.5 26.0037 12.5 27.0251H15.5ZM15.7493 26.4233C15.9089 26.2636 16.1254 26.174 16.3511 26.174L16.3511 23.174C15.3297 23.174 14.3502 23.5797 13.628 24.3019L15.7493 26.4233ZM16.3511 26.174H16.4569V23.174H16.3511V26.174ZM16.492 26.1736C17.182 26.1574 17.8512 25.9341 18.4125 25.5326L16.6673 23.0925C16.5956 23.1438 16.51 23.1723 16.4218 23.1744L16.492 26.1736ZM18.4125 25.5326C18.9739 25.131 19.4015 24.5699 19.6398 23.9222L16.8242 22.8866C16.7937 22.9694 16.7391 23.0411 16.6673 23.0925L18.4125 25.5326ZM19.6043 24.01C19.8818 23.3813 19.9645 22.6838 19.8419 22.0076L16.8901 22.5428C16.9057 22.6292 16.8952 22.7184 16.8597 22.7987L19.6043 24.01ZM19.8419 22.0076C19.7193 21.3313 19.3969 20.7073 18.9163 20.216L16.7717 22.3138C16.8332 22.3766 16.8744 22.4563 16.8901 22.5428L19.8419 22.0076ZM18.9047 20.2042L18.8342 20.1337L16.7128 22.255L16.7834 22.3255L18.9047 20.2042ZM18.8336 20.1331C18.7544 20.0541 18.6917 19.9602 18.6488 19.8569L15.8775 21.0057C16.0713 21.4732 16.3554 21.8979 16.7134 22.2556L18.8336 20.1331ZM18.6488 19.8569C18.606 19.7536 18.584 19.6428 18.584 19.531H15.584C15.584 20.0371 15.6837 20.5382 15.8775 21.0057L18.6488 19.8569ZM18.584 19.531C18.584 19.4191 18.606 19.3084 18.6488 19.205L15.8775 18.0562C15.6837 18.5237 15.584 19.0249 15.584 19.531H18.584ZM18.6488 19.205C18.6917 19.1017 18.7545 19.0078 18.8336 18.9288L16.7134 16.8063C16.3554 17.164 16.0713 17.5887 15.8775 18.0562L18.6488 19.205ZM18.8348 18.9276C18.9138 18.8485 19.0077 18.7857 19.111 18.7429L17.9622 15.9716C17.4947 16.1654 17.0699 16.4494 16.7123 16.8075L18.8348 18.9276ZM19.111 18.7429C19.2143 18.7001 19.3251 18.678 19.4369 18.678V15.678C18.9308 15.678 18.4297 15.7778 17.9622 15.9716L19.111 18.7429ZM19.4369 18.678C19.5488 18.678 19.6595 18.7001 19.7628 18.7429L20.9117 15.9716C20.4441 15.7778 19.943 15.678 19.4369 15.678V18.678ZM19.7628 18.7429C19.8662 18.7857 19.96 18.8485 20.0391 18.9276L22.1616 16.8075C21.8039 16.4494 21.3792 16.1654 20.9117 15.9716L19.7628 18.7429ZM20.0397 18.9282L20.1102 18.9988L22.2315 16.8774L22.161 16.8069L20.0397 18.9282ZM20.1219 19.0104C20.6133 19.491 21.2373 19.8134 21.9135 19.936L22.4487 16.9841C22.3623 16.9684 22.2825 16.9272 22.2197 16.8658L20.1219 19.0104ZM21.9135 19.936C22.5898 20.0586 23.2872 19.9758 23.916 19.6983L22.7047 16.9537C22.6243 16.9892 22.5352 16.9998 22.4487 16.9841L21.9135 19.936ZM23.3103 19.826H23.4044V16.826H23.3103V19.826ZM23.9953 19.7047C24.6119 19.4405 25.1377 19.0017 25.5081 18.4424L23.0069 16.786C22.9595 16.8574 22.8923 16.9135 22.8135 16.9473L23.9953 19.7047ZM25.5081 18.4424C25.8785 17.8831 26.0772 17.2277 26.0799 16.5569L23.0799 16.545C23.0796 16.6307 23.0542 16.7145 23.0069 16.786L25.5081 18.4424ZM26.0799 16.5509V16.3511H23.0799V16.5509H26.0799ZM26.0799 16.3511C26.0799 16.1254 26.1696 15.9089 26.3292 15.7493L24.2079 13.628C23.4857 14.3502 23.0799 15.3297 23.0799 16.3511H26.0799ZM26.3292 15.7493C26.4888 15.5897 26.7053 15.5 26.931 15.5V12.5C25.9097 12.5 24.9301 12.9057 24.2079 13.628L26.3292 15.7493ZM26.931 15.5C27.1568 15.5 27.3732 15.5897 27.5328 15.7493L29.6542 13.628C28.9319 12.9057 27.9524 12.5 26.931 12.5V15.5ZM27.5328 15.7493C27.6925 15.9089 27.7821 16.1254 27.7821 16.3511H30.7821C30.7821 15.3297 30.3764 14.3502 29.6542 13.628L27.5328 15.7493ZM27.7821 16.3511V16.4569H30.7821V16.3511H27.7821ZM27.7821 16.4629C27.7848 17.1337 27.9836 17.7891 28.354 18.3484L30.8552 16.6919C30.8079 16.6204 30.7825 16.5367 30.7821 16.4509L27.7821 16.4629ZM28.354 18.3484C28.7244 18.9076 29.2502 19.3464 29.8668 19.6107L31.0486 16.8533C30.9698 16.8195 30.9026 16.7634 30.8552 16.6919L28.354 18.3484ZM29.852 19.6043C30.4808 19.8818 31.1783 19.9645 31.8545 19.8419L31.3193 16.8901C31.2328 16.9057 31.1437 16.8952 31.0633 16.8597L29.852 19.6043ZM31.8545 19.8419C32.5308 19.7193 33.1548 19.3969 33.6461 18.9163L31.5483 16.7717C31.4855 16.8332 31.4057 16.8744 31.3193 16.8901L31.8545 19.8419ZM33.6578 18.9047L33.7284 18.8342L31.607 16.7129L31.5365 16.7834L33.6578 18.9047ZM33.729 18.8336C33.808 18.7545 33.9019 18.6917 34.0052 18.6488L32.8564 15.8775C32.3889 16.0713 31.9641 16.3554 31.6065 16.7134L33.729 18.8336ZM34.0052 18.6488C34.1085 18.606 34.2193 18.584 34.3311 18.584V15.584C33.825 15.584 33.3239 15.6837 32.8564 15.8775L34.0052 18.6488ZM34.3311 18.584C34.443 18.584 34.5537 18.606 34.657 18.6488L35.8059 15.8775C35.3383 15.6837 34.8372 15.584 34.3311 15.584V18.584ZM34.657 18.6488C34.7603 18.6917 34.8542 18.7544 34.9333 18.8336L37.0558 16.7134C36.6981 16.3554 36.2734 16.0713 35.8059 15.8775L34.657 18.6488ZM34.9344 18.8348C35.0136 18.9138 35.0764 19.0077 35.1192 19.111L37.8905 17.9622C37.6967 17.4947 37.4126 17.0699 37.0546 16.7123L34.9344 18.8348ZM35.1192 19.111C35.162 19.2143 35.1841 19.3251 35.1841 19.4369H38.1841C38.1841 18.9308 38.0843 18.4297 37.8905 17.9622L35.1192 19.111ZM35.1841 19.4369C35.1841 19.5488 35.162 19.6595 35.1192 19.7628L37.8905 20.9117C38.0843 20.4441 38.1841 19.943 38.1841 19.4369H35.1841ZM35.1192 19.7628C35.0764 19.8661 35.0136 19.96 34.9344 20.0391L37.0546 22.1616C37.4126 21.8039 37.6967 21.3792 37.8905 20.9117L35.1192 19.7628ZM34.9338 20.0397L34.8633 20.1102L36.9847 22.2315L37.0552 22.1609L34.9338 20.0397ZM34.8517 20.1219C34.3711 20.6133 34.0487 21.2373 33.9261 21.9135L36.878 22.4487C36.8936 22.3623 36.9348 22.2825 36.9963 22.2197L34.8517 20.1219ZM33.9261 21.9135C33.8035 22.5898 33.8863 23.2872 34.1638 23.916L36.9083 22.7047C36.8729 22.6243 36.8623 22.5352 36.878 22.4487L33.9261 21.9135ZM34.036 23.3103V23.4044H37.036V23.3103H34.036ZM34.1573 23.9953C34.4216 24.6119 34.8604 25.1377 35.4197 25.5081L37.0761 23.0069C37.0046 22.9595 36.9485 22.8923 36.9148 22.8135L34.1573 23.9953ZM35.4197 25.5081C35.9789 25.8785 36.6343 26.0772 37.3051 26.0799L37.3171 23.0799C37.2314 23.0796 37.1476 23.0542 37.0761 23.0069L35.4197 25.5081ZM37.3111 26.0799H37.511V23.0799H37.3111V26.0799ZM37.511 26.0799C37.7367 26.0799 37.9532 26.1696 38.1128 26.3292L40.2341 24.2079C39.5119 23.4857 38.5323 23.0799 37.511 23.0799V26.0799ZM38.1128 26.3292C38.2724 26.4888 38.3621 26.7053 38.3621 26.931H41.3621C41.3621 25.9097 40.9563 24.9301 40.2341 24.2079L38.1128 26.3292ZM38.3621 26.931C38.3621 27.1568 38.2724 27.3732 38.1128 27.5328L40.2341 29.6542C40.9563 28.932 41.3621 27.9524 41.3621 26.931H38.3621ZM38.1128 27.5328C37.9532 27.6925 37.7367 27.7821 37.511 27.7821V30.7821C38.5323 30.7821 39.5119 30.3764 40.2341 29.6542L38.1128 27.5328ZM37.511 27.7821H37.4052V30.7821H37.511V27.7821ZM37.3992 27.7821C36.7284 27.7848 36.073 27.9836 35.5137 28.354L37.1702 30.8552C37.2416 30.8079 37.3254 30.7825 37.4112 30.7821L37.3992 27.7821ZM35.5137 28.354C34.9544 28.7244 34.5156 29.2502 34.2514 29.8668L37.0088 31.0486C37.0426 30.9698 37.0987 30.9026 37.1702 30.8552L35.5137 28.354Z" fill="#FDBA74"/>
</svg>
