<svg width="54" height="54" viewBox="0 0 54 54" fill="none" xmlns="http://www.w3.org/2000/svg">
<path d="M16.5 27C16.5 26.1716 15.8284 25.5 15 25.5C14.1716 25.5 13.5 26.1716 13.5 27H16.5ZM15 39H13.5H15ZM40.5 27C40.5 26.1716 39.8284 25.5 39 25.5C38.1716 25.5 37.5 26.1716 37.5 27H40.5ZM31.9393 19.0607C32.5251 19.6464 33.4749 19.6464 34.0607 19.0607C34.6464 18.4749 34.6464 17.5251 34.0607 16.9393L31.9393 19.0607ZM27 12L28.0607 10.9393C27.4749 10.3536 26.5251 10.3536 25.9393 10.9393L27 12ZM19.9393 16.9393C19.3536 17.5251 19.3536 18.4749 19.9393 19.0607C20.5251 19.6464 21.4749 19.6464 22.0607 19.0607L19.9393 16.9393ZM25.5 31.5C25.5 32.3284 26.1716 33 27 33C27.8284 33 28.5 32.3284 28.5 31.5H25.5ZM8.25 3.5H45.75V0.5H8.25V3.5ZM50.5 8.25V45.75H53.5V8.25H50.5ZM45.75 50.5H8.25V53.5H45.75V50.5ZM3.5 45.75V8.25H0.5V45.75H3.5ZM8.25 50.5C5.62665 50.5 3.5 48.3734 3.5 45.75H0.5C0.5 50.0302 3.96979 53.5 8.25 53.5V50.5ZM50.5 45.75C50.5 48.3734 48.3734 50.5 45.75 50.5V53.5C50.0302 53.5 53.5 50.0302 53.5 45.75H50.5ZM45.75 3.5C48.3734 3.5 50.5 5.62665 50.5 8.25H53.5C53.5 3.96979 50.0302 0.5 45.75 0.5V3.5ZM8.25 0.5C3.96979 0.5 0.5 3.96979 0.5 8.25H3.5C3.5 5.62665 5.62665 3.5 8.25 3.5V0.5ZM13.5 27V39H16.5V27H13.5ZM13.5 39C13.5 40.1935 13.9741 41.3381 14.818 42.182L16.9393 40.0607C16.658 39.7794 16.5 39.3978 16.5 39H13.5ZM14.818 42.182C15.6619 43.0259 16.8065 43.5 18 43.5V40.5C17.6022 40.5 17.2206 40.342 16.9393 40.0607L14.818 42.182ZM18 43.5H36V40.5H18V43.5ZM36 43.5C37.1935 43.5 38.3381 43.0259 39.182 42.182L37.0607 40.0607C36.7794 40.342 36.3978 40.5 36 40.5V43.5ZM39.182 42.182C40.0259 41.3381 40.5 40.1935 40.5 39H37.5C37.5 39.3978 37.342 39.7794 37.0607 40.0607L39.182 42.182ZM40.5 39V27H37.5V39H40.5ZM34.0607 16.9393L28.0607 10.9393L25.9393 13.0607L31.9393 19.0607L34.0607 16.9393ZM25.9393 10.9393L19.9393 16.9393L22.0607 19.0607L28.0607 13.0607L25.9393 10.9393ZM25.5 12V31.5H28.5V12H25.5Z" fill="#C5C5C5"/>
</svg>
