<svg width="231" height="42" viewBox="0 0 231 42" fill="none" xmlns="http://www.w3.org/2000/svg">
<mask id="path-1-outside-1_1_951" maskUnits="userSpaceOnUse" x="0" y="0" width="231" height="42" fill="black">
<rect fill="white" width="231" height="42"/>
<path d="M3 13C3 7.47715 7.47715 3 13 3H218C223.523 3 228 7.47715 228 13V29C228 34.5228 223.523 39 218 39H13C7.47715 39 3 34.5228 3 29V13Z"/>
<path d="M15.8336 15.7891V13H28.9743V15.7891H24.0758V29H20.7321V15.7891H15.8336Z"/>
<path d="M30.1597 29V17H33.3863V19.0938H33.5113C33.73 18.349 34.0972 17.7865 34.6129 17.4062C35.1285 17.0208 35.7222 16.8281 36.3941 16.8281C36.5608 16.8281 36.7405 16.8385 36.9332 16.8594C37.1259 16.8802 37.2951 16.9089 37.441 16.9453V19.8984C37.2847 19.8516 37.0686 19.8099 36.7925 19.7734C36.5165 19.737 36.2639 19.7188 36.0347 19.7188C35.5451 19.7188 35.1076 19.8255 34.7222 20.0391C34.342 20.2474 34.0399 20.5391 33.816 20.9141C33.5972 21.2891 33.4879 21.7214 33.4879 22.2109V29H30.1597Z"/>
<path d="M47.187 23.8906V17H50.5151V29H47.3198V26.8203H47.1948C46.924 27.5234 46.4735 28.0885 45.8432 28.5156C45.2182 28.9427 44.4552 29.1562 43.5542 29.1562C42.7521 29.1562 42.0464 28.974 41.437 28.6094C40.8276 28.2448 40.3511 27.7266 40.0073 27.0547C39.6688 26.3828 39.4969 25.5781 39.4917 24.6406V17H42.8198V24.0469C42.825 24.7552 43.0151 25.3151 43.3901 25.7266C43.7651 26.138 44.2677 26.3438 44.8979 26.3438C45.299 26.3438 45.674 26.2526 46.0229 26.0703C46.3719 25.8828 46.6531 25.6068 46.8667 25.2422C47.0854 24.8776 47.1922 24.4271 47.187 23.8906Z"/>
<path d="M59.89 17V19.5H52.6635V17H59.89ZM54.3041 14.125H57.6322V25.3125C57.6322 25.6198 57.6791 25.8594 57.7729 26.0312C57.8666 26.1979 57.9968 26.3151 58.1635 26.3828C58.3354 26.4505 58.5333 26.4844 58.7572 26.4844C58.9135 26.4844 59.0697 26.4714 59.226 26.4453C59.3822 26.4141 59.502 26.3906 59.5854 26.375L60.1088 28.8516C59.9421 28.9036 59.7077 28.9635 59.4057 29.0312C59.1036 29.1042 58.7364 29.1484 58.3041 29.1641C57.502 29.1953 56.7989 29.0885 56.1947 28.8438C55.5958 28.599 55.1296 28.2188 54.7963 27.7031C54.463 27.1875 54.2989 26.5365 54.3041 25.75V14.125Z"/>
<path d="M65.9739 22.0625V29H62.6458V13H65.8802V19.1172H66.0208C66.2917 18.4089 66.7292 17.8542 67.3333 17.4531C67.9375 17.0469 68.6953 16.8438 69.6068 16.8438C70.4401 16.8438 71.1667 17.026 71.7864 17.3906C72.4114 17.75 72.8958 18.2682 73.2396 18.9453C73.5885 19.6172 73.7604 20.4219 73.7552 21.3594V29H70.4271V21.9531C70.4323 21.2135 70.2448 20.638 69.8646 20.2266C69.4896 19.8151 68.9635 19.6094 68.2864 19.6094C67.8333 19.6094 67.4323 19.7057 67.0833 19.8984C66.7396 20.0911 66.4687 20.3724 66.2708 20.7422C66.0781 21.1068 65.9792 21.5469 65.9739 22.0625Z"/>
<path d="M82.1886 13H86.3605L90.7668 23.75H90.9543L95.3605 13H99.5324V29H96.2511V18.5859H96.1183L91.9777 28.9219H89.7433L85.6027 18.5469H85.4699V29H82.1886V13Z"/>
<path d="M106.009 29.2266C105.243 29.2266 104.561 29.0938 103.962 28.8281C103.363 28.5573 102.889 28.1589 102.54 27.6328C102.196 27.1016 102.024 26.4401 102.024 25.6484C102.024 24.9818 102.147 24.4219 102.392 23.9688C102.636 23.5156 102.97 23.151 103.392 22.875C103.814 22.599 104.293 22.3906 104.829 22.25C105.371 22.1094 105.939 22.0104 106.532 21.9531C107.23 21.8802 107.793 21.8125 108.22 21.75C108.647 21.6823 108.957 21.5833 109.149 21.4531C109.342 21.3229 109.439 21.1302 109.439 20.875V20.8281C109.439 20.3333 109.282 19.9505 108.97 19.6797C108.663 19.4089 108.225 19.2734 107.657 19.2734C107.058 19.2734 106.582 19.4062 106.228 19.6719C105.873 19.9323 105.639 20.2604 105.524 20.6562L102.446 20.4062C102.603 19.6771 102.91 19.0469 103.368 18.5156C103.827 17.9792 104.418 17.5677 105.142 17.2812C105.871 16.9896 106.715 16.8438 107.673 16.8438C108.34 16.8438 108.978 16.9219 109.587 17.0781C110.202 17.2344 110.746 17.4766 111.22 17.8047C111.699 18.1328 112.077 18.5547 112.353 19.0703C112.629 19.5807 112.767 20.1927 112.767 20.9062V29H109.61V27.3359H109.517C109.324 27.7109 109.066 28.0417 108.743 28.3281C108.42 28.6094 108.032 28.8307 107.579 28.9922C107.126 29.1484 106.603 29.2266 106.009 29.2266ZM106.962 26.9297C107.452 26.9297 107.884 26.8333 108.259 26.6406C108.634 26.4427 108.928 26.1771 109.142 25.8438C109.355 25.5104 109.462 25.1328 109.462 24.7109V23.4375C109.358 23.5052 109.215 23.5677 109.032 23.625C108.855 23.6771 108.655 23.7266 108.431 23.7734C108.207 23.8151 107.983 23.8542 107.759 23.8906C107.535 23.9219 107.332 23.9505 107.149 23.9766C106.759 24.0339 106.418 24.125 106.126 24.25C105.834 24.375 105.608 24.5443 105.446 24.7578C105.285 24.9661 105.204 25.2266 105.204 25.5391C105.204 25.9922 105.368 26.3385 105.696 26.5781C106.03 26.8125 106.452 26.9297 106.962 26.9297Z"/>
<path d="M120.101 29.1953C119.189 29.1953 118.364 28.9609 117.624 28.4922C116.89 28.0182 116.306 27.3229 115.874 26.4062C115.447 25.4844 115.233 24.3542 115.233 23.0156C115.233 21.6406 115.455 20.4974 115.897 19.5859C116.34 18.6693 116.929 17.9844 117.663 17.5312C118.403 17.0729 119.213 16.8438 120.093 16.8438C120.765 16.8438 121.325 16.9583 121.772 17.1875C122.226 17.4115 122.59 17.6927 122.866 18.0312C123.147 18.3646 123.361 18.6927 123.507 19.0156H123.608V13H126.929V29H123.647V27.0781H123.507C123.351 27.4115 123.129 27.7422 122.843 28.0703C122.562 28.3932 122.194 28.6615 121.741 28.875C121.293 29.0885 120.746 29.1953 120.101 29.1953ZM121.155 26.5469C121.692 26.5469 122.145 26.401 122.515 26.1094C122.89 25.8125 123.176 25.3984 123.374 24.8672C123.577 24.3359 123.679 23.7135 123.679 23C123.679 22.2865 123.58 21.6667 123.382 21.1406C123.184 20.6146 122.897 20.2083 122.522 19.9219C122.147 19.6354 121.692 19.4922 121.155 19.4922C120.608 19.4922 120.147 19.6406 119.772 19.9375C119.397 20.2344 119.114 20.6458 118.921 21.1719C118.728 21.6979 118.632 22.3073 118.632 23C118.632 23.6979 118.728 24.3151 118.921 24.8516C119.119 25.3828 119.403 25.7995 119.772 26.1016C120.147 26.3984 120.608 26.5469 121.155 26.5469Z"/>
<path d="M135.464 29.2344C134.229 29.2344 133.167 28.9844 132.276 28.4844C131.391 27.9792 130.709 27.2656 130.229 26.3438C129.75 25.4167 129.511 24.3203 129.511 23.0547C129.511 21.8203 129.75 20.737 130.229 19.8047C130.709 18.8724 131.383 18.1458 132.253 17.625C133.128 17.1042 134.154 16.8438 135.331 16.8438C136.123 16.8438 136.86 16.9714 137.542 17.2266C138.229 17.4766 138.828 17.8542 139.339 18.3594C139.854 18.8646 140.255 19.5 140.542 20.2656C140.828 21.026 140.972 21.9167 140.972 22.9375V23.8516H130.839V21.7891H137.839C137.839 21.3099 137.735 20.8854 137.526 20.5156C137.318 20.1458 137.029 19.8568 136.659 19.6484C136.295 19.4349 135.87 19.3281 135.386 19.3281C134.88 19.3281 134.433 19.4453 134.042 19.6797C133.656 19.9089 133.354 20.2187 133.136 20.6094C132.917 20.9948 132.805 21.4245 132.8 21.8984V23.8594C132.8 24.4531 132.909 24.9661 133.128 25.3984C133.352 25.8307 133.667 26.1641 134.073 26.3984C134.479 26.6328 134.961 26.75 135.518 26.75C135.888 26.75 136.227 26.6979 136.534 26.5938C136.841 26.4896 137.104 26.3333 137.323 26.125C137.542 25.9167 137.709 25.6615 137.823 25.3594L140.901 25.5625C140.745 26.3021 140.425 26.9479 139.94 27.5C139.461 28.0469 138.841 28.474 138.081 28.7812C137.326 29.0833 136.453 29.2344 135.464 29.2344Z"/>
<path d="M148.958 29V13H159.739V15.7891H152.341V19.6016H159.184V22.3906H152.341V26.2109H159.77V29H148.958Z"/>
<path d="M166.118 29.2266C165.352 29.2266 164.67 29.0938 164.071 28.8281C163.472 28.5573 162.998 28.1589 162.649 27.6328C162.305 27.1016 162.133 26.4401 162.133 25.6484C162.133 24.9818 162.256 24.4219 162.501 23.9688C162.745 23.5156 163.079 23.151 163.501 22.875C163.923 22.599 164.402 22.3906 164.938 22.25C165.48 22.1094 166.048 22.0104 166.641 21.9531C167.339 21.8802 167.902 21.8125 168.329 21.75C168.756 21.6823 169.066 21.5833 169.258 21.4531C169.451 21.3229 169.548 21.1302 169.548 20.875V20.8281C169.548 20.3333 169.391 19.9505 169.079 19.6797C168.772 19.4089 168.334 19.2734 167.766 19.2734C167.167 19.2734 166.691 19.4062 166.337 19.6719C165.982 19.9323 165.748 20.2604 165.633 20.6562L162.555 20.4062C162.712 19.6771 163.019 19.0469 163.477 18.5156C163.936 17.9792 164.527 17.5677 165.251 17.2812C165.98 16.9896 166.824 16.8438 167.782 16.8438C168.449 16.8438 169.087 16.9219 169.696 17.0781C170.311 17.2344 170.855 17.4766 171.329 17.8047C171.808 18.1328 172.186 18.5547 172.462 19.0703C172.738 19.5807 172.876 20.1927 172.876 20.9062V29H169.719V27.3359H169.626C169.433 27.7109 169.175 28.0417 168.852 28.3281C168.529 28.6094 168.141 28.8307 167.688 28.9922C167.235 29.1484 166.712 29.2266 166.118 29.2266ZM167.071 26.9297C167.561 26.9297 167.993 26.8333 168.368 26.6406C168.743 26.4427 169.037 26.1771 169.251 25.8438C169.464 25.5104 169.571 25.1328 169.571 24.7109V23.4375C169.467 23.5052 169.324 23.5677 169.141 23.625C168.964 23.6771 168.764 23.7266 168.54 23.7734C168.316 23.8151 168.092 23.8542 167.868 23.8906C167.644 23.9219 167.441 23.9505 167.258 23.9766C166.868 24.0339 166.527 24.125 166.235 24.25C165.943 24.375 165.717 24.5443 165.555 24.7578C165.394 24.9661 165.313 25.2266 165.313 25.5391C165.313 25.9922 165.477 26.3385 165.805 26.5781C166.139 26.8125 166.561 26.9297 167.071 26.9297Z"/>
<path d="M185.772 20.4219L182.725 20.6094C182.673 20.349 182.561 20.1146 182.389 19.9062C182.217 19.6927 181.991 19.5234 181.71 19.3984C181.434 19.2682 181.103 19.2031 180.717 19.2031C180.202 19.2031 179.767 19.3125 179.413 19.5312C179.059 19.7448 178.881 20.0312 178.881 20.3906C178.881 20.6771 178.996 20.9193 179.225 21.1172C179.454 21.3151 179.848 21.474 180.405 21.5938L182.577 22.0312C183.743 22.2708 184.613 22.6562 185.186 23.1875C185.759 23.7188 186.046 24.4167 186.046 25.2812C186.046 26.0677 185.814 26.7578 185.35 27.3516C184.892 27.9453 184.262 28.4089 183.46 28.7422C182.663 29.0703 181.743 29.2344 180.702 29.2344C179.113 29.2344 177.848 28.9036 176.905 28.2422C175.967 27.5755 175.418 26.6693 175.256 25.5234L178.53 25.3516C178.629 25.8359 178.868 26.2057 179.249 26.4609C179.629 26.7109 180.116 26.8359 180.71 26.8359C181.293 26.8359 181.762 26.724 182.116 26.5C182.475 26.2708 182.657 25.9766 182.663 25.6172C182.657 25.3151 182.53 25.0677 182.28 24.875C182.03 24.6771 181.644 24.526 181.124 24.4219L179.046 24.0078C177.874 23.7734 177.001 23.3672 176.428 22.7891C175.861 22.2109 175.577 21.474 175.577 20.5781C175.577 19.8073 175.785 19.1432 176.202 18.5859C176.624 18.0286 177.215 17.599 177.975 17.2969C178.741 16.9948 179.637 16.8438 180.663 16.8438C182.178 16.8438 183.371 17.1641 184.241 17.8047C185.116 18.4453 185.626 19.3177 185.772 20.4219Z"/>
<path d="M188.471 29V17H191.799V29H188.471ZM190.143 15.4531C189.648 15.4531 189.224 15.2891 188.87 14.9609C188.521 14.6276 188.346 14.2292 188.346 13.7656C188.346 13.3073 188.521 12.9141 188.87 12.5859C189.224 12.2526 189.648 12.0859 190.143 12.0859C190.638 12.0859 191.06 12.2526 191.409 12.5859C191.763 12.9141 191.94 13.3073 191.94 13.7656C191.94 14.2292 191.763 14.6276 191.409 14.9609C191.06 15.2891 190.638 15.4531 190.143 15.4531Z"/>
<path d="M200.264 29.2344C199.03 29.2344 197.967 28.9844 197.077 28.4844C196.191 27.9792 195.509 27.2656 195.03 26.3438C194.551 25.4167 194.311 24.3203 194.311 23.0547C194.311 21.8203 194.551 20.737 195.03 19.8047C195.509 18.8724 196.183 18.1458 197.053 17.625C197.928 17.1042 198.954 16.8438 200.131 16.8438C200.923 16.8438 201.66 16.9714 202.342 17.2266C203.03 17.4766 203.629 17.8542 204.139 18.3594C204.655 18.8646 205.056 19.5 205.342 20.2656C205.629 21.026 205.772 21.9167 205.772 22.9375V23.8516H195.639V21.7891H202.639C202.639 21.3099 202.535 20.8854 202.327 20.5156C202.118 20.1458 201.829 19.8568 201.459 19.6484C201.095 19.4349 200.67 19.3281 200.186 19.3281C199.681 19.3281 199.233 19.4453 198.842 19.6797C198.457 19.9089 198.155 20.2187 197.936 20.6094C197.717 20.9948 197.605 21.4245 197.6 21.8984V23.8594C197.6 24.4531 197.709 24.9661 197.928 25.3984C198.152 25.8307 198.467 26.1641 198.873 26.3984C199.28 26.6328 199.761 26.75 200.319 26.75C200.689 26.75 201.027 26.6979 201.334 26.5938C201.642 26.4896 201.905 26.3333 202.123 26.125C202.342 25.9167 202.509 25.6615 202.623 25.3594L205.702 25.5625C205.545 26.3021 205.225 26.9479 204.741 27.5C204.261 28.0469 203.642 28.474 202.881 28.7812C202.126 29.0833 201.254 29.2344 200.264 29.2344Z"/>
<path d="M208.274 29V17H211.5V19.0938H211.625C211.844 18.349 212.211 17.7865 212.727 17.4062C213.243 17.0208 213.836 16.8281 214.508 16.8281C214.675 16.8281 214.855 16.8385 215.047 16.8594C215.24 16.8802 215.409 16.9089 215.555 16.9453V19.8984C215.399 19.8516 215.183 19.8099 214.907 19.7734C214.631 19.737 214.378 19.7188 214.149 19.7188C213.659 19.7188 213.222 19.8255 212.836 20.0391C212.456 20.2474 212.154 20.5391 211.93 20.9141C211.711 21.2891 211.602 21.7214 211.602 22.2109V29H208.274Z"/>
</mask>
<path d="M3 13C3 7.47715 7.47715 3 13 3H218C223.523 3 228 7.47715 228 13V29C228 34.5228 223.523 39 218 39H13C7.47715 39 3 34.5228 3 29V13Z" fill="#202020"/>
<path d="M15.8336 15.7891V13H28.9743V15.7891H24.0758V29H20.7321V15.7891H15.8336Z" fill="#FDBA74"/>
<path d="M30.1597 29V17H33.3863V19.0938H33.5113C33.73 18.349 34.0972 17.7865 34.6129 17.4062C35.1285 17.0208 35.7222 16.8281 36.3941 16.8281C36.5608 16.8281 36.7405 16.8385 36.9332 16.8594C37.1259 16.8802 37.2951 16.9089 37.441 16.9453V19.8984C37.2847 19.8516 37.0686 19.8099 36.7925 19.7734C36.5165 19.737 36.2639 19.7188 36.0347 19.7188C35.5451 19.7188 35.1076 19.8255 34.7222 20.0391C34.342 20.2474 34.0399 20.5391 33.816 20.9141C33.5972 21.2891 33.4879 21.7214 33.4879 22.2109V29H30.1597Z" fill="#FDBA74"/>
<path d="M47.187 23.8906V17H50.5151V29H47.3198V26.8203H47.1948C46.924 27.5234 46.4735 28.0885 45.8432 28.5156C45.2182 28.9427 44.4552 29.1562 43.5542 29.1562C42.7521 29.1562 42.0464 28.974 41.437 28.6094C40.8276 28.2448 40.3511 27.7266 40.0073 27.0547C39.6688 26.3828 39.4969 25.5781 39.4917 24.6406V17H42.8198V24.0469C42.825 24.7552 43.0151 25.3151 43.3901 25.7266C43.7651 26.138 44.2677 26.3438 44.8979 26.3438C45.299 26.3438 45.674 26.2526 46.0229 26.0703C46.3719 25.8828 46.6531 25.6068 46.8667 25.2422C47.0854 24.8776 47.1922 24.4271 47.187 23.8906Z" fill="#FDBA74"/>
<path d="M59.89 17V19.5H52.6635V17H59.89ZM54.3041 14.125H57.6322V25.3125C57.6322 25.6198 57.6791 25.8594 57.7729 26.0312C57.8666 26.1979 57.9968 26.3151 58.1635 26.3828C58.3354 26.4505 58.5333 26.4844 58.7572 26.4844C58.9135 26.4844 59.0697 26.4714 59.226 26.4453C59.3822 26.4141 59.502 26.3906 59.5854 26.375L60.1088 28.8516C59.9421 28.9036 59.7077 28.9635 59.4057 29.0312C59.1036 29.1042 58.7364 29.1484 58.3041 29.1641C57.502 29.1953 56.7989 29.0885 56.1947 28.8438C55.5958 28.599 55.1296 28.2188 54.7963 27.7031C54.463 27.1875 54.2989 26.5365 54.3041 25.75V14.125Z" fill="#FDBA74"/>
<path d="M65.9739 22.0625V29H62.6458V13H65.8802V19.1172H66.0208C66.2917 18.4089 66.7292 17.8542 67.3333 17.4531C67.9375 17.0469 68.6953 16.8438 69.6068 16.8438C70.4401 16.8438 71.1667 17.026 71.7864 17.3906C72.4114 17.75 72.8958 18.2682 73.2396 18.9453C73.5885 19.6172 73.7604 20.4219 73.7552 21.3594V29H70.4271V21.9531C70.4323 21.2135 70.2448 20.638 69.8646 20.2266C69.4896 19.8151 68.9635 19.6094 68.2864 19.6094C67.8333 19.6094 67.4323 19.7057 67.0833 19.8984C66.7396 20.0911 66.4687 20.3724 66.2708 20.7422C66.0781 21.1068 65.9792 21.5469 65.9739 22.0625Z" fill="#FDBA74"/>
<path d="M82.1886 13H86.3605L90.7668 23.75H90.9543L95.3605 13H99.5324V29H96.2511V18.5859H96.1183L91.9777 28.9219H89.7433L85.6027 18.5469H85.4699V29H82.1886V13Z" fill="#FDBA74"/>
<path d="M106.009 29.2266C105.243 29.2266 104.561 29.0938 103.962 28.8281C103.363 28.5573 102.889 28.1589 102.54 27.6328C102.196 27.1016 102.024 26.4401 102.024 25.6484C102.024 24.9818 102.147 24.4219 102.392 23.9688C102.636 23.5156 102.97 23.151 103.392 22.875C103.814 22.599 104.293 22.3906 104.829 22.25C105.371 22.1094 105.939 22.0104 106.532 21.9531C107.23 21.8802 107.793 21.8125 108.22 21.75C108.647 21.6823 108.957 21.5833 109.149 21.4531C109.342 21.3229 109.439 21.1302 109.439 20.875V20.8281C109.439 20.3333 109.282 19.9505 108.97 19.6797C108.663 19.4089 108.225 19.2734 107.657 19.2734C107.058 19.2734 106.582 19.4062 106.228 19.6719C105.873 19.9323 105.639 20.2604 105.524 20.6562L102.446 20.4062C102.603 19.6771 102.91 19.0469 103.368 18.5156C103.827 17.9792 104.418 17.5677 105.142 17.2812C105.871 16.9896 106.715 16.8438 107.673 16.8438C108.34 16.8438 108.978 16.9219 109.587 17.0781C110.202 17.2344 110.746 17.4766 111.22 17.8047C111.699 18.1328 112.077 18.5547 112.353 19.0703C112.629 19.5807 112.767 20.1927 112.767 20.9062V29H109.61V27.3359H109.517C109.324 27.7109 109.066 28.0417 108.743 28.3281C108.42 28.6094 108.032 28.8307 107.579 28.9922C107.126 29.1484 106.603 29.2266 106.009 29.2266ZM106.962 26.9297C107.452 26.9297 107.884 26.8333 108.259 26.6406C108.634 26.4427 108.928 26.1771 109.142 25.8438C109.355 25.5104 109.462 25.1328 109.462 24.7109V23.4375C109.358 23.5052 109.215 23.5677 109.032 23.625C108.855 23.6771 108.655 23.7266 108.431 23.7734C108.207 23.8151 107.983 23.8542 107.759 23.8906C107.535 23.9219 107.332 23.9505 107.149 23.9766C106.759 24.0339 106.418 24.125 106.126 24.25C105.834 24.375 105.608 24.5443 105.446 24.7578C105.285 24.9661 105.204 25.2266 105.204 25.5391C105.204 25.9922 105.368 26.3385 105.696 26.5781C106.03 26.8125 106.452 26.9297 106.962 26.9297Z" fill="#FDBA74"/>
<path d="M120.101 29.1953C119.189 29.1953 118.364 28.9609 117.624 28.4922C116.89 28.0182 116.306 27.3229 115.874 26.4062C115.447 25.4844 115.233 24.3542 115.233 23.0156C115.233 21.6406 115.455 20.4974 115.897 19.5859C116.34 18.6693 116.929 17.9844 117.663 17.5312C118.403 17.0729 119.213 16.8438 120.093 16.8438C120.765 16.8438 121.325 16.9583 121.772 17.1875C122.226 17.4115 122.59 17.6927 122.866 18.0312C123.147 18.3646 123.361 18.6927 123.507 19.0156H123.608V13H126.929V29H123.647V27.0781H123.507C123.351 27.4115 123.129 27.7422 122.843 28.0703C122.562 28.3932 122.194 28.6615 121.741 28.875C121.293 29.0885 120.746 29.1953 120.101 29.1953ZM121.155 26.5469C121.692 26.5469 122.145 26.401 122.515 26.1094C122.89 25.8125 123.176 25.3984 123.374 24.8672C123.577 24.3359 123.679 23.7135 123.679 23C123.679 22.2865 123.58 21.6667 123.382 21.1406C123.184 20.6146 122.897 20.2083 122.522 19.9219C122.147 19.6354 121.692 19.4922 121.155 19.4922C120.608 19.4922 120.147 19.6406 119.772 19.9375C119.397 20.2344 119.114 20.6458 118.921 21.1719C118.728 21.6979 118.632 22.3073 118.632 23C118.632 23.6979 118.728 24.3151 118.921 24.8516C119.119 25.3828 119.403 25.7995 119.772 26.1016C120.147 26.3984 120.608 26.5469 121.155 26.5469Z" fill="#FDBA74"/>
<path d="M135.464 29.2344C134.229 29.2344 133.167 28.9844 132.276 28.4844C131.391 27.9792 130.709 27.2656 130.229 26.3438C129.75 25.4167 129.511 24.3203 129.511 23.0547C129.511 21.8203 129.75 20.737 130.229 19.8047C130.709 18.8724 131.383 18.1458 132.253 17.625C133.128 17.1042 134.154 16.8438 135.331 16.8438C136.123 16.8438 136.86 16.9714 137.542 17.2266C138.229 17.4766 138.828 17.8542 139.339 18.3594C139.854 18.8646 140.255 19.5 140.542 20.2656C140.828 21.026 140.972 21.9167 140.972 22.9375V23.8516H130.839V21.7891H137.839C137.839 21.3099 137.735 20.8854 137.526 20.5156C137.318 20.1458 137.029 19.8568 136.659 19.6484C136.295 19.4349 135.87 19.3281 135.386 19.3281C134.88 19.3281 134.433 19.4453 134.042 19.6797C133.656 19.9089 133.354 20.2187 133.136 20.6094C132.917 20.9948 132.805 21.4245 132.8 21.8984V23.8594C132.8 24.4531 132.909 24.9661 133.128 25.3984C133.352 25.8307 133.667 26.1641 134.073 26.3984C134.479 26.6328 134.961 26.75 135.518 26.75C135.888 26.75 136.227 26.6979 136.534 26.5938C136.841 26.4896 137.104 26.3333 137.323 26.125C137.542 25.9167 137.709 25.6615 137.823 25.3594L140.901 25.5625C140.745 26.3021 140.425 26.9479 139.94 27.5C139.461 28.0469 138.841 28.474 138.081 28.7812C137.326 29.0833 136.453 29.2344 135.464 29.2344Z" fill="#FDBA74"/>
<path d="M148.958 29V13H159.739V15.7891H152.341V19.6016H159.184V22.3906H152.341V26.2109H159.77V29H148.958Z" fill="#FDBA74"/>
<path d="M166.118 29.2266C165.352 29.2266 164.67 29.0938 164.071 28.8281C163.472 28.5573 162.998 28.1589 162.649 27.6328C162.305 27.1016 162.133 26.4401 162.133 25.6484C162.133 24.9818 162.256 24.4219 162.501 23.9688C162.745 23.5156 163.079 23.151 163.501 22.875C163.923 22.599 164.402 22.3906 164.938 22.25C165.48 22.1094 166.048 22.0104 166.641 21.9531C167.339 21.8802 167.902 21.8125 168.329 21.75C168.756 21.6823 169.066 21.5833 169.258 21.4531C169.451 21.3229 169.548 21.1302 169.548 20.875V20.8281C169.548 20.3333 169.391 19.9505 169.079 19.6797C168.772 19.4089 168.334 19.2734 167.766 19.2734C167.167 19.2734 166.691 19.4062 166.337 19.6719C165.982 19.9323 165.748 20.2604 165.633 20.6562L162.555 20.4062C162.712 19.6771 163.019 19.0469 163.477 18.5156C163.936 17.9792 164.527 17.5677 165.251 17.2812C165.98 16.9896 166.824 16.8438 167.782 16.8438C168.449 16.8438 169.087 16.9219 169.696 17.0781C170.311 17.2344 170.855 17.4766 171.329 17.8047C171.808 18.1328 172.186 18.5547 172.462 19.0703C172.738 19.5807 172.876 20.1927 172.876 20.9062V29H169.719V27.3359H169.626C169.433 27.7109 169.175 28.0417 168.852 28.3281C168.529 28.6094 168.141 28.8307 167.688 28.9922C167.235 29.1484 166.712 29.2266 166.118 29.2266ZM167.071 26.9297C167.561 26.9297 167.993 26.8333 168.368 26.6406C168.743 26.4427 169.037 26.1771 169.251 25.8438C169.464 25.5104 169.571 25.1328 169.571 24.7109V23.4375C169.467 23.5052 169.324 23.5677 169.141 23.625C168.964 23.6771 168.764 23.7266 168.54 23.7734C168.316 23.8151 168.092 23.8542 167.868 23.8906C167.644 23.9219 167.441 23.9505 167.258 23.9766C166.868 24.0339 166.527 24.125 166.235 24.25C165.943 24.375 165.717 24.5443 165.555 24.7578C165.394 24.9661 165.313 25.2266 165.313 25.5391C165.313 25.9922 165.477 26.3385 165.805 26.5781C166.139 26.8125 166.561 26.9297 167.071 26.9297Z" fill="#FDBA74"/>
<path d="M185.772 20.4219L182.725 20.6094C182.673 20.349 182.561 20.1146 182.389 19.9062C182.217 19.6927 181.991 19.5234 181.71 19.3984C181.434 19.2682 181.103 19.2031 180.717 19.2031C180.202 19.2031 179.767 19.3125 179.413 19.5312C179.059 19.7448 178.881 20.0312 178.881 20.3906C178.881 20.6771 178.996 20.9193 179.225 21.1172C179.454 21.3151 179.848 21.474 180.405 21.5938L182.577 22.0312C183.743 22.2708 184.613 22.6562 185.186 23.1875C185.759 23.7188 186.046 24.4167 186.046 25.2812C186.046 26.0677 185.814 26.7578 185.35 27.3516C184.892 27.9453 184.262 28.4089 183.46 28.7422C182.663 29.0703 181.743 29.2344 180.702 29.2344C179.113 29.2344 177.848 28.9036 176.905 28.2422C175.967 27.5755 175.418 26.6693 175.256 25.5234L178.53 25.3516C178.629 25.8359 178.868 26.2057 179.249 26.4609C179.629 26.7109 180.116 26.8359 180.71 26.8359C181.293 26.8359 181.762 26.724 182.116 26.5C182.475 26.2708 182.657 25.9766 182.663 25.6172C182.657 25.3151 182.53 25.0677 182.28 24.875C182.03 24.6771 181.644 24.526 181.124 24.4219L179.046 24.0078C177.874 23.7734 177.001 23.3672 176.428 22.7891C175.861 22.2109 175.577 21.474 175.577 20.5781C175.577 19.8073 175.785 19.1432 176.202 18.5859C176.624 18.0286 177.215 17.599 177.975 17.2969C178.741 16.9948 179.637 16.8438 180.663 16.8438C182.178 16.8438 183.371 17.1641 184.241 17.8047C185.116 18.4453 185.626 19.3177 185.772 20.4219Z" fill="#FDBA74"/>
<path d="M188.471 29V17H191.799V29H188.471ZM190.143 15.4531C189.648 15.4531 189.224 15.2891 188.87 14.9609C188.521 14.6276 188.346 14.2292 188.346 13.7656C188.346 13.3073 188.521 12.9141 188.87 12.5859C189.224 12.2526 189.648 12.0859 190.143 12.0859C190.638 12.0859 191.06 12.2526 191.409 12.5859C191.763 12.9141 191.94 13.3073 191.94 13.7656C191.94 14.2292 191.763 14.6276 191.409 14.9609C191.06 15.2891 190.638 15.4531 190.143 15.4531Z" fill="#FDBA74"/>
<path d="M200.264 29.2344C199.03 29.2344 197.967 28.9844 197.077 28.4844C196.191 27.9792 195.509 27.2656 195.03 26.3438C194.551 25.4167 194.311 24.3203 194.311 23.0547C194.311 21.8203 194.551 20.737 195.03 19.8047C195.509 18.8724 196.183 18.1458 197.053 17.625C197.928 17.1042 198.954 16.8438 200.131 16.8438C200.923 16.8438 201.66 16.9714 202.342 17.2266C203.03 17.4766 203.629 17.8542 204.139 18.3594C204.655 18.8646 205.056 19.5 205.342 20.2656C205.629 21.026 205.772 21.9167 205.772 22.9375V23.8516H195.639V21.7891H202.639C202.639 21.3099 202.535 20.8854 202.327 20.5156C202.118 20.1458 201.829 19.8568 201.459 19.6484C201.095 19.4349 200.67 19.3281 200.186 19.3281C199.681 19.3281 199.233 19.4453 198.842 19.6797C198.457 19.9089 198.155 20.2187 197.936 20.6094C197.717 20.9948 197.605 21.4245 197.6 21.8984V23.8594C197.6 24.4531 197.709 24.9661 197.928 25.3984C198.152 25.8307 198.467 26.1641 198.873 26.3984C199.28 26.6328 199.761 26.75 200.319 26.75C200.689 26.75 201.027 26.6979 201.334 26.5938C201.642 26.4896 201.905 26.3333 202.123 26.125C202.342 25.9167 202.509 25.6615 202.623 25.3594L205.702 25.5625C205.545 26.3021 205.225 26.9479 204.741 27.5C204.261 28.0469 203.642 28.474 202.881 28.7812C202.126 29.0833 201.254 29.2344 200.264 29.2344Z" fill="#FDBA74"/>
<path d="M208.274 29V17H211.5V19.0938H211.625C211.844 18.349 212.211 17.7865 212.727 17.4062C213.243 17.0208 213.836 16.8281 214.508 16.8281C214.675 16.8281 214.855 16.8385 215.047 16.8594C215.24 16.8802 215.409 16.9089 215.555 16.9453V19.8984C215.399 19.8516 215.183 19.8099 214.907 19.7734C214.631 19.737 214.378 19.7188 214.149 19.7188C213.659 19.7188 213.222 19.8255 212.836 20.0391C212.456 20.2474 212.154 20.5391 211.93 20.9141C211.711 21.2891 211.602 21.7214 211.602 22.2109V29H208.274Z" fill="#FDBA74"/>
<path d="M15.8336 15.7891H12.8336V18.7891H15.8336V15.7891ZM15.8336 13V10H12.8336V13H15.8336ZM28.9743 13H31.9743V10H28.9743V13ZM28.9743 15.7891V18.7891H31.9743V15.7891H28.9743ZM24.0758 15.7891V12.7891H21.0758V15.7891H24.0758ZM24.0758 29V32H27.0758V29H24.0758ZM20.7321 29H17.7321V32H20.7321V29ZM20.7321 15.7891H23.7321V12.7891H20.7321V15.7891ZM30.1597 29H27.1597V32H30.1597V29ZM30.1597 17V14H27.1597V17H30.1597ZM33.3863 17H36.3863V14H33.3863V17ZM33.3863 19.0938H30.3863V22.0938H33.3863V19.0938ZM33.5113 19.0938V22.0938H35.7569L36.3897 19.9392L33.5113 19.0938ZM34.6129 17.4062L36.3933 19.8208L36.4011 19.815L36.409 19.8092L34.6129 17.4062ZM36.9332 16.8594L37.2556 13.8768L37.2556 13.8768L36.9332 16.8594ZM37.441 16.9453H40.441V14.603L38.1686 14.0349L37.441 16.9453ZM37.441 19.8984L36.5789 22.7719L40.441 23.9305V19.8984H37.441ZM34.7222 20.0391L36.1638 22.67L36.1761 22.6632L34.7222 20.0391ZM33.816 20.9141L31.2403 19.3758L31.2324 19.3891L31.2246 19.4025L33.816 20.9141ZM33.4879 29V32H36.4879V29H33.4879ZM47.187 23.8906H44.187V23.9052L44.1871 23.9198L47.187 23.8906ZM47.187 17V14H44.187V17H47.187ZM50.5151 17H53.5151V14H50.5151V17ZM50.5151 29V32H53.5151V29H50.5151ZM47.3198 29H44.3198V32H47.3198V29ZM47.3198 26.8203H50.3198V23.8203H47.3198V26.8203ZM47.1948 26.8203V23.8203H45.1355L44.3953 25.742L47.1948 26.8203ZM45.8432 28.5156L44.1602 26.0322L44.1507 26.0387L45.8432 28.5156ZM41.437 28.6094L42.9772 26.035L42.9772 26.035L41.437 28.6094ZM40.0073 27.0547L37.3282 28.4046L37.3324 28.4129L37.3366 28.4211L40.0073 27.0547ZM39.4917 24.6406H36.4917V24.649L36.4917 24.6573L39.4917 24.6406ZM39.4917 17V14H36.4917V17H39.4917ZM42.8198 17H45.8198V14H42.8198V17ZM42.8198 24.0469H39.8198V24.0579L39.8199 24.0689L42.8198 24.0469ZM43.3901 25.7266L45.6074 23.7058L45.6074 23.7058L43.3901 25.7266ZM46.0229 26.0703L47.412 28.7294L47.4275 28.7213L47.4429 28.713L46.0229 26.0703ZM46.8667 25.2422L44.2942 23.6987L44.286 23.7123L44.278 23.726L46.8667 25.2422ZM59.89 17H62.89V14H59.89V17ZM59.89 19.5V22.5H62.89V19.5H59.89ZM52.6635 19.5H49.6635V22.5H52.6635V19.5ZM52.6635 17V14H49.6635V17H52.6635ZM54.3041 14.125V11.125H51.3041V14.125H54.3041ZM57.6322 14.125H60.6322V11.125H57.6322V14.125ZM57.7729 26.0312L55.1392 27.4678L55.1485 27.485L55.1581 27.502L57.7729 26.0312ZM58.1635 26.3828L57.0343 29.1622L57.0491 29.1682L57.0639 29.174L58.1635 26.3828ZM59.226 26.4453L59.7192 29.4045L59.7669 29.3965L59.8143 29.3871L59.226 26.4453ZM59.5854 26.375L62.5205 25.7546L61.9142 22.8861L59.0325 23.4264L59.5854 26.375ZM60.1088 28.8516L61.0036 31.715L63.6082 30.9011L63.0439 28.2312L60.1088 28.8516ZM59.4057 29.0312L58.7495 26.1039L58.7256 26.1092L58.7017 26.115L59.4057 29.0312ZM58.3041 29.1641L58.1957 26.166L58.1873 26.1663L58.3041 29.1641ZM56.1947 28.8438L55.0598 31.6208L55.0682 31.6242L56.1947 28.8438ZM54.3041 25.75L57.304 25.7699L57.3041 25.7599V25.75H54.3041ZM65.9739 22.0625L62.9741 22.0322L62.9739 22.0473V22.0625H65.9739ZM65.9739 29V32H68.9739V29H65.9739ZM62.6458 29H59.6458V32H62.6458V29ZM62.6458 13V10H59.6458V13H62.6458ZM65.8802 13H68.8802V10H65.8802V13ZM65.8802 19.1172H62.8802V22.1172H65.8802V19.1172ZM66.0208 19.1172V22.1172H68.0856L68.823 20.1886L66.0208 19.1172ZM67.3333 17.4531L68.9924 19.9526L68.9999 19.9476L69.0073 19.9427L67.3333 17.4531ZM71.7864 17.3906L70.2654 19.9764L70.2782 19.9839L70.291 19.9913L71.7864 17.3906ZM73.2396 18.9453L70.5646 20.3034L70.5709 20.3158L70.5772 20.3281L73.2396 18.9453ZM73.7552 21.3594L70.7552 21.3427L70.7552 21.351V21.3594H73.7552ZM73.7552 29V32H76.7552V29H73.7552ZM70.4271 29H67.4271V32H70.4271V29ZM70.4271 21.9531L67.4271 21.932L67.4271 21.9426V21.9531H70.4271ZM69.8646 20.2266L67.6473 22.2474L67.6542 22.255L67.6612 22.2626L69.8646 20.2266ZM67.0833 19.8984L65.6331 17.2723L65.6247 17.2769L65.6163 17.2816L67.0833 19.8984ZM66.2708 20.7422L63.6258 19.3266L63.6222 19.3334L63.6185 19.3403L66.2708 20.7422ZM82.1886 13V10H79.1886V13H82.1886ZM86.3605 13L89.1364 11.8622L88.3731 10H86.3605V13ZM90.7668 23.75L87.9909 24.8878L88.7542 26.75H90.7668V23.75ZM90.9543 23.75V26.75H92.9668L93.7301 24.8878L90.9543 23.75ZM95.3605 13V10H93.3479L92.5846 11.8622L95.3605 13ZM99.5324 13H102.532V10H99.5324V13ZM99.5324 29V32H102.532V29H99.5324ZM96.2511 29H93.2511V32H96.2511V29ZM96.2511 18.5859H99.2511V15.5859H96.2511V18.5859ZM96.1183 18.5859V15.5859H94.0884L93.3335 17.4703L96.1183 18.5859ZM91.9777 28.9219V31.9219H94.0077L94.7625 30.0375L91.9777 28.9219ZM89.7433 28.9219L86.957 30.0339L87.7105 31.9219H89.7433V28.9219ZM85.6027 18.5469L88.389 17.4349L87.6355 15.5469H85.6027V18.5469ZM85.4699 18.5469V15.5469H82.4699V18.5469H85.4699ZM85.4699 29V32H88.4699V29H85.4699ZM82.1886 29H79.1886V32H82.1886V29ZM103.962 28.8281L102.726 31.5617L102.736 31.5661L102.746 31.5705L103.962 28.8281ZM102.54 27.6328L100.021 29.2626L100.031 29.2769L100.04 29.2912L102.54 27.6328ZM102.392 23.9688L99.7522 22.5428L99.7522 22.5428L102.392 23.9688ZM103.392 22.875L101.749 20.3646L101.749 20.3646L103.392 22.875ZM104.829 22.25L104.075 19.3463L104.068 19.348L104.829 22.25ZM106.532 21.9531L106.82 24.9393L106.832 24.9381L106.844 24.9369L106.532 21.9531ZM108.22 21.75L108.654 24.7184L108.672 24.7158L108.69 24.713L108.22 21.75ZM109.149 21.4531L107.47 18.9674L107.47 18.9674L109.149 21.4531ZM108.97 19.6797L106.986 21.9303L106.996 21.9386L107.005 21.9468L108.97 19.6797ZM106.228 19.6719L108.005 22.0888L108.016 22.0804L108.028 22.0719L106.228 19.6719ZM105.524 20.6562L105.282 23.6464L107.725 23.8448L108.406 21.4904L105.524 20.6562ZM102.446 20.4062L99.513 19.7777L98.7968 23.1197L102.204 23.3964L102.446 20.4062ZM103.368 18.5156L105.64 20.4753L105.644 20.4698L105.649 20.4643L103.368 18.5156ZM105.142 17.2812L106.245 20.0708L106.256 20.0667L105.142 17.2812ZM109.587 17.0781L108.842 19.9841L108.848 19.9856L109.587 17.0781ZM111.22 17.8047L109.512 20.2713L109.518 20.2756L109.525 20.2799L111.22 17.8047ZM112.353 19.0703L109.708 20.4862L109.714 20.4974L112.353 19.0703ZM112.767 29V32H115.767V29H112.767ZM109.61 29H106.61V32H109.61V29ZM109.61 27.3359H112.61V24.3359H109.61V27.3359ZM109.517 27.3359V24.3359H107.685L106.848 25.9647L109.517 27.3359ZM108.743 28.3281L110.714 30.5904L110.724 30.5814L110.734 30.5723L108.743 28.3281ZM107.579 28.9922L108.557 31.8283L108.572 31.8233L108.586 31.8181L107.579 28.9922ZM108.259 26.6406L109.63 29.3089L109.645 29.3014L109.659 29.2938L108.259 26.6406ZM109.142 25.8438L106.616 24.2255L106.616 24.2255L109.142 25.8438ZM109.462 23.4375H112.462V17.9095L107.827 20.9222L109.462 23.4375ZM109.032 23.625L109.879 26.5031L109.905 26.4953L109.932 26.487L109.032 23.625ZM108.431 23.7734L108.979 26.7228L109.012 26.7167L109.045 26.7098L108.431 23.7734ZM107.759 23.8906L108.173 26.8618L108.207 26.8571L108.241 26.8516L107.759 23.8906ZM107.149 23.9766L106.725 21.0067L106.714 21.0083L107.149 23.9766ZM106.126 24.25L107.308 27.0074L107.308 27.0074L106.126 24.25ZM105.446 24.7578L107.818 26.5955L107.829 26.5814L107.839 26.5671L105.446 24.7578ZM105.696 26.5781L103.927 29.001L103.949 29.0168L103.971 29.0322L105.696 26.5781ZM117.624 28.4922L115.997 31.0128L116.008 31.0195L116.018 31.0261L117.624 28.4922ZM115.874 26.4062L113.152 27.6673L113.156 27.6766L113.161 27.6859L115.874 26.4062ZM115.897 19.5859L118.596 20.8967L118.599 20.8906L115.897 19.5859ZM117.663 17.5312L119.238 20.0844L119.243 20.0813L117.663 17.5312ZM121.772 17.1875L120.406 19.8582L120.425 19.8677L120.443 19.8769L121.772 17.1875ZM122.866 18.0312L120.541 19.9271L120.557 19.9466L120.573 19.9659L122.866 18.0312ZM123.507 19.0156L120.773 20.2504L121.57 22.0156H123.507V19.0156ZM123.608 19.0156V22.0156H126.608V19.0156H123.608ZM123.608 13V10H120.608V13H123.608ZM126.929 13H129.929V10H126.929V13ZM126.929 29V32H129.929V29H126.929ZM123.647 29H120.647V32H123.647V29ZM123.647 27.0781H126.647V24.0781H123.647V27.0781ZM123.507 27.0781V24.0781H121.6L120.79 25.8048L123.507 27.0781ZM122.843 28.0703L120.583 26.0973L120.581 26.1L122.843 28.0703ZM121.741 28.875L120.462 26.1612L120.45 26.167L121.741 28.875ZM122.515 26.1094L124.373 28.4649L124.377 28.4615L122.515 26.1094ZM123.374 24.8672L120.572 23.7958L120.567 23.8078L120.563 23.8199L123.374 24.8672ZM123.382 21.1406L126.19 20.0842L126.19 20.0842L123.382 21.1406ZM119.772 19.9375L117.91 17.5854L117.91 17.5854L119.772 19.9375ZM118.921 24.8516L116.098 25.8658L116.103 25.8824L116.11 25.8989L118.921 24.8516ZM119.772 26.1016L117.875 28.4249L117.892 28.4394L117.91 28.4537L119.772 26.1016ZM132.276 28.4844L130.79 31.09L130.799 31.0952L130.808 31.1003L132.276 28.4844ZM130.229 26.3438L127.564 27.7212L127.568 27.7273L130.229 26.3438ZM130.229 19.8047L127.561 18.4333L127.561 18.4333L130.229 19.8047ZM132.253 17.625L130.718 15.0471L130.712 15.0512L132.253 17.625ZM137.542 17.2266L136.491 20.0364L136.504 20.0412L136.517 20.0459L137.542 17.2266ZM139.339 18.3594L137.228 20.4915L137.234 20.4969L137.239 20.5022L139.339 18.3594ZM140.542 20.2656L137.732 21.3169L137.735 21.3232L140.542 20.2656ZM140.972 23.8516V26.8516H143.972V23.8516H140.972ZM130.839 23.8516H127.839V26.8516H130.839V23.8516ZM130.839 21.7891V18.7891H127.839V21.7891H130.839ZM137.839 21.7891V24.7891H140.839V21.7891H137.839ZM137.526 20.5156L134.913 21.9882L134.913 21.9882L137.526 20.5156ZM136.659 19.6484L135.143 22.2371L135.165 22.2498L135.187 22.2622L136.659 19.6484ZM134.042 19.6797L135.575 22.2583L135.585 22.2522L134.042 19.6797ZM133.136 20.6094L135.745 22.0902L135.749 22.0827L135.753 22.0752L133.136 20.6094ZM132.8 21.8984L129.8 21.8655L129.8 21.882V21.8984H132.8ZM133.128 25.3984L130.451 26.753L130.458 26.7657L130.464 26.7785L133.128 25.3984ZM136.534 26.5938L135.571 23.7526L135.571 23.7526L136.534 26.5938ZM137.323 26.125L135.254 23.9526L135.254 23.9526L137.323 26.125ZM137.823 25.3594L138.021 22.3659L135.806 22.2197L135.018 24.2954L137.823 25.3594ZM140.901 25.5625L143.837 26.1826L144.552 22.7969L141.099 22.569L140.901 25.5625ZM139.94 27.5L137.685 25.5215L137.684 25.523L139.94 27.5ZM138.081 28.7812L139.195 31.5667L139.205 31.5627L138.081 28.7812ZM148.958 29H145.958V32H148.958V29ZM148.958 13V10H145.958V13H148.958ZM159.739 13H162.739V10H159.739V13ZM159.739 15.7891V18.7891H162.739V15.7891H159.739ZM152.341 15.7891V12.7891H149.341V15.7891H152.341ZM152.341 19.6016H149.341V22.6016H152.341V19.6016ZM159.184 19.6016H162.184V16.6016H159.184V19.6016ZM159.184 22.3906V25.3906H162.184V22.3906H159.184ZM152.341 22.3906V19.3906H149.341V22.3906H152.341ZM152.341 26.2109H149.341V29.2109H152.341V26.2109ZM159.77 26.2109H162.77V23.2109H159.77V26.2109ZM159.77 29V32H162.77V29H159.77ZM164.071 28.8281L162.835 31.5617L162.845 31.5661L162.855 31.5705L164.071 28.8281ZM162.649 27.6328L160.13 29.2626L160.14 29.2769L160.149 29.2912L162.649 27.6328ZM162.501 23.9688L159.861 22.5428L159.861 22.5428L162.501 23.9688ZM163.501 22.875L161.858 20.3646L161.858 20.3646L163.501 22.875ZM164.938 22.25L164.184 19.3463L164.177 19.348L164.938 22.25ZM166.641 21.9531L166.929 24.9393L166.941 24.9381L166.953 24.9369L166.641 21.9531ZM168.329 21.75L168.763 24.7184L168.781 24.7158L168.799 24.713L168.329 21.75ZM169.258 21.4531L167.579 18.9674L167.579 18.9674L169.258 21.4531ZM169.079 19.6797L167.095 21.9303L167.105 21.9386L167.114 21.9468L169.079 19.6797ZM166.337 19.6719L168.114 22.0888L168.125 22.0804L168.137 22.0719L166.337 19.6719ZM165.633 20.6562L165.391 23.6464L167.834 23.8448L168.515 21.4904L165.633 20.6562ZM162.555 20.4062L159.622 19.7777L158.906 23.1197L162.313 23.3964L162.555 20.4062ZM163.477 18.5156L165.749 20.4753L165.753 20.4698L165.758 20.4643L163.477 18.5156ZM165.251 17.2812L166.354 20.0708L166.365 20.0667L165.251 17.2812ZM169.696 17.0781L168.951 19.9841L168.957 19.9856L169.696 17.0781ZM171.329 17.8047L169.621 20.2713L169.627 20.2756L169.634 20.2799L171.329 17.8047ZM172.462 19.0703L169.817 20.4862L169.823 20.4974L172.462 19.0703ZM172.876 29V32H175.876V29H172.876ZM169.719 29H166.719V32H169.719V29ZM169.719 27.3359H172.719V24.3359H169.719V27.3359ZM169.626 27.3359V24.3359H167.794L166.957 25.9647L169.626 27.3359ZM168.852 28.3281L170.823 30.5904L170.833 30.5814L170.843 30.5723L168.852 28.3281ZM167.688 28.9922L168.666 31.8283L168.681 31.8233L168.695 31.8181L167.688 28.9922ZM168.368 26.6406L169.739 29.3089L169.754 29.3014L169.768 29.2938L168.368 26.6406ZM169.251 25.8438L166.725 24.2255L166.725 24.2255L169.251 25.8438ZM169.571 23.4375H172.571V17.9095L167.936 20.9222L169.571 23.4375ZM169.141 23.625L169.988 26.5031L170.014 26.4953L170.041 26.487L169.141 23.625ZM168.54 23.7734L169.088 26.7228L169.121 26.7167L169.154 26.7098L168.54 23.7734ZM167.868 23.8906L168.282 26.8618L168.316 26.8571L168.35 26.8516L167.868 23.8906ZM167.258 23.9766L166.834 21.0067L166.823 21.0083L167.258 23.9766ZM166.235 24.25L167.417 27.0074L167.417 27.0074L166.235 24.25ZM165.555 24.7578L167.927 26.5955L167.938 26.5814L167.948 26.5671L165.555 24.7578ZM165.805 26.5781L164.036 29.001L164.058 29.0168L164.08 29.0322L165.805 26.5781ZM185.772 20.4219L185.956 23.4162L189.167 23.2186L188.746 20.0291L185.772 20.4219ZM182.725 20.6094L179.783 21.1977L180.297 23.7645L182.909 23.6037L182.725 20.6094ZM182.389 19.9062L180.052 21.7873L180.064 21.8014L180.075 21.8154L182.389 19.9062ZM181.71 19.3984L180.43 22.1117L180.46 22.1261L180.491 22.1399L181.71 19.3984ZM179.413 19.5312L180.962 22.1004L180.975 22.0921L180.989 22.0836L179.413 19.5312ZM179.225 21.1172L177.264 23.3877L177.264 23.3877L179.225 21.1172ZM180.405 21.5938L179.774 24.5268L179.793 24.5308L179.812 24.5347L180.405 21.5938ZM182.577 22.0312L183.18 19.0926L183.169 19.0903L182.577 22.0312ZM185.186 23.1875L183.146 25.3873L183.146 25.3873L185.186 23.1875ZM185.35 27.3516L182.985 25.5054L182.98 25.5119L182.975 25.5184L185.35 27.3516ZM183.46 28.7422L184.602 31.5162L184.611 31.5125L183.46 28.7422ZM176.905 28.2422L175.166 30.6871L175.174 30.6925L175.182 30.698L176.905 28.2422ZM175.256 25.5234L175.099 22.5276L171.829 22.6993L172.286 25.942L175.256 25.5234ZM178.53 25.3516L181.469 24.7511L180.952 22.2202L178.373 22.3557L178.53 25.3516ZM179.249 26.4609L177.577 28.9518L177.588 28.9598L177.6 28.9676L179.249 26.4609ZM182.116 26.5L183.719 29.0356L183.729 29.0295L182.116 26.5ZM182.663 25.6172L185.662 25.6607L185.663 25.6131L185.662 25.5655L182.663 25.6172ZM182.28 24.875L180.418 27.2271L180.433 27.2392L180.448 27.251L182.28 24.875ZM181.124 24.4219L181.712 21.4801L181.71 21.4797L181.124 24.4219ZM179.046 24.0078L178.457 26.9496L178.459 26.95L179.046 24.0078ZM176.428 22.7891L174.288 24.891L174.297 24.9008L176.428 22.7891ZM176.202 18.5859L173.81 16.7752L173.804 16.7824L173.799 16.7895L176.202 18.5859ZM177.975 17.2969L176.874 14.5062L176.868 14.5088L177.975 17.2969ZM184.241 17.8047L182.462 20.2202L182.469 20.2253L184.241 17.8047ZM188.471 29H185.471V32H188.471V29ZM188.471 17V14H185.471V17H188.471ZM191.799 17H194.799V14H191.799V17ZM191.799 29V32H194.799V29H191.799ZM188.87 14.9609L186.797 17.1303L186.814 17.1461L186.831 17.1616L188.87 14.9609ZM188.87 12.5859L190.925 14.7715L190.926 14.7705L188.87 12.5859ZM191.409 12.5859L189.337 14.7553L189.353 14.7711L189.37 14.7866L191.409 12.5859ZM191.409 14.9609L193.464 17.1465L193.465 17.1455L191.409 14.9609ZM197.077 28.4844L195.59 31.09L195.599 31.0952L195.608 31.1003L197.077 28.4844ZM195.03 26.3438L192.365 27.7212L192.368 27.7273L195.03 26.3438ZM195.03 19.8047L192.362 18.4333L192.362 18.4333L195.03 19.8047ZM197.053 17.625L195.519 15.0471L195.512 15.0512L197.053 17.625ZM202.342 17.2266L201.291 20.0364L201.304 20.0412L201.317 20.0459L202.342 17.2266ZM204.139 18.3594L202.029 20.4915L202.034 20.4969L202.04 20.5022L204.139 18.3594ZM205.342 20.2656L202.532 21.3169L202.535 21.3232L205.342 20.2656ZM205.772 23.8516V26.8516H208.772V23.8516H205.772ZM195.639 23.8516H192.639V26.8516H195.639V23.8516ZM195.639 21.7891V18.7891H192.639V21.7891H195.639ZM202.639 21.7891V24.7891H205.639V21.7891H202.639ZM202.327 20.5156L199.713 21.9882L199.713 21.9882L202.327 20.5156ZM201.459 19.6484L199.943 22.2371L199.965 22.2498L199.987 22.2622L201.459 19.6484ZM198.842 19.6797L200.375 22.2583L200.386 22.2522L198.842 19.6797ZM197.936 20.6094L200.545 22.0902L200.549 22.0827L200.553 22.0752L197.936 20.6094ZM197.6 21.8984L194.6 21.8655L194.6 21.882V21.8984H197.6ZM197.928 25.3984L195.251 26.753L195.258 26.7657L195.264 26.7785L197.928 25.3984ZM201.334 26.5938L200.371 23.7526L200.371 23.7526L201.334 26.5938ZM202.123 26.125L200.055 23.9526L200.055 23.9526L202.123 26.125ZM202.623 25.3594L202.821 22.3659L200.606 22.2197L199.818 24.2954L202.623 25.3594ZM205.702 25.5625L208.637 26.1826L209.352 22.7969L205.899 22.569L205.702 25.5625ZM204.741 27.5L202.486 25.5215L202.484 25.523L204.741 27.5ZM202.881 28.7812L203.995 31.5667L204.005 31.5627L202.881 28.7812ZM208.274 29H205.274V32H208.274V29ZM208.274 17V14H205.274V17H208.274ZM211.5 17H214.5V14H211.5V17ZM211.5 19.0938H208.5V22.0938H211.5V19.0938ZM211.625 19.0938V22.0938H213.871L214.504 19.9392L211.625 19.0938ZM212.727 17.4062L214.507 19.8208L214.515 19.815L214.523 19.8092L212.727 17.4062ZM215.047 16.8594L215.37 13.8768L215.37 13.8768L215.047 16.8594ZM215.555 16.9453H218.555V14.603L216.283 14.0349L215.555 16.9453ZM215.555 19.8984L214.693 22.7719L218.555 23.9305V19.8984H215.555ZM212.836 20.0391L214.278 22.67L214.29 22.6632L212.836 20.0391ZM211.93 20.9141L209.354 19.3758L209.346 19.3891L209.339 19.4025L211.93 20.9141ZM211.602 29V32H214.602V29H211.602ZM13 6H218V0H13V6ZM225 13V29H231V13H225ZM218 36H13V42H218V36ZM6 29V13H0V29H6ZM13 36C9.13401 36 6 32.866 6 29H0C0 36.1797 5.8203 42 13 42V36ZM225 29C225 32.866 221.866 36 218 36V42C225.18 42 231 36.1797 231 29H225ZM218 6C221.866 6 225 9.13401 225 13H231C231 5.8203 225.18 0 218 0V6ZM13 0C5.8203 0 0 5.8203 0 13H6C6 9.13401 9.13401 6 13 6V0ZM18.8336 15.7891V13H12.8336V15.7891H18.8336ZM15.8336 16H28.9743V10H15.8336V16ZM25.9743 13V15.7891H31.9743V13H25.9743ZM28.9743 12.7891H24.0758V18.7891H28.9743V12.7891ZM21.0758 15.7891V29H27.0758V15.7891H21.0758ZM24.0758 26H20.7321V32H24.0758V26ZM23.7321 29V15.7891H17.7321V29H23.7321ZM20.7321 12.7891H15.8336V18.7891H20.7321V12.7891ZM33.1597 29V17H27.1597V29H33.1597ZM30.1597 20H33.3863V14H30.1597V20ZM30.3863 17V19.0938H36.3863V17H30.3863ZM33.3863 22.0938H33.5113V16.0938H33.3863V22.0938ZM36.3897 19.9392C36.429 19.8053 36.4622 19.7542 36.4629 19.7531C36.4632 19.7527 36.4572 19.7618 36.4437 19.7762C36.43 19.7908 36.4128 19.8064 36.3933 19.8208L32.8324 14.9917C31.685 15.8378 30.9962 17.0113 30.6329 18.2483L36.3897 19.9392ZM36.409 19.8092C36.4122 19.8067 36.4094 19.8092 36.4006 19.8137C36.3918 19.8183 36.3814 19.8227 36.371 19.8261C36.3607 19.8295 36.3551 19.8303 36.3564 19.8301C36.358 19.8298 36.3699 19.8281 36.3941 19.8281V13.8281C35.1051 13.8281 33.8747 14.2125 32.8167 15.0033L36.409 19.8092ZM36.3941 19.8281C36.4374 19.8281 36.5083 19.8309 36.6107 19.842L37.2556 13.8768C36.9726 13.8462 36.6841 13.8281 36.3941 13.8281V19.8281ZM36.6107 19.842C36.6549 19.8468 36.6855 19.8513 36.7041 19.8544C36.7229 19.8576 36.7251 19.8587 36.7134 19.8557L38.1686 14.0349C37.8578 13.9572 37.548 13.9084 37.2556 13.8768L36.6107 19.842ZM34.441 16.9453V19.8984H40.441V16.9453H34.441ZM38.303 17.025C37.9233 16.911 37.526 16.8443 37.1854 16.7993L36.3997 22.7476C36.4937 22.76 36.5566 22.7706 36.5938 22.7778C36.6344 22.7856 36.6243 22.7855 36.5789 22.7719L38.303 17.025ZM37.1854 16.7993C36.8057 16.7491 36.4196 16.7188 36.0347 16.7188V22.7188C36.1082 22.7188 36.2273 22.7248 36.3997 22.7476L37.1854 16.7993ZM36.0347 16.7188C35.0942 16.7188 34.1465 16.9283 33.2683 17.4149L36.1761 22.6632C36.1302 22.6887 36.0855 22.7048 36.0507 22.7133C36.0174 22.7214 36.0089 22.7188 36.0347 22.7188V16.7188ZM33.2806 17.4081C32.4282 17.8752 31.7361 18.5457 31.2403 19.3758L36.3916 22.4523C36.3732 22.4831 36.3414 22.5268 36.2943 22.5723C36.2471 22.6178 36.2002 22.65 36.1638 22.67L33.2806 17.4081ZM31.2246 19.4025C30.7054 20.2926 30.4879 21.2594 30.4879 22.2109H36.4879C36.4879 22.1903 36.49 22.2088 36.4782 22.2554C36.466 22.3039 36.4432 22.3642 36.4073 22.4257L31.2246 19.4025ZM30.4879 22.2109V29H36.4879V22.2109H30.4879ZM33.4879 26H30.1597V32H33.4879V26ZM50.187 23.8906V17H44.187V23.8906H50.187ZM47.187 20H50.5151V14H47.187V20ZM47.5151 17V29H53.5151V17H47.5151ZM50.5151 26H47.3198V32H50.5151V26ZM50.3198 29V26.8203H44.3198V29H50.3198ZM47.3198 23.8203H47.1948V29.8203H47.3198V23.8203ZM44.3953 25.742C44.347 25.8675 44.2892 25.9448 44.1602 26.0322L47.5262 30.9991C48.6577 30.2323 49.501 29.1794 49.9943 27.8986L44.3953 25.742ZM44.1507 26.0387C44.1131 26.0644 43.9685 26.1562 43.5542 26.1562V32.1562C44.9419 32.1562 46.3234 31.821 47.5358 30.9926L44.1507 26.0387ZM43.5542 26.1562C43.2227 26.1562 43.0631 26.0863 42.9772 26.035L39.8967 31.1838C41.0296 31.8616 42.2815 32.1562 43.5542 32.1562V26.1562ZM42.9772 26.035C42.8812 25.9775 42.7824 25.8923 42.678 25.6883L37.3366 28.4211C37.9197 29.5608 38.774 30.5121 39.8967 31.1838L42.9772 26.035ZM42.6864 25.7047C42.6013 25.5358 42.4949 25.2097 42.4916 24.624L36.4917 24.6573C36.4989 25.9466 36.7363 27.2299 37.3282 28.4046L42.6864 25.7047ZM42.4917 24.6406V17H36.4917V24.6406H42.4917ZM39.4917 20H42.8198V14H39.4917V20ZM39.8198 17V24.0469H45.8198V17H39.8198ZM39.8199 24.0689C39.829 25.309 40.1749 26.6525 41.1728 27.7474L45.6074 23.7058C45.7153 23.8241 45.7776 23.9469 45.807 24.0335C45.8331 24.1105 45.8204 24.1199 45.8197 24.0248L39.8199 24.0689ZM41.1728 27.7474C42.1943 28.8682 43.547 29.3438 44.8979 29.3438V23.3438C44.9108 23.3438 45.0223 23.3465 45.1848 23.413C45.3559 23.4831 45.5029 23.5911 45.6074 23.7058L41.1728 27.7474ZM44.8979 29.3438C45.7733 29.3438 46.626 29.1399 47.412 28.7294L44.6339 23.4113C44.6706 23.3921 44.7178 23.3733 44.7714 23.3603C44.8248 23.3473 44.8691 23.3438 44.8979 23.3438V29.3438ZM47.4429 28.713C48.3101 28.247 48.9825 27.5657 49.4553 26.7584L44.278 23.726C44.2957 23.6958 44.3324 23.6423 44.3942 23.5816C44.4569 23.52 44.5291 23.4673 44.603 23.4276L47.4429 28.713ZM49.4392 26.7857C50.0085 25.8367 50.196 24.808 50.1869 23.8615L44.1871 23.9198C44.1877 23.9827 44.1811 23.9838 44.1917 23.939C44.2031 23.8909 44.2315 23.8032 44.2942 23.6987L49.4392 26.7857ZM56.89 17V19.5H62.89V17H56.89ZM59.89 16.5H52.6635V22.5H59.89V16.5ZM55.6635 19.5V17H49.6635V19.5H55.6635ZM52.6635 20H59.89V14H52.6635V20ZM54.3041 17.125H57.6322V11.125H54.3041V17.125ZM54.6322 14.125V25.3125H60.6322V14.125H54.6322ZM54.6322 25.3125C54.6322 25.863 54.7059 26.6734 55.1392 27.4678L60.4065 24.5947C60.5376 24.835 60.59 25.0364 60.6116 25.1466C60.6333 25.2579 60.6322 25.3199 60.6322 25.3125H54.6322ZM55.1581 27.502C55.5622 28.2204 56.1974 28.8222 57.0343 29.1622L59.2926 23.6034C59.7962 23.808 60.171 24.1754 60.3876 24.5605L55.1581 27.502ZM57.0639 29.174C57.6517 29.4056 58.2346 29.4844 58.7572 29.4844V23.4844C58.8319 23.4844 59.019 23.4955 59.2631 23.5916L57.0639 29.174ZM58.7572 29.4844C59.081 29.4844 59.4022 29.4573 59.7192 29.4045L58.7328 23.4861C58.7373 23.4854 58.746 23.4844 58.7572 23.4844V29.4844ZM59.8143 29.3871C59.9671 29.3565 60.0729 29.3359 60.1382 29.3236L59.0325 23.4264C58.9312 23.4454 58.7974 23.4716 58.6376 23.5036L59.8143 29.3871ZM56.6502 26.9954L57.1736 29.4719L63.0439 28.2312L62.5205 25.7546L56.6502 26.9954ZM59.214 25.9881C59.1637 26.0038 59.0223 26.0427 58.7495 26.1039L60.0618 31.9586C60.3932 31.8843 60.7205 31.8035 61.0036 31.715L59.214 25.9881ZM58.7017 26.115C58.6541 26.1265 58.499 26.1551 58.1957 26.166L58.4125 32.1621C58.9738 32.1418 59.553 32.0818 60.1096 31.9475L58.7017 26.115ZM58.1873 26.1663C57.7145 26.1848 57.4509 26.1158 57.3213 26.0633L55.0682 31.6242C56.1469 32.0613 57.2896 32.2059 58.4209 32.1618L58.1873 26.1663ZM57.3297 26.0667C57.3058 26.057 57.293 26.0499 57.2887 26.0473C57.2846 26.0449 57.2865 26.0457 57.2921 26.0502C57.2978 26.0549 57.304 26.0607 57.3095 26.0669C57.3149 26.073 57.3169 26.0763 57.3157 26.0744L52.2769 29.3318C52.9619 30.3914 53.9251 31.1571 55.0598 31.6208L57.3297 26.0667ZM57.3157 26.0744C57.3428 26.1164 57.3417 26.1324 57.3323 26.095C57.3218 26.0534 57.3028 25.9514 57.304 25.7699L51.3042 25.7301C51.2962 26.9383 51.548 28.2043 52.2769 29.3318L57.3157 26.0744ZM57.3041 25.75V14.125H51.3041V25.75H57.3041ZM62.9739 22.0625V29H68.9739V22.0625H62.9739ZM65.9739 26H62.6458V32H65.9739V26ZM65.6458 29V13H59.6458V29H65.6458ZM62.6458 16H65.8802V10H62.6458V16ZM62.8802 13V19.1172H68.8802V13H62.8802ZM65.8802 22.1172H66.0208V16.1172H65.8802V22.1172ZM68.823 20.1886C68.8816 20.0353 68.9334 19.9918 68.9924 19.9526L65.6742 14.9537C64.5249 15.7166 63.7017 16.7825 63.2187 18.0458L68.823 20.1886ZM69.0073 19.9427C69.0143 19.938 69.0473 19.9164 69.1315 19.8938C69.2201 19.87 69.372 19.8438 69.6068 19.8438V13.8438C68.2495 13.8438 66.8701 14.1495 65.6593 14.9636L69.0073 19.9427ZM69.6068 19.8438C69.9913 19.8438 70.1756 19.9236 70.2654 19.9764L73.3075 14.8048C72.1577 14.1285 70.8888 13.8438 69.6068 13.8438V19.8438ZM70.291 19.9913C70.3828 20.0441 70.4701 20.1172 70.5646 20.3034L75.9146 17.5872C75.3216 16.4192 74.4401 15.4559 73.2819 14.7899L70.291 19.9913ZM70.5772 20.3281C70.6545 20.4767 70.7584 20.778 70.7552 21.3427L76.7551 21.376C76.7624 20.0657 76.5226 18.7577 75.9019 17.5626L70.5772 20.3281ZM70.7552 21.3594V29H76.7552V21.3594H70.7552ZM73.7552 26H70.4271V32H73.7552V26ZM73.4271 29V21.9531H67.4271V29H73.4271ZM73.427 21.9743C73.4358 20.7231 73.1133 19.3219 72.0679 18.1906L67.6612 22.2626C67.5346 22.1256 67.4672 21.9861 67.4379 21.8961C67.4124 21.8177 67.428 21.8159 67.4271 21.932L73.427 21.9743ZM72.0818 18.2058C71.0178 17.0382 69.61 16.6094 68.2864 16.6094V22.6094C68.3236 22.6094 68.243 22.615 68.0961 22.5576C67.9364 22.4951 67.775 22.3874 67.6473 22.2474L72.0818 18.2058ZM68.2864 16.6094C67.3964 16.6094 66.4838 16.8025 65.6331 17.2723L68.5336 22.5246C68.4644 22.5628 68.3987 22.5861 68.3467 22.5986C68.2964 22.6107 68.273 22.6094 68.2864 22.6094V16.6094ZM65.6163 17.2816C64.7408 17.7724 64.0756 18.4862 63.6258 19.3266L68.9158 22.1578C68.8944 22.1979 68.8527 22.2628 68.7833 22.3348C68.713 22.4079 68.6324 22.4693 68.5503 22.5153L65.6163 17.2816ZM63.6185 19.3403C63.1532 20.2206 62.983 21.1555 62.9741 22.0322L68.9738 22.0928C68.9746 22.0168 68.9819 21.9909 68.979 22.0038C68.9756 22.0187 68.9618 22.0709 68.9231 22.1441L63.6185 19.3403ZM82.1886 16H86.3605V10H82.1886V16ZM83.5846 14.1378L87.9909 24.8878L93.5426 22.6122L89.1364 11.8622L83.5846 14.1378ZM90.7668 26.75H90.9543V20.75H90.7668V26.75ZM93.7301 24.8878L98.1364 14.1378L92.5846 11.8622L88.1784 22.6122L93.7301 24.8878ZM95.3605 16H99.5324V10H95.3605V16ZM96.5324 13V29H102.532V13H96.5324ZM99.5324 26H96.2511V32H99.5324V26ZM99.2511 29V18.5859H93.2511V29H99.2511ZM96.2511 15.5859H96.1183V21.5859H96.2511V15.5859ZM93.3335 17.4703L89.1929 27.8063L94.7625 30.0375L98.9032 19.7016L93.3335 17.4703ZM91.9777 25.9219H89.7433V31.9219H91.9777V25.9219ZM92.5296 27.8099L88.389 17.4349L82.8164 19.6589L86.957 30.0339L92.5296 27.8099ZM85.6027 15.5469H85.4699V21.5469H85.6027V15.5469ZM82.4699 18.5469V29H88.4699V18.5469H82.4699ZM85.4699 26H82.1886V32H85.4699V26ZM85.1886 29V13H79.1886V29H85.1886ZM106.009 26.2266C105.592 26.2266 105.335 26.1553 105.178 26.0857L102.746 31.5705C103.787 32.0322 104.894 32.2266 106.009 32.2266V26.2266ZM105.198 26.0946C105.091 26.0461 105.064 26.0104 105.04 25.9744L100.04 29.2912C100.714 30.3073 101.635 31.0685 102.726 31.5617L105.198 26.0946ZM105.059 26.0031C105.075 26.0275 105.069 26.0289 105.057 25.9838C105.044 25.9347 105.024 25.8289 105.024 25.6484H99.0245C99.0245 26.8734 99.2931 28.1369 100.021 29.2626L105.059 26.0031ZM105.024 25.6484C105.024 25.3372 105.083 25.2996 105.031 25.3947L99.7522 22.5428C99.2113 23.5442 99.0245 24.6263 99.0245 25.6484H105.024ZM105.031 25.3947C105.037 25.3841 105.041 25.3788 105.041 25.3774C105.042 25.3761 105.042 25.3772 105.039 25.3798C105.037 25.3824 105.035 25.3847 105.033 25.3864C105.031 25.3881 105.031 25.3876 105.034 25.3854L101.749 20.3646C100.901 20.9198 100.229 21.6608 99.7522 22.5428L105.031 25.3947ZM105.034 25.3854C105.16 25.3034 105.335 25.2187 105.59 25.152L104.068 19.348C103.25 19.5626 102.468 19.8945 101.749 20.3646L105.034 25.3854ZM105.583 25.1537C105.962 25.0553 106.374 24.9824 106.82 24.9393L106.244 18.967C105.503 19.0385 104.779 19.1635 104.075 19.3463L105.583 25.1537ZM106.844 24.9369C107.561 24.862 108.169 24.7894 108.654 24.7184L107.785 18.7816C107.416 18.8356 106.899 18.8984 106.221 18.9694L106.844 24.9369ZM108.69 24.713C109.24 24.6257 110.081 24.4445 110.829 23.9389L107.47 18.9674C107.582 18.8913 107.677 18.8433 107.738 18.8153C107.801 18.7869 107.844 18.7724 107.86 18.7672C107.888 18.7582 107.859 18.7697 107.75 18.787L108.69 24.713ZM110.829 23.9389C111.938 23.1898 112.439 22.0125 112.439 20.875H106.439C106.439 20.6223 106.488 20.2597 106.683 19.8693C106.884 19.468 107.174 19.1674 107.47 18.9674L110.829 23.9389ZM112.439 20.875V20.8281H106.439V20.875H112.439ZM112.439 20.8281C112.439 19.6508 112.034 18.3656 110.935 17.4126L107.005 21.9468C106.805 21.7735 106.644 21.5487 106.544 21.3036C106.449 21.0718 106.439 20.8947 106.439 20.8281H112.439ZM110.953 17.4291C109.918 16.5168 108.673 16.2734 107.657 16.2734V22.2734C107.777 22.2734 107.407 22.3009 106.986 21.9303L110.953 17.4291ZM107.657 16.2734C106.636 16.2734 105.457 16.4999 104.428 17.2719L108.028 22.0719C107.707 22.3126 107.481 22.2734 107.657 22.2734V16.2734ZM104.45 17.2549C103.602 17.8789 102.954 18.7476 102.643 19.8221L108.406 21.4904C108.371 21.6111 108.312 21.7389 108.227 21.857C108.144 21.9732 108.06 22.048 108.005 22.0888L104.45 17.2549ZM105.767 17.6661L102.689 17.4161L102.204 23.3964L105.282 23.6464L105.767 17.6661ZM105.38 21.0348C105.437 20.766 105.531 20.6015 105.64 20.4753L101.097 16.5559C100.289 17.4923 99.7678 18.5882 99.513 19.7777L105.38 21.0348ZM105.649 20.4643C105.758 20.3373 105.929 20.1962 106.245 20.0708L104.038 14.4917C102.907 14.9392 101.895 15.621 101.087 16.5669L105.649 20.4643ZM106.256 20.0667C106.562 19.9442 107.015 19.8438 107.673 19.8438V13.8438C106.415 13.8438 105.18 14.0349 104.028 14.4958L106.256 20.0667ZM107.673 19.8438C108.103 19.8438 108.49 19.8939 108.842 19.9841L110.332 14.1721C109.465 13.9498 108.576 13.8438 107.673 13.8438V19.8438ZM108.848 19.9856C109.15 20.0626 109.36 20.166 109.512 20.2713L112.927 15.3381C112.132 14.7871 111.253 14.4062 110.326 14.1706L108.848 19.9856ZM109.525 20.2799C109.604 20.3342 109.657 20.3916 109.708 20.4862L114.997 17.6544C114.496 16.7177 113.794 15.9314 112.915 15.3294L109.525 20.2799ZM109.714 20.4974C109.704 20.4798 109.767 20.578 109.767 20.9062H115.767C115.767 19.8074 115.553 18.6816 114.991 17.6432L109.714 20.4974ZM109.767 20.9062V29H115.767V20.9062H109.767ZM112.767 26H109.61V32H112.767V26ZM112.61 29V27.3359H106.61V29H112.61ZM109.61 24.3359H109.517V30.3359H109.61V24.3359ZM106.848 25.9647C106.83 26.0013 106.804 26.038 106.752 26.0839L110.734 30.5723C111.328 30.0453 111.818 29.4205 112.185 28.7071L106.848 25.9647ZM106.773 26.0659C106.766 26.0721 106.715 26.1153 106.572 26.1662L108.586 31.8181C109.349 31.5462 110.075 31.1467 110.714 30.5904L106.773 26.0659ZM106.601 26.1561C106.528 26.1815 106.346 26.2266 106.009 26.2266V32.2266C106.859 32.2266 107.725 32.1154 108.557 31.8283L106.601 26.1561ZM106.962 29.9297C107.851 29.9297 108.767 29.7523 109.63 29.3089L106.888 23.9723C106.939 23.946 106.98 23.9339 107.001 23.9293C107.02 23.925 107.01 23.9297 106.962 23.9297V29.9297ZM109.659 29.2938C110.459 28.8717 111.155 28.2628 111.668 27.462L106.616 24.2255C106.653 24.1669 106.7 24.112 106.751 24.066C106.801 24.0208 106.841 23.9967 106.859 23.9875L109.659 29.2938ZM111.668 27.462C112.211 26.6135 112.462 25.667 112.462 24.7109H106.462C106.462 24.6665 106.468 24.5902 106.495 24.4943C106.523 24.3969 106.565 24.3047 106.616 24.2255L111.668 27.462ZM112.462 24.7109V23.4375H106.462V24.7109H112.462ZM107.827 20.9222C107.943 20.8466 108.034 20.8043 108.077 20.7855C108.122 20.7658 108.143 20.7597 108.133 20.763L109.932 26.487C110.25 26.3869 110.677 26.2259 111.097 25.9528L107.827 20.9222ZM108.186 20.7469C108.101 20.7719 107.98 20.8028 107.816 20.8371L109.045 26.7098C109.33 26.6503 109.61 26.5822 109.879 26.5031L108.186 20.7469ZM107.882 20.824C107.68 20.8616 107.478 20.8968 107.277 20.9296L108.241 26.8516C108.487 26.8115 108.733 26.7686 108.979 26.7228L107.882 20.824ZM107.344 20.9194C107.118 20.951 106.911 20.9801 106.725 21.0067L107.574 26.9464C107.752 26.9209 107.952 26.8927 108.173 26.8618L107.344 20.9194ZM106.714 21.0083C106.126 21.0945 105.524 21.244 104.944 21.4926L107.308 27.0074C107.308 27.0075 107.328 26.9987 107.375 26.9862C107.422 26.9737 107.491 26.9586 107.585 26.9448L106.714 21.0083ZM104.944 21.4926C104.263 21.7848 103.583 22.2479 103.053 22.9485L107.839 26.5671C107.633 26.8406 107.406 26.9652 107.308 27.0074L104.944 21.4926ZM103.075 22.9201C102.434 23.7473 102.204 24.6892 102.204 25.5391H108.204C108.204 25.7639 108.136 26.185 107.818 26.5955L103.075 22.9201ZM102.204 25.5391C102.204 26.8224 102.728 28.1254 103.927 29.001L107.465 24.1552C107.68 24.3122 107.893 24.5482 108.038 24.8544C108.178 25.1494 108.204 25.4017 108.204 25.5391H102.204ZM103.971 29.0322C104.924 29.7026 105.991 29.9297 106.962 29.9297V23.9297C106.934 23.9297 106.976 23.9264 107.066 23.9512C107.16 23.9775 107.288 24.0299 107.422 24.124L103.971 29.0322ZM120.101 26.1953C119.733 26.1953 119.469 26.1097 119.23 25.9583L116.018 31.0261C117.258 31.8121 118.645 32.1953 120.101 32.1953V26.1953ZM119.251 25.9716C119.059 25.8475 118.819 25.6186 118.587 25.1266L113.161 27.6859C113.793 29.0272 114.721 30.189 115.997 31.0128L119.251 25.9716ZM118.596 25.1452C118.401 24.723 118.233 24.0507 118.233 23.0156H112.233C112.233 24.6576 112.493 26.2458 113.152 27.6673L118.596 25.1452ZM118.233 23.0156C118.233 21.941 118.409 21.2808 118.596 20.8966L113.199 18.2752C112.5 19.7139 112.233 21.3402 112.233 23.0156H118.233ZM118.599 20.8906C118.838 20.3949 119.073 20.1867 119.238 20.0844L116.088 14.9781C114.785 15.782 113.842 16.9436 113.196 18.2813L118.599 20.8906ZM119.243 20.0813C119.503 19.9207 119.764 19.8438 120.093 19.8438V13.8438C118.661 13.8438 117.303 14.2252 116.083 14.9812L119.243 20.0813ZM120.093 19.8438C120.442 19.8438 120.499 19.9056 120.406 19.8582L123.139 14.5168C122.15 14.011 121.087 13.8438 120.093 13.8438V19.8438ZM120.443 19.8769C120.509 19.9095 120.542 19.9333 120.553 19.9418C120.563 19.9495 120.556 19.9453 120.541 19.9271L125.191 16.1354C124.604 15.4158 123.88 14.8825 123.102 14.4981L120.443 19.8769ZM120.573 19.9659C120.715 20.1342 120.764 20.2303 120.773 20.2504L126.241 17.7809C125.958 17.1551 125.58 16.595 125.159 16.0966L120.573 19.9659ZM123.507 22.0156H123.608V16.0156H123.507V22.0156ZM126.608 19.0156V13H120.608V19.0156H126.608ZM123.608 16H126.929V10H123.608V16ZM123.929 13V29H129.929V13H123.929ZM126.929 26H123.647V32H126.929V26ZM126.647 29V27.0781H120.647V29H126.647ZM123.647 24.0781H123.507V30.0781H123.647V24.0781ZM120.79 25.8048C120.772 25.8435 120.718 25.9426 120.583 26.0973L125.103 30.0433C125.541 29.5418 125.929 28.9795 126.223 28.3514L120.79 25.8048ZM120.581 26.1C120.596 26.0828 120.601 26.0808 120.587 26.0912C120.572 26.1022 120.534 26.1277 120.462 26.1613L123.02 31.5887C123.786 31.2279 124.509 30.7254 125.105 30.0407L120.581 26.1ZM120.45 26.167C120.508 26.1395 120.429 26.1953 120.101 26.1953V32.1953C121.064 32.1953 122.079 32.0376 123.032 31.583L120.45 26.167ZM121.155 29.5469C122.267 29.5469 123.401 29.2312 124.373 28.4649L120.657 23.7539C120.756 23.676 120.868 23.6171 120.978 23.5818C121.084 23.5478 121.151 23.5469 121.155 23.5469V29.5469ZM124.377 28.4615C125.255 27.7661 125.832 26.8632 126.185 25.9145L120.563 23.8199C120.54 23.881 120.529 23.8908 120.544 23.8693C120.56 23.8455 120.596 23.8023 120.653 23.7572L124.377 28.4615ZM126.176 25.9386C126.539 24.9906 126.679 23.9902 126.679 23H120.679C120.679 23.4369 120.616 23.6813 120.572 23.7958L126.176 25.9386ZM126.679 23C126.679 22.0187 126.544 21.0253 126.19 20.0842L120.574 22.197C120.616 22.3081 120.679 22.5543 120.679 23H126.679ZM126.19 20.0842C125.832 19.1335 125.244 18.226 124.344 17.5379L120.701 22.3059C120.634 22.2544 120.59 22.2029 120.567 22.1702C120.546 22.1402 120.553 22.1419 120.574 22.197L126.19 20.0842ZM124.344 17.5379C123.375 16.7981 122.256 16.4922 121.155 16.4922V22.4922C121.155 22.4922 121.096 22.4919 121 22.4616C120.899 22.43 120.794 22.377 120.701 22.3059L124.344 17.5379ZM121.155 16.4922C120.034 16.4922 118.89 16.8098 117.91 17.5854L121.635 22.2896C121.537 22.3669 121.426 22.4247 121.319 22.4591C121.217 22.492 121.154 22.4922 121.155 22.4922V16.4922ZM117.91 17.5854C117.032 18.2809 116.454 19.1845 116.104 20.1399L121.738 22.2038C121.757 22.1503 121.766 22.1464 121.748 22.1723C121.728 22.2006 121.691 22.245 121.635 22.2896L117.91 17.5854ZM116.104 20.1399C115.765 21.0643 115.632 22.0354 115.632 23H121.632C121.632 22.5791 121.691 22.3315 121.738 22.2038L116.104 20.1399ZM115.632 23C115.632 23.9687 115.765 24.9402 116.098 25.8658L121.744 23.8373C121.691 23.69 121.632 23.4271 121.632 23H115.632ZM116.11 25.8989C116.458 26.835 117.021 27.7278 117.875 28.4249L121.67 23.7782C121.694 23.7979 121.715 23.8174 121.731 23.8351C121.747 23.8527 121.757 23.8663 121.762 23.8735C121.771 23.8878 121.757 23.871 121.732 23.8042L116.11 25.8989ZM117.91 28.4537C118.89 29.2293 120.034 29.5469 121.155 29.5469V23.5469C121.154 23.5469 121.217 23.547 121.319 23.58C121.426 23.6144 121.537 23.6722 121.635 23.7494L117.91 28.4537ZM135.464 26.2344C134.637 26.2344 134.102 26.069 133.745 25.8684L130.808 31.1003C132.232 31.8997 133.822 32.2344 135.464 32.2344V26.2344ZM133.763 25.8787C133.389 25.6652 133.11 25.3806 132.891 24.9602L127.568 27.7273C128.307 29.1507 129.393 30.2932 130.79 31.09L133.763 25.8787ZM132.894 24.9663C132.677 24.5464 132.511 23.9418 132.511 23.0547H126.511C126.511 24.6988 126.823 26.287 127.564 27.7212L132.894 24.9663ZM132.511 23.0547C132.511 22.2128 132.672 21.6148 132.898 21.1761L127.561 18.4333C126.828 19.8591 126.511 21.4278 126.511 23.0547H132.511ZM132.898 21.1761C133.13 20.7241 133.422 20.4218 133.794 20.1988L130.712 15.0512C129.344 15.8699 128.287 17.0206 127.561 18.4333L132.898 21.1761ZM133.787 20.2029C134.13 19.999 134.609 19.8438 135.331 19.8438V13.8438C133.699 13.8438 132.126 14.2093 130.718 15.0471L133.787 20.2029ZM135.331 19.8438C135.795 19.8438 136.173 19.9174 136.491 20.0364L138.593 14.4167C137.546 14.0253 136.45 13.8438 135.331 13.8438V19.8438ZM136.517 20.0459C136.805 20.1507 137.032 20.2969 137.228 20.4915L141.449 16.2272C140.625 15.4115 139.654 14.8024 138.567 14.4072L136.517 20.0459ZM137.239 20.5022C137.402 20.6616 137.579 20.9081 137.732 21.3169L143.352 19.2143C142.932 18.0919 142.307 17.0676 141.438 16.2165L137.239 20.5022ZM137.735 21.3232C137.866 21.6714 137.972 22.1891 137.972 22.9375H143.972C143.972 21.6443 143.791 20.3807 143.349 19.208L137.735 21.3232ZM137.972 22.9375V23.8516H143.972V22.9375H137.972ZM140.972 20.8516H130.839V26.8516H140.972V20.8516ZM133.839 23.8516V21.7891H127.839V23.8516H133.839ZM130.839 24.7891H137.839V18.7891H130.839V24.7891ZM140.839 21.7891C140.839 20.8617 140.633 19.9179 140.14 19.0431L134.913 21.9882C134.879 21.9283 134.858 21.8711 134.847 21.8263C134.837 21.7833 134.839 21.7675 134.839 21.7891H140.839ZM140.14 19.0431C139.663 18.1958 138.979 17.512 138.132 17.0347L135.187 22.2622C135.143 22.2376 135.088 22.1984 135.032 22.1428C134.976 22.0872 134.937 22.0318 134.913 21.9882L140.14 19.0431ZM138.175 17.0598C137.287 16.5394 136.324 16.3281 135.386 16.3281V22.3281C135.407 22.3281 135.386 22.3304 135.336 22.3176C135.282 22.3042 135.214 22.2789 135.143 22.2371L138.175 17.0598ZM135.386 16.3281C134.398 16.3281 133.405 16.5633 132.498 17.1072L135.585 22.2522C135.532 22.284 135.477 22.306 135.43 22.3183C135.385 22.3302 135.366 22.3281 135.386 22.3281V16.3281ZM132.509 17.1011C131.671 17.5991 130.995 18.2925 130.518 19.1436L135.753 22.0752C135.739 22.101 135.713 22.1386 135.675 22.1781C135.636 22.2175 135.6 22.2438 135.575 22.2583L132.509 17.1011ZM130.527 19.1286C130.04 19.9864 129.81 20.92 129.8 21.8655L135.8 21.9314C135.8 21.9223 135.8 21.9404 135.791 21.9773C135.781 22.0151 135.765 22.0549 135.745 22.0902L130.527 19.1286ZM129.8 21.8984V23.8594H135.8V21.8984H129.8ZM129.8 23.8594C129.8 24.8193 129.977 25.8166 130.451 26.753L135.805 24.0439C135.841 24.1157 135.8 24.087 135.8 23.8594H129.8ZM130.464 26.7785C130.941 27.6995 131.652 28.4648 132.574 28.997L135.572 23.7999C135.615 23.8247 135.666 23.8624 135.712 23.9118C135.758 23.9605 135.783 24.0014 135.792 24.0184L130.464 26.7785ZM132.574 28.997C133.515 29.54 134.534 29.75 135.518 29.75V23.75C135.45 23.75 135.43 23.7428 135.448 23.7471C135.457 23.7493 135.474 23.754 135.496 23.7629C135.519 23.7718 135.545 23.784 135.572 23.7999L132.574 28.997ZM135.518 29.75C136.171 29.75 136.84 29.6578 137.497 29.4349L135.571 23.7526C135.591 23.7457 135.6 23.7448 135.594 23.7458C135.587 23.7469 135.563 23.75 135.518 23.75V29.75ZM137.497 29.4349C138.186 29.2014 138.835 28.8282 139.392 28.2974L135.254 23.9526C135.374 23.8384 135.497 23.7778 135.571 23.7526L137.497 29.4349ZM139.392 28.2974C139.958 27.7581 140.366 27.1155 140.628 26.4233L135.018 24.2954C135.052 24.2074 135.125 24.0752 135.254 23.9526L139.392 28.2974ZM137.626 28.3529L140.704 28.556L141.099 22.569L138.021 22.3659L137.626 28.3529ZM137.966 24.9424C137.913 25.1937 137.82 25.368 137.685 25.5215L142.195 29.4785C143.03 28.5279 143.577 27.4105 143.837 26.1826L137.966 24.9424ZM137.684 25.523C137.552 25.6739 137.338 25.8456 136.957 25.9998L139.205 31.5627C140.344 31.1023 141.371 30.4199 142.197 29.477L137.684 25.523ZM136.967 25.9958C136.634 26.1291 136.152 26.2344 135.464 26.2344V32.2344C136.755 32.2344 138.018 32.0376 139.195 31.5667L136.967 25.9958ZM151.958 29V13H145.958V29H151.958ZM148.958 16H159.739V10H148.958V16ZM156.739 13V15.7891H162.739V13H156.739ZM159.739 12.7891H152.341V18.7891H159.739V12.7891ZM149.341 15.7891V19.6016H155.341V15.7891H149.341ZM152.341 22.6016H159.184V16.6016H152.341V22.6016ZM156.184 19.6016V22.3906H162.184V19.6016H156.184ZM159.184 19.3906H152.341V25.3906H159.184V19.3906ZM149.341 22.3906V26.2109H155.341V22.3906H149.341ZM152.341 29.2109H159.77V23.2109H152.341V29.2109ZM156.77 26.2109V29H162.77V26.2109H156.77ZM159.77 26H148.958V32H159.77V26ZM166.118 26.2266C165.701 26.2266 165.444 26.1553 165.287 26.0857L162.855 31.5705C163.896 32.0322 165.003 32.2266 166.118 32.2266V26.2266ZM165.307 26.0946C165.2 26.0461 165.173 26.0104 165.149 25.9744L160.149 29.2912C160.823 30.3073 161.744 31.0685 162.835 31.5617L165.307 26.0946ZM165.168 26.0031C165.184 26.0275 165.178 26.0289 165.166 25.9838C165.153 25.9347 165.133 25.8289 165.133 25.6484H159.133C159.133 26.8734 159.402 28.1369 160.13 29.2626L165.168 26.0031ZM165.133 25.6484C165.133 25.3372 165.191 25.2996 165.14 25.3947L159.861 22.5428C159.32 23.5442 159.133 24.6263 159.133 25.6484H165.133ZM165.14 25.3947C165.146 25.3841 165.15 25.3788 165.15 25.3774C165.151 25.3761 165.151 25.3772 165.148 25.3798C165.146 25.3824 165.144 25.3847 165.142 25.3864C165.14 25.3881 165.14 25.3876 165.143 25.3854L161.858 20.3646C161.01 20.9198 160.338 21.6608 159.861 22.5428L165.14 25.3947ZM165.143 25.3854C165.269 25.3034 165.444 25.2187 165.699 25.152L164.177 19.348C163.359 19.5626 162.577 19.8945 161.858 20.3646L165.143 25.3854ZM165.692 25.1537C166.071 25.0553 166.483 24.9824 166.929 24.9393L166.353 18.967C165.612 19.0385 164.888 19.1635 164.184 19.3463L165.692 25.1537ZM166.953 24.9369C167.67 24.862 168.278 24.7894 168.763 24.7184L167.894 18.7816C167.525 18.8356 167.008 18.8984 166.33 18.9694L166.953 24.9369ZM168.799 24.713C169.349 24.6257 170.19 24.4445 170.938 23.9389L167.579 18.9674C167.691 18.8913 167.786 18.8433 167.847 18.8153C167.91 18.7869 167.953 18.7724 167.969 18.7672C167.997 18.7582 167.968 18.7697 167.859 18.787L168.799 24.713ZM170.938 23.9389C172.047 23.1898 172.548 22.0125 172.548 20.875H166.548C166.548 20.6223 166.597 20.2597 166.792 19.8693C166.993 19.468 167.283 19.1674 167.579 18.9674L170.938 23.9389ZM172.548 20.875V20.8281H166.548V20.875H172.548ZM172.548 20.8281C172.548 19.6508 172.143 18.3656 171.044 17.4126L167.114 21.9468C166.914 21.7735 166.753 21.5487 166.653 21.3036C166.558 21.0718 166.548 20.8947 166.548 20.8281H172.548ZM171.062 17.4291C170.027 16.5168 168.782 16.2734 167.766 16.2734V22.2734C167.886 22.2734 167.516 22.3009 167.095 21.9303L171.062 17.4291ZM167.766 16.2734C166.745 16.2734 165.566 16.4999 164.537 17.2719L168.137 22.0719C167.816 22.3126 167.59 22.2734 167.766 22.2734V16.2734ZM164.559 17.2549C163.711 17.8789 163.063 18.7476 162.752 19.8221L168.515 21.4904C168.48 21.6111 168.421 21.7389 168.336 21.857C168.253 21.9732 168.169 22.048 168.114 22.0888L164.559 17.2549ZM165.876 17.6661L162.798 17.4161L162.313 23.3964L165.391 23.6464L165.876 17.6661ZM165.489 21.0348C165.546 20.766 165.64 20.6015 165.749 20.4753L161.206 16.5559C160.398 17.4923 159.877 18.5882 159.622 19.7777L165.489 21.0348ZM165.758 20.4643C165.867 20.3373 166.038 20.1962 166.354 20.0708L164.147 14.4917C163.016 14.9392 162.004 15.621 161.196 16.5669L165.758 20.4643ZM166.365 20.0667C166.671 19.9442 167.124 19.8438 167.782 19.8438V13.8438C166.524 13.8438 165.289 14.0349 164.137 14.4958L166.365 20.0667ZM167.782 19.8438C168.212 19.8438 168.599 19.8939 168.951 19.9841L170.441 14.1721C169.574 13.9498 168.685 13.8438 167.782 13.8438V19.8438ZM168.957 19.9856C169.259 20.0626 169.469 20.166 169.621 20.2713L173.036 15.3381C172.241 14.7871 171.362 14.4062 170.435 14.1706L168.957 19.9856ZM169.634 20.2799C169.713 20.3342 169.766 20.3916 169.817 20.4862L175.106 17.6544C174.605 16.7177 173.903 15.9314 173.024 15.3294L169.634 20.2799ZM169.823 20.4974C169.813 20.4798 169.876 20.578 169.876 20.9062H175.876C175.876 19.8074 175.662 18.6816 175.1 17.6432L169.823 20.4974ZM169.876 20.9062V29H175.876V20.9062H169.876ZM172.876 26H169.719V32H172.876V26ZM172.719 29V27.3359H166.719V29H172.719ZM169.719 24.3359H169.626V30.3359H169.719V24.3359ZM166.957 25.9647C166.939 26.0013 166.913 26.038 166.861 26.0839L170.843 30.5723C171.437 30.0453 171.927 29.4205 172.294 28.7071L166.957 25.9647ZM166.882 26.0659C166.875 26.0721 166.824 26.1153 166.681 26.1662L168.695 31.8181C169.458 31.5462 170.184 31.1467 170.823 30.5904L166.882 26.0659ZM166.71 26.1561C166.637 26.1815 166.455 26.2266 166.118 26.2266V32.2266C166.968 32.2266 167.834 32.1154 168.666 31.8283L166.71 26.1561ZM167.071 29.9297C167.96 29.9297 168.876 29.7523 169.739 29.3089L166.997 23.9723C167.048 23.946 167.089 23.9339 167.11 23.9293C167.129 23.925 167.119 23.9297 167.071 23.9297V29.9297ZM169.768 29.2938C170.568 28.8717 171.264 28.2628 171.777 27.462L166.725 24.2255C166.762 24.1669 166.809 24.112 166.86 24.066C166.91 24.0208 166.95 23.9967 166.968 23.9875L169.768 29.2938ZM171.777 27.462C172.32 26.6135 172.571 25.667 172.571 24.7109H166.571C166.571 24.6665 166.577 24.5902 166.604 24.4943C166.632 24.3969 166.674 24.3047 166.725 24.2255L171.777 27.462ZM172.571 24.7109V23.4375H166.571V24.7109H172.571ZM167.936 20.9222C168.052 20.8466 168.143 20.8043 168.186 20.7855C168.231 20.7658 168.252 20.7597 168.242 20.763L170.041 26.487C170.359 26.3869 170.786 26.2259 171.206 25.9528L167.936 20.9222ZM168.295 20.7469C168.21 20.7719 168.089 20.8028 167.925 20.8371L169.154 26.7098C169.439 26.6503 169.719 26.5822 169.988 26.5031L168.295 20.7469ZM167.991 20.824C167.789 20.8616 167.587 20.8968 167.386 20.9296L168.35 26.8516C168.596 26.8115 168.842 26.7686 169.088 26.7228L167.991 20.824ZM167.453 20.9194C167.227 20.951 167.02 20.9801 166.834 21.0067L167.683 26.9464C167.861 26.9209 168.061 26.8927 168.282 26.8618L167.453 20.9194ZM166.823 21.0083C166.235 21.0945 165.633 21.244 165.053 21.4926L167.417 27.0074C167.417 27.0075 167.437 26.9987 167.484 26.9862C167.531 26.9737 167.6 26.9586 167.694 26.9448L166.823 21.0083ZM165.053 21.4926C164.372 21.7848 163.692 22.2479 163.162 22.9485L167.948 26.5671C167.742 26.8406 167.515 26.9652 167.417 27.0074L165.053 21.4926ZM163.184 22.9201C162.543 23.7473 162.313 24.6892 162.313 25.5391H168.313C168.313 25.7639 168.245 26.185 167.927 26.5955L163.184 22.9201ZM162.313 25.5391C162.313 26.8224 162.837 28.1254 164.036 29.001L167.574 24.1552C167.789 24.3122 168.002 24.5482 168.147 24.8544C168.287 25.1494 168.313 25.4017 168.313 25.5391H162.313ZM164.08 29.0322C165.033 29.7026 166.1 29.9297 167.071 29.9297V23.9297C167.043 23.9297 167.085 23.9264 167.175 23.9512C167.269 23.9775 167.397 24.0299 167.531 24.124L164.08 29.0322ZM185.588 17.4275L182.541 17.615L182.909 23.6037L185.956 23.4162L185.588 17.4275ZM185.667 20.021C185.516 19.2668 185.185 18.5804 184.703 17.9971L180.075 21.8154C179.938 21.6487 179.83 21.4311 179.783 21.1977L185.667 20.021ZM184.726 18.0252C184.22 17.3964 183.591 16.9517 182.928 16.657L180.491 22.1399C180.391 22.0952 180.215 21.989 180.052 21.7873L184.726 18.0252ZM182.989 16.6851C182.222 16.3233 181.433 16.2031 180.717 16.2031V22.2031C180.773 22.2031 180.645 22.2132 180.43 22.1117L182.989 16.6851ZM180.717 16.2031C179.777 16.2031 178.765 16.4049 177.836 16.9789L180.989 22.0836C180.885 22.1479 180.794 22.18 180.736 22.1946C180.682 22.2082 180.67 22.2031 180.717 22.2031V16.2031ZM177.864 16.9621C176.77 17.6214 175.881 18.8044 175.881 20.3906H181.881C181.881 20.7292 181.79 21.1209 181.566 21.4837C181.353 21.8282 181.101 22.0162 180.962 22.1004L177.864 16.9621ZM175.881 20.3906C175.881 21.604 176.418 22.6569 177.264 23.3877L181.186 18.8467C181.347 18.9854 181.536 19.2011 181.679 19.5041C181.825 19.8115 181.881 20.1214 181.881 20.3906H175.881ZM177.264 23.3877C178.081 24.0929 179.088 24.3793 179.774 24.5268L181.035 18.6607C180.957 18.644 180.9 18.6291 180.862 18.6177C180.822 18.6062 180.809 18.6004 180.816 18.6032C180.822 18.6057 180.86 18.6213 180.92 18.6556C180.979 18.6895 181.074 18.7502 181.186 18.8467L177.264 23.3877ZM179.812 24.5347L181.984 24.9722L183.169 19.0903L180.997 18.6528L179.812 24.5347ZM181.973 24.9699C182.396 25.0568 182.692 25.1556 182.889 25.2428C183.084 25.3295 183.149 25.3899 183.146 25.3873L187.226 20.9877C186.093 19.9368 184.624 19.389 183.18 19.0926L181.973 24.9699ZM183.146 25.3873C183.14 25.3812 183.123 25.3644 183.103 25.3362C183.084 25.3077 183.067 25.2771 183.055 25.2485C183.03 25.1871 183.046 25.1831 183.046 25.2812H189.046C189.046 23.6805 188.48 22.1505 187.226 20.9877L183.146 25.3873ZM183.046 25.2812C183.046 25.3758 183.032 25.4201 183.028 25.4336C183.024 25.4455 183.016 25.4669 182.985 25.5054L187.715 29.1977C188.609 28.0521 189.046 26.705 189.046 25.2812H183.046ZM182.975 25.5184C182.884 25.6372 182.705 25.807 182.308 25.9719L184.611 31.5125C185.818 31.0107 186.9 30.2535 187.725 29.1847L182.975 25.5184ZM182.317 25.9682C181.95 26.1194 181.431 26.2344 180.702 26.2344V32.2344C182.055 32.2344 183.375 32.0212 184.602 31.5162L182.317 25.9682ZM180.702 26.2344C179.502 26.2344 178.907 25.9821 178.628 25.7864L175.182 30.698C176.788 31.8251 178.724 32.2344 180.702 32.2344V26.2344ZM178.643 25.7973C178.382 25.6114 178.274 25.4402 178.227 25.1048L172.286 25.942C172.561 27.8984 173.553 29.5397 175.166 30.6871L178.643 25.7973ZM175.414 28.5193L178.687 28.3474L178.373 22.3557L175.099 22.5276L175.414 28.5193ZM175.591 25.9521C175.833 27.1408 176.487 28.2203 177.577 28.9518L180.921 23.97C181.054 24.0597 181.192 24.1916 181.302 24.361C181.409 24.5264 181.453 24.6709 181.469 24.7511L175.591 25.9521ZM177.6 28.9676C178.599 29.6242 179.706 29.8359 180.71 29.8359V23.8359C180.62 23.8359 180.605 23.8263 180.645 23.8364C180.689 23.8476 180.783 23.8793 180.897 23.9543L177.6 28.9676ZM180.71 29.8359C181.647 29.8359 182.732 29.6598 183.719 29.0356L180.512 23.9644C180.653 23.8757 180.762 23.8435 180.802 23.8341C180.837 23.8255 180.814 23.8359 180.71 23.8359V29.8359ZM183.729 29.0295C184.756 28.3743 185.64 27.2284 185.662 25.6607L179.663 25.5737C179.668 25.2318 179.765 24.8606 179.972 24.5276C180.166 24.2137 180.389 24.0433 180.503 23.9705L183.729 29.0295ZM185.662 25.5655C185.641 24.3051 185.046 23.2197 184.111 22.499L180.448 27.251C180.272 27.115 180.06 26.8966 179.897 26.5803C179.732 26.2601 179.668 25.9387 179.663 25.6689L185.662 25.5655ZM184.142 22.5229C183.351 21.8964 182.426 21.6229 181.712 21.4801L180.535 27.3636C180.599 27.3764 180.645 27.3879 180.676 27.3965C180.706 27.4051 180.716 27.4093 180.709 27.4065C180.702 27.4037 180.671 27.3912 180.623 27.3649C180.575 27.3386 180.503 27.2946 180.418 27.2271L184.142 22.5229ZM181.71 21.4797L179.632 21.0656L178.459 26.95L180.537 27.364L181.71 21.4797ZM179.634 21.0661C178.788 20.8968 178.558 20.676 178.559 20.6774L174.297 24.9008C175.445 26.0583 176.96 26.65 178.457 26.9496L179.634 21.0661ZM178.569 20.6871C178.563 20.6817 178.567 20.6844 178.574 20.6951C178.581 20.706 178.586 20.717 178.589 20.7245C178.592 20.7316 178.589 20.7271 178.586 20.7064C178.582 20.685 178.577 20.6436 178.577 20.5781H172.577C172.577 22.1693 173.109 23.6903 174.288 24.891L178.569 20.6871ZM178.577 20.5781C178.577 20.4649 178.592 20.412 178.595 20.4C178.598 20.3911 178.599 20.3896 178.604 20.3823L173.799 16.7895C172.953 17.9214 172.577 19.2332 172.577 20.5781H178.577ZM178.594 20.3967C178.632 20.3462 178.744 20.2196 179.083 20.0849L176.868 14.5088C175.686 14.9783 174.615 15.7111 173.81 16.7752L178.594 20.3967ZM179.076 20.0875C179.417 19.9532 179.924 19.8438 180.663 19.8438V13.8438C179.349 13.8438 178.065 14.0363 176.874 14.5062L179.076 20.0875ZM180.663 19.8438C181.789 19.8438 182.278 20.0851 182.462 20.2202L186.02 15.3892C184.464 14.243 182.567 13.8438 180.663 13.8438V19.8438ZM182.469 20.2253C182.663 20.3677 182.756 20.4974 182.798 20.8147L188.746 20.0291C188.496 18.138 187.568 16.5229 186.013 15.3841L182.469 20.2253ZM191.471 29V17H185.471V29H191.471ZM188.471 20H191.799V14H188.471V20ZM188.799 17V29H194.799V17H188.799ZM191.799 26H188.471V32H191.799V26ZM190.143 12.4531C190.233 12.4531 190.373 12.4693 190.535 12.5318C190.698 12.5948 190.824 12.6823 190.909 12.7603L186.831 17.1616C187.755 18.0175 188.913 18.4531 190.143 18.4531V12.4531ZM190.942 12.7916C191.023 12.869 191.137 13.0066 191.225 13.2087C191.315 13.4135 191.346 13.6108 191.346 13.7656H185.346C185.346 15.0857 185.883 16.257 186.797 17.1303L190.942 12.7916ZM191.346 13.7656C191.346 13.9277 191.313 14.1325 191.219 14.3437C191.127 14.5519 191.008 14.6927 190.925 14.7715L186.815 10.4004C185.893 11.2667 185.346 12.4385 185.346 13.7656H191.346ZM190.926 14.7705C190.843 14.8482 190.717 14.938 190.55 15.0034C190.384 15.0685 190.239 15.0859 190.143 15.0859V9.08594C188.899 9.08594 187.735 9.53424 186.814 10.4013L190.926 14.7705ZM190.143 15.0859C190.048 15.0859 189.899 15.0685 189.728 15.0011C189.556 14.9331 189.424 14.8389 189.337 14.7553L193.481 10.4166C192.558 9.5353 191.388 9.08594 190.143 9.08594V15.0859ZM189.37 14.7866C189.287 14.7103 189.167 14.5699 189.072 14.3588C188.975 14.1441 188.94 13.934 188.94 13.7656H194.94C194.94 12.423 194.378 11.247 193.448 10.3853L189.37 14.7866ZM188.94 13.7656C188.94 13.6046 188.973 13.4019 189.066 13.1937C189.157 12.9886 189.273 12.8514 189.353 12.7763L193.465 17.1455C194.388 16.2766 194.94 15.101 194.94 13.7656H188.94ZM189.354 12.7754C189.443 12.6913 189.575 12.5995 189.743 12.5341C189.91 12.4692 190.053 12.4531 190.143 12.4531V18.4531C191.374 18.4531 192.538 18.0166 193.464 17.1465L189.354 12.7754ZM200.264 26.2344C199.437 26.2344 198.903 26.069 198.545 25.8684L195.608 31.1003C197.032 31.8997 198.622 32.2344 200.264 32.2344V26.2344ZM198.563 25.8787C198.189 25.6652 197.91 25.3806 197.692 24.9602L192.368 27.7273C193.108 29.1507 194.193 30.2932 195.59 31.09L198.563 25.8787ZM197.695 24.9663C197.478 24.5464 197.311 23.9418 197.311 23.0547H191.311C191.311 24.6988 191.623 26.287 192.365 27.7212L197.695 24.9663ZM197.311 23.0547C197.311 22.2128 197.472 21.6148 197.698 21.1761L192.362 18.4333C191.629 19.8591 191.311 21.4278 191.311 23.0547H197.311ZM197.698 21.1761C197.93 20.7241 198.222 20.4218 198.594 20.1988L195.512 15.0512C194.145 15.8699 193.088 17.0206 192.362 18.4333L197.698 21.1761ZM198.588 20.2029C198.93 19.999 199.409 19.8438 200.131 19.8438V13.8438C198.5 13.8438 196.926 14.2093 195.519 15.0471L198.588 20.2029ZM200.131 19.8438C200.595 19.8438 200.973 19.9174 201.291 20.0364L203.393 14.4167C202.347 14.0253 201.251 13.8438 200.131 13.8438V19.8438ZM201.317 20.0459C201.605 20.1507 201.832 20.2969 202.029 20.4915L206.25 16.2272C205.425 15.4115 204.454 14.8024 203.367 14.4072L201.317 20.0459ZM202.04 20.5022C202.202 20.6616 202.38 20.9081 202.532 21.3169L208.152 19.2143C207.732 18.0919 207.107 17.0676 206.239 16.2165L202.04 20.5022ZM202.535 21.3232C202.666 21.6714 202.772 22.1891 202.772 22.9375H208.772C208.772 21.6443 208.591 20.3807 208.15 19.208L202.535 21.3232ZM202.772 22.9375V23.8516H208.772V22.9375H202.772ZM205.772 20.8516H195.639V26.8516H205.772V20.8516ZM198.639 23.8516V21.7891H192.639V23.8516H198.639ZM195.639 24.7891H202.639V18.7891H195.639V24.7891ZM205.639 21.7891C205.639 20.8617 205.433 19.9179 204.94 19.0431L199.713 21.9882C199.679 21.9283 199.658 21.8711 199.647 21.8263C199.637 21.7833 199.639 21.7675 199.639 21.7891H205.639ZM204.94 19.0431C204.463 18.1958 203.779 17.512 202.932 17.0347L199.987 22.2622C199.943 22.2376 199.888 22.1984 199.832 22.1428C199.777 22.0872 199.737 22.0318 199.713 21.9882L204.94 19.0431ZM202.976 17.0598C202.087 16.5394 201.124 16.3281 200.186 16.3281V22.3281C200.207 22.3281 200.187 22.3304 200.136 22.3176C200.083 22.3042 200.015 22.2789 199.943 22.2371L202.976 17.0598ZM200.186 16.3281C199.198 16.3281 198.205 16.5633 197.299 17.1072L200.386 22.2522C200.333 22.284 200.278 22.306 200.23 22.3183C200.185 22.3302 200.166 22.3281 200.186 22.3281V16.3281ZM197.309 17.1011C196.471 17.5991 195.795 18.2925 195.318 19.1436L200.553 22.0752C200.539 22.101 200.513 22.1386 200.475 22.1781C200.436 22.2175 200.4 22.2438 200.375 22.2583L197.309 17.1011ZM195.327 19.1286C194.84 19.9864 194.611 20.92 194.6 21.8655L200.6 21.9314C200.6 21.9223 200.601 21.9404 200.591 21.9773C200.581 22.0151 200.565 22.0549 200.545 22.0902L195.327 19.1286ZM194.6 21.8984V23.8594H200.6V21.8984H194.6ZM194.6 23.8594C194.6 24.8193 194.778 25.8166 195.251 26.753L200.605 24.0439C200.641 24.1157 200.6 24.087 200.6 23.8594H194.6ZM195.264 26.7785C195.742 27.6995 196.452 28.4648 197.374 28.997L200.373 23.7999C200.416 23.8247 200.466 23.8624 200.513 23.9118C200.559 23.9605 200.583 24.0014 200.592 24.0184L195.264 26.7785ZM197.374 28.997C198.315 29.54 199.335 29.75 200.319 29.75V23.75C200.25 23.75 200.231 23.7428 200.249 23.7471C200.257 23.7493 200.274 23.754 200.297 23.7629C200.319 23.7718 200.345 23.784 200.373 23.7999L197.374 28.997ZM200.319 29.75C200.971 29.75 201.64 29.6578 202.298 29.4349L200.371 23.7526C200.392 23.7457 200.4 23.7448 200.394 23.7458C200.387 23.7469 200.363 23.75 200.319 23.75V29.75ZM202.298 29.4349C202.987 29.2014 203.635 28.8282 204.192 28.2974L200.055 23.9526C200.174 23.8384 200.297 23.7778 200.371 23.7526L202.298 29.4349ZM204.192 28.2974C204.759 27.7581 205.166 27.1155 205.428 26.4233L199.818 24.2954C199.852 24.2074 199.926 24.0752 200.055 23.9526L204.192 28.2974ZM202.426 28.3529L205.504 28.556L205.899 22.569L202.821 22.3659L202.426 28.3529ZM202.766 24.9424C202.713 25.1937 202.62 25.368 202.486 25.5215L206.996 29.4785C207.83 28.5279 208.377 27.4105 208.637 26.1826L202.766 24.9424ZM202.484 25.523C202.352 25.6739 202.139 25.8456 201.757 25.9998L204.005 31.5627C205.145 31.1023 206.171 30.4199 206.997 29.477L202.484 25.523ZM201.767 25.9958C201.434 26.1291 200.952 26.2344 200.264 26.2344V32.2344C201.555 32.2344 202.818 32.0376 203.995 31.5667L201.767 25.9958ZM211.274 29V17H205.274V29H211.274ZM208.274 20H211.5V14H208.274V20ZM208.5 17V19.0938H214.5V17H208.5ZM211.5 22.0938H211.625V16.0938H211.5V22.0938ZM214.504 19.9392C214.543 19.8053 214.576 19.7542 214.577 19.7531C214.577 19.7527 214.571 19.7618 214.558 19.7762C214.544 19.7908 214.527 19.8064 214.507 19.8208L210.946 14.9917C209.799 15.8378 209.11 17.0113 208.747 18.2483L214.504 19.9392ZM214.523 19.8092C214.526 19.8067 214.523 19.8092 214.515 19.8137C214.506 19.8183 214.495 19.8227 214.485 19.8261C214.475 19.8295 214.469 19.8303 214.47 19.8301C214.472 19.8298 214.484 19.8281 214.508 19.8281V13.8281C213.219 13.8281 211.989 14.2125 210.931 15.0033L214.523 19.8092ZM214.508 19.8281C214.551 19.8281 214.622 19.8309 214.725 19.842L215.37 13.8768C215.087 13.8462 214.798 13.8281 214.508 13.8281V19.8281ZM214.725 19.842C214.769 19.8468 214.8 19.8513 214.818 19.8544C214.837 19.8576 214.839 19.8587 214.827 19.8557L216.283 14.0349C215.972 13.9572 215.662 13.9084 215.37 13.8768L214.725 19.842ZM212.555 16.9453V19.8984H218.555V16.9453H212.555ZM216.417 17.025C216.037 16.911 215.64 16.8443 215.299 16.7993L214.514 22.7476C214.608 22.76 214.671 22.7706 214.708 22.7778C214.749 22.7856 214.738 22.7855 214.693 22.7719L216.417 17.025ZM215.299 16.7993C214.92 16.7491 214.534 16.7188 214.149 16.7188V22.7188C214.222 22.7188 214.341 22.7248 214.514 22.7476L215.299 16.7993ZM214.149 16.7188C213.208 16.7188 212.261 16.9283 211.382 17.4149L214.29 22.6632C214.244 22.6887 214.2 22.7048 214.165 22.7133C214.131 22.7214 214.123 22.7188 214.149 22.7188V16.7188ZM211.395 17.4081C210.542 17.8752 209.85 18.5457 209.354 19.3758L214.506 22.4523C214.487 22.4831 214.455 22.5268 214.408 22.5723C214.361 22.6178 214.314 22.65 214.278 22.67L211.395 17.4081ZM209.339 19.4025C208.819 20.2926 208.602 21.2594 208.602 22.2109H214.602C214.602 22.1903 214.604 22.2088 214.592 22.2554C214.58 22.3039 214.557 22.3642 214.521 22.4257L209.339 19.4025ZM208.602 22.2109V29H214.602V22.2109H208.602ZM211.602 26H208.274V32H211.602V26Z" fill="#FDBA74" mask="url(#path-1-outside-1_1_951)"/>
</svg>
